sporting_grotesque_gras.ufo
<glyph name="exclam" format="1">
  <advance width="354"/>
  <unicode hex="0021"/>
  <outline>
    <contour>
      <point x="80" y="777" type="line"/>
      <point x="120" y="261" type="line"/>
      <point x="239" y="261" type="line"/>
      <point x="279" y="777" type="line"/>
    </contour>
    <contour>
      <point x="80" y="173" type="line"/>
      <point x="80" y="0" type="line"/>
      <point x="281" y="0" type="line"/>
      <point x="281" y="173" type="line"/>
    </contour>
  </outline>
</glyph>
<glyph name="quotedbl" format="1">
  <advance width="534"/>
  <unicode hex="0022"/>
  <outline>
    <contour>
      <point x="60" y="777" type="line"/>
      <point x="60" y="628" type="line"/>
      <point x="119" y="429" type="line"/>
      <point x="174" y="429" type="line"/>
      <point x="233" y="628" type="line"/>
      <point x="233" y="777" type="line"/>
    </contour>
    <contour>
      <point x="301" y="777" type="line"/>
      <point x="301" y="628" type="line"/>
      <point x="360" y="429" type="line"/>
      <point x="415" y="429" type="line"/>
      <point x="475" y="628" type="line"/>
      <point x="475" y="777" type="line"/>
    </contour>
  </outline>
</glyph>
<glyph name="numbersign" format="1">
  <advance width="692"/>
  <unicode hex="0023"/>
  <outline>
    <contour>
      <point x="93" y="545" type="line"/>
      <point x="93" y="501" type="line"/>
      <point x="232" y="501" type="line"/>
      <point x="181" y="314" type="line"/>
      <point x="35" y="314" type="line"/>
      <point x="35" y="270" type="line"/>
      <point x="169" y="270" type="line"/>
      <point x="97" y="0" type="line"/>
      <point x="142" y="0" type="line"/>
      <point x="214" y="270" type="line"/>
      <point x="401" y="270" type="line"/>
      <point x="328" y="0" type="line"/>
      <point x="373" y="0" type="line"/>
      <point x="445" y="270" type="line"/>
      <point x="601" y="270" type="line"/>
      <point x="601" y="314" type="line"/>
      <point x="457" y="314" type="line"/>
      <point x="508" y="501" type="line"/>
      <point x="659" y="501" type="line"/>
      <point x="659" y="545" type="line"/>
      <point x="519" y="545" type="line"/>
      <point x="586" y="788" type="line"/>
      <point x="541" y="788" type="line"/>
      <point x="474" y="545" type="line"/>
      <point x="288" y="545" type="line"/>
      <point x="354" y="788" type="line"/>
      <point x="310" y="788" type="line"/>
      <point x="243" y="545" type="line"/>
    </contour>
    <contour>
      <point x="276" y="501" type="line"/>
      <point x="463" y="501" type="line"/>
      <point x="412" y="314" type="line"/>
      <point x="226" y="314" type="line"/>
    </contour>
  </outline>
</glyph>
<glyph name="dollar" format="1">
  <advance width="829"/>
  <unicode hex="0024"/>
  <outline>
    <contour>
      <point x="429" y="-223" type="line"/>
      <point x="429" y="-12" type="line"/>
      <point x="438" y="-13"/>
      <point x="448" y="-13"/>
      <point x="458" y="-13" type="curve" smooth="yes"/>
      <point x="628" y="-13"/>
      <point x="796" y="69"/>
      <point x="796" y="223" type="curve" smooth="yes"/>
      <point x="796" y="413"/>
      <point x="584" y="434"/>
      <point x="429" y="464" type="curve"/>
      <point x="429" y="629" type="line"/>
      <point x="558" y="606"/>
      <point x="594" y="489"/>
      <point x="594" y="489" type="curve"/>
      <point x="739" y="574" type="line"/>
      <point x="739" y="574"/>
      <point x="664" y="764"/>
      <point x="429" y="786" type="curve"/>
      <point x="429" y="992" type="line"/>
      <point x="386" y="992" type="line"/>
      <point x="386" y="788" type="line"/>
      <point x="385" y="788" type="line"/>
      <point x="236" y="788"/>
      <point x="92" y="698"/>
      <point x="92" y="559" type="curve" smooth="yes"/>
      <point x="92" y="404"/>
      <point x="245" y="369"/>
      <point x="386" y="342" type="curve"/>
      <point x="386" y="150" type="line"/>
      <point x="230" y="181"/>
      <point x="184" y="313"/>
      <point x="184" y="313" type="curve"/>
      <point x="32" y="242" type="line"/>
      <point x="32" y="242"/>
      <point x="101" y="23"/>
      <point x="386" y="-9" type="curve"/>
      <point x="386" y="-223" type="line"/>
    </contour>
    <contour>
      <point x="617" y="225" type="curve" smooth="yes"/>
      <point x="617" y="171"/>
      <point x="543" y="144"/>
      <point x="453" y="144" type="curve" smooth="yes"/>
      <point x="445" y="144"/>
      <point x="437" y="144"/>
      <point x="429" y="145" type="curve"/>
      <point x="429" y="334" type="line"/>
      <point x="531" y="315"/>
      <point x="617" y="293"/>
    </contour>
    <contour>
      <point x="269" y="560" type="curve" smooth="yes"/>
      <point x="269" y="604"/>
      <point x="313" y="633"/>
      <point x="383" y="633" type="curve" smooth="yes"/>
      <point x="386" y="633" type="line"/>
      <point x="386" y="473" type="line"/>
      <point x="318" y="489"/>
      <point x="269" y="512"/>
    </contour>
  </outline>
</glyph>
<glyph name="percent" format="1">
  <advance width="1033"/>
  <unicode hex="0025"/>
  <outline>
    <contour>
      <point x="360" y="-13" type="line"/>
      <point x="714" y="806" type="line"/>
      <point x="665" y="806" type="line"/>
      <point x="309" y="-13" type="line"/>
    </contour>
    <contour>
      <point x="20" y="567" type="curve" smooth="yes"/>
      <point x="20" y="423"/>
      <point x="125" y="326"/>
      <point x="260" y="326" type="curve" smooth="yes"/>
      <point x="395" y="326"/>
      <point x="499" y="423"/>
      <point x="499" y="567" type="curve" smooth="yes"/>
      <point x="499" y="709"/>
      <point x="395" y="808"/>
      <point x="260" y="808" type="curve" smooth="yes"/>
      <point x="115" y="808"/>
      <point x="20" y="709"/>
    </contour>
    <contour>
      <point x="190" y="567" type="curve" smooth="yes"/>
      <point x="190" y="639"/>
      <point x="215" y="674"/>
      <point x="260" y="674" type="curve" smooth="yes"/>
      <point x="304" y="674"/>
      <point x="330" y="639"/>
      <point x="330" y="567" type="curve" smooth="yes"/>
      <point x="330" y="495"/>
      <point x="304" y="457"/>
      <point x="260" y="457" type="curve" smooth="yes"/>
      <point x="215" y="457"/>
      <point x="190" y="495"/>
    </contour>
    <contour>
      <point x="534" y="228" type="curve" smooth="yes"/>
      <point x="534" y="84"/>
      <point x="639" y="-13"/>
      <point x="774" y="-13" type="curve" smooth="yes"/>
      <point x="909" y="-13"/>
      <point x="1013" y="84"/>
      <point x="1013" y="228" type="curve" smooth="yes"/>
      <point x="1013" y="370"/>
      <point x="909" y="469"/>
      <point x="774" y="469" type="curve" smooth="yes"/>
      <point x="629" y="469"/>
      <point x="534" y="370"/>
    </contour>
    <contour>
      <point x="704" y="228" type="curve" smooth="yes"/>
      <point x="704" y="300"/>
      <point x="729" y="335"/>
      <point x="774" y="335" type="curve" smooth="yes"/>
      <point x="818" y="335"/>
      <point x="844" y="300"/>
      <point x="844" y="228" type="curve" smooth="yes"/>
      <point x="844" y="156"/>
      <point x="818" y="118"/>
      <point x="774" y="118" type="curve" smooth="yes"/>
      <point x="729" y="118"/>
      <point x="704" y="156"/>
    </contour>
  </outline>
</glyph>
<glyph name="ampersand" format="1">
  <advance width="924"/>
  <unicode hex="0026"/>
  <outline>
    <contour>
      <point x="749" y="665" type="line"/>
      <point x="749" y="777" type="line"/>
      <point x="82" y="777" type="line"/>
      <point x="82" y="647" type="line"/>
      <point x="82" y="647"/>
      <point x="208" y="561"/>
      <point x="335" y="398" type="curve"/>
      <point x="42" y="127" type="line"/>
      <point x="42" y="0" type="line"/>
      <point x="545" y="0" type="line"/>
      <point x="565" y="-64"/>
      <point x="580" y="-133"/>
      <point x="588" y="-207" type="curve"/>
      <point x="765" y="-207" type="line"/>
      <point x="753" y="-133"/>
      <point x="734" y="-64"/>
      <point x="712" y="0" type="curve"/>
      <point x="866" y="0" type="line"/>
      <point x="866" y="144" type="line"/>
      <point x="652" y="144" type="line"/>
      <point x="605" y="240"/>
      <point x="550" y="322"/>
      <point x="496" y="391" type="curve"/>
    </contour>
    <contour>
      <point x="249" y="633" type="curve"/>
      <point x="589" y="633" type="line"/>
      <point x="421" y="478" type="line"/>
      <point x="326" y="580"/>
      <point x="249" y="633"/>
    </contour>
    <contour>
      <point x="490" y="144" type="curve"/>
      <point x="268" y="144" type="line"/>
      <point x="407" y="295" type="line"/>
      <point x="437" y="249"/>
      <point x="465" y="198"/>
    </contour>
  </outline>
</glyph>
<glyph name="quotesingle" format="1">
  <advance width="277"/>
  <unicode hex="0027"/>
  <outline>
    <contour>
      <point x="52" y="777" type="line"/>
      <point x="52" y="628" type="line"/>
      <point x="111" y="429" type="line"/>
      <point x="166" y="429" type="line"/>
      <point x="226" y="628" type="line"/>
      <point x="226" y="777" type="line"/>
    </contour>
  </outline>
</glyph>
<glyph name="parenleft" format="1">
  <advance width="444"/>
  <unicode hex="0028"/>
  <outline>
    <contour>
      <point x="396" y="-118" type="line"/>
      <point x="396" y="-118"/>
      <point x="200" y="24"/>
      <point x="200" y="374" type="curve"/>
      <point x="200" y="724"/>
      <point x="396" y="864"/>
      <point x="396" y="864" type="curve"/>
      <point x="333" y="932" type="line"/>
      <point x="333" y="932"/>
      <point x="36" y="765"/>
      <point x="36" y="374" type="curve"/>
      <point x="36" y="-7"/>
      <point x="333" y="-183"/>
      <point x="333" y="-183" type="curve"/>
    </contour>
  </outline>
</glyph>
<glyph name="parenright" format="1">
  <advance width="444"/>
  <unicode hex="0029"/>
  <outline>
    <contour>
      <point x="111" y="-183" type="line"/>
      <point x="111" y="-183"/>
      <point x="408" y="-7"/>
      <point x="408" y="374" type="curve"/>
      <point x="408" y="765"/>
      <point x="111" y="932"/>
      <point x="111" y="932" type="curve"/>
      <point x="48" y="864" type="line"/>
      <point x="48" y="864"/>
      <point x="244" y="724"/>
      <point x="244" y="374" type="curve"/>
      <point x="244" y="24"/>
      <point x="48" y="-118"/>
      <point x="48" y="-118" type="curve"/>
    </contour>
  </outline>
</glyph>
<glyph name="asterisk" format="1">
  <advance width="376"/>
  <unicode hex="002A"/>
  <outline>
    <contour>
      <point x="210" y="639" type="line"/>
      <point x="205" y="751" type="line"/>
      <point x="278" y="668" type="line"/>
      <point x="309" y="698" type="line"/>
      <point x="223" y="772" type="line"/>
      <point x="336" y="764" type="line"/>
      <point x="336" y="808" type="line"/>
      <point x="225" y="799" type="line"/>
      <point x="309" y="876" type="line"/>
      <point x="278" y="906" type="line"/>
      <point x="205" y="819" type="line"/>
      <point x="210" y="935" type="line"/>
      <point x="167" y="935" type="line"/>
      <point x="173" y="819" type="line"/>
      <point x="99" y="908" type="line"/>
      <point x="69" y="877" type="line"/>
      <point x="153" y="798" type="line"/>
      <point x="40" y="808" type="line"/>
      <point x="40" y="764" type="line"/>
      <point x="153" y="766" type="line"/>
      <point x="69" y="697" type="line"/>
      <point x="99" y="666" type="line"/>
      <point x="176" y="750" type="line"/>
      <point x="167" y="639" type="line"/>
    </contour>
  </outline>
</glyph>
<glyph name="plus" format="1">
  <advance width="611"/>
  <unicode hex="002B"/>
  <outline>
    <contour>
      <point x="327" y="0" type="line"/>
      <point x="327" y="256" type="line"/>
      <point x="589" y="256" type="line"/>
      <point x="589" y="299" type="line"/>
      <point x="327" y="299" type="line"/>
      <point x="327" y="555" type="line"/>
      <point x="284" y="555" type="line"/>
      <point x="284" y="299" type="line"/>
      <point x="22" y="299" type="line"/>
      <point x="22" y="256" type="line"/>
      <point x="284" y="256" type="line"/>
      <point x="284" y="0" type="line"/>
    </contour>
  </outline>
</glyph>
<glyph name="comma" format="1">
  <advance width="320"/>
  <unicode hex="002C"/>
  <outline>
    <contour>
      <point x="65" y="173" type="line"/>
      <point x="65" y="0" type="line"/>
      <point x="185" y="0" type="line"/>
      <point x="185" y="-82"/>
      <point x="127" y="-94"/>
      <point x="68" y="-94" type="curve"/>
      <point x="68" y="-154" type="line"/>
      <point x="174" y="-154"/>
      <point x="266" y="-131"/>
      <point x="266" y="28" type="curve"/>
      <point x="266" y="173" type="line"/>
    </contour>
  </outline>
</glyph>
<glyph name="hyphen" format="1">
  <advance width="595"/>
  <unicode hex="002D"/>
  <outline>
    <contour>
      <point x="66" y="233" type="line"/>
      <point x="529" y="233" type="line"/>
      <point x="529" y="328" type="line"/>
      <point x="66" y="328" type="line"/>
    </contour>
  </outline>
</glyph>
<glyph name="period" format="1">
  <advance width="298"/>
  <unicode hex="002E"/>
  <outline>
    <contour>
      <point x="60" y="0" type="line"/>
      <point x="238" y="0" type="line"/>
      <point x="238" y="150" type="line"/>
      <point x="60" y="150" type="line"/>
    </contour>
  </outline>
</glyph>
<glyph name="slash" format="1">
  <advance width="406"/>
  <unicode hex="002F"/>
  <outline>
    <contour>
      <point x="65" y="-207" type="line"/>
      <point x="384" y="986" type="line"/>
      <point x="342" y="996" type="line"/>
      <point x="23" y="-197" type="line"/>
    </contour>
  </outline>
</glyph>
<glyph name="zero" format="1">
  <advance width="843"/>
  <unicode hex="0030"/>
  <outline>
    <contour>
      <point x="53" y="387" type="curve"/>
      <point x="53" y="165"/>
      <point x="188" y="-13"/>
      <point x="421" y="-13" type="curve" smooth="yes"/>
      <point x="655" y="-13"/>
      <point x="790" y="165"/>
      <point x="790" y="387" type="curve" smooth="yes"/>
      <point x="790" y="610"/>
      <point x="655" y="787"/>
      <point x="421" y="787" type="curve" smooth="yes"/>
      <point x="188" y="787"/>
      <point x="53" y="610"/>
    </contour>
    <contour>
      <point x="237" y="387" type="curve"/>
      <point x="237" y="530"/>
      <point x="289" y="643"/>
      <point x="421" y="643" type="curve" smooth="yes"/>
      <point x="554" y="643"/>
      <point x="606" y="530"/>
      <point x="606" y="387" type="curve" smooth="yes"/>
      <point x="606" y="245"/>
      <point x="554" y="134"/>
      <point x="421" y="134" type="curve" smooth="yes"/>
      <point x="289" y="134"/>
      <point x="237" y="245"/>
    </contour>
  </outline>
</glyph>
<glyph name="one" format="1">
  <advance width="584"/>
  <unicode hex="0031"/>
  <outline>
    <contour>
      <point x="518" y="0" type="line"/>
      <point x="518" y="777" type="line"/>
      <point x="376" y="777" type="line"/>
      <point x="316" y="628"/>
      <point x="189" y="592"/>
      <point x="20" y="592" type="curve"/>
      <point x="20" y="444" type="line"/>
      <point x="262" y="444"/>
      <point x="348" y="575"/>
      <point x="348" y="575" type="curve"/>
      <point x="348" y="0" type="line"/>
    </contour>
  </outline>
</glyph>
<glyph name="two" format="1">
  <advance width="806"/>
  <unicode hex="0032"/>
  <outline>
    <contour>
      <point x="740" y="537" type="curve" smooth="yes"/>
      <point x="740" y="673"/>
      <point x="629" y="788"/>
      <point x="439" y="788" type="curve"/>
      <point x="100" y="788"/>
      <point x="64" y="521"/>
      <point x="64" y="521" type="curve"/>
      <point x="209" y="433" type="line"/>
      <point x="209" y="433"/>
      <point x="225" y="633"/>
      <point x="427" y="633" type="curve"/>
      <point x="510" y="633"/>
      <point x="563" y="584"/>
      <point x="563" y="517" type="curve" smooth="yes"/>
      <point x="563" y="362"/>
      <point x="268" y="228"/>
      <point x="54" y="134" type="curve"/>
      <point x="54" y="0" type="line"/>
      <point x="748" y="0" type="line"/>
      <point x="748" y="144" type="line"/>
      <point x="298" y="144" type="line"/>
      <point x="543" y="235"/>
      <point x="740" y="356"/>
    </contour>
  </outline>
</glyph>
<glyph name="three" format="1">
  <advance width="800"/>
  <unicode hex="0033"/>
  <outline>
    <contour>
      <point x="321" y="334" type="line"/>
      <point x="498" y="353"/>
      <point x="565" y="318"/>
      <point x="565" y="239" type="curve" smooth="yes"/>
      <point x="565" y="182"/>
      <point x="512" y="134"/>
      <point x="404" y="134" type="curve" smooth="yes"/>
      <point x="266" y="134"/>
      <point x="212" y="214"/>
      <point x="212" y="300" type="curve"/>
      <point x="44" y="300" type="line"/>
      <point x="44" y="148"/>
      <point x="144" y="-14"/>
      <point x="413" y="-14" type="curve" smooth="yes"/>
      <point x="614" y="-14"/>
      <point x="748" y="110"/>
      <point x="748" y="240" type="curve" smooth="yes"/>
      <point x="748" y="367"/>
      <point x="662" y="431"/>
      <point x="535" y="422" type="curve"/>
      <point x="550" y="426"/>
      <point x="704" y="472"/>
      <point x="704" y="599" type="curve" smooth="yes"/>
      <point x="704" y="704"/>
      <point x="577" y="788"/>
      <point x="432" y="788" type="curve" smooth="yes"/>
      <point x="134" y="788"/>
      <point x="109" y="559"/>
      <point x="109" y="559" type="curve"/>
      <point x="254" y="471" type="line"/>
      <point x="254" y="471"/>
      <point x="263" y="643"/>
      <point x="413" y="643" type="curve" smooth="yes"/>
      <point x="485" y="643"/>
      <point x="520" y="603"/>
      <point x="520" y="556" type="curve" smooth="yes"/>
      <point x="520" y="499"/>
      <point x="475" y="444"/>
      <point x="378" y="444" type="curve" smooth="yes"/>
      <point x="321" y="444" type="line"/>
    </contour>
  </outline>
</glyph>
<glyph name="four" format="1">
  <advance width="831"/>
  <unicode hex="0034"/>
  <outline>
    <contour>
      <point x="27" y="221" type="line"/>
      <point x="483" y="221" type="line"/>
      <point x="483" y="0" type="line"/>
      <point x="656" y="0" type="line"/>
      <point x="656" y="221" type="line"/>
      <point x="785" y="221" type="line"/>
      <point x="785" y="364" type="line"/>
      <point x="656" y="364" type="line"/>
      <point x="656" y="777" type="line"/>
      <point x="461" y="777" type="line"/>
      <point x="27" y="311" type="line"/>
    </contour>
    <contour>
      <point x="483" y="633" type="line"/>
      <point x="483" y="364" type="line"/>
      <point x="243" y="364" type="line"/>
    </contour>
  </outline>
</glyph>
<glyph name="five" format="1">
  <advance width="807"/>
  <unicode hex="0035"/>
  <outline>
    <contour>
      <point x="754" y="276" type="curve"/>
      <point x="754" y="438"/>
      <point x="634" y="531"/>
      <point x="483" y="531" type="curve"/>
      <point x="329" y="531"/>
      <point x="253" y="444"/>
      <point x="253" y="444" type="curve"/>
      <point x="306" y="633" type="line"/>
      <point x="676" y="633" type="line"/>
      <point x="676" y="777" type="line"/>
      <point x="173" y="777" type="line"/>
      <point x="84" y="367" type="line"/>
      <point x="247" y="367" type="line"/>
      <point x="247" y="367"/>
      <point x="303" y="420"/>
      <point x="396" y="420" type="curve" smooth="yes"/>
      <point x="513" y="420"/>
      <point x="571" y="354"/>
      <point x="571" y="278" type="curve" smooth="yes"/>
      <point x="571" y="201"/>
      <point x="513" y="134"/>
      <point x="396" y="134" type="curve" smooth="yes"/>
      <point x="272" y="134"/>
      <point x="218" y="214"/>
      <point x="218" y="300" type="curve"/>
      <point x="50" y="300" type="line"/>
      <point x="50" y="148"/>
      <point x="150" y="-14"/>
      <point x="419" y="-14" type="curve" smooth="yes"/>
      <point x="620" y="-14"/>
      <point x="754" y="110"/>
    </contour>
  </outline>
</glyph>
<glyph name="six" format="1">
  <advance width="808"/>
  <unicode hex="0036"/>
  <outline>
    <contour>
      <point x="438" y="643" type="curve"/>
      <point x="551" y="643"/>
      <point x="592" y="548"/>
      <point x="592" y="548" type="curve"/>
      <point x="737" y="636" type="line"/>
      <point x="737" y="636"/>
      <point x="666" y="787"/>
      <point x="447" y="787" type="curve" smooth="yes"/>
      <point x="192" y="787"/>
      <point x="51" y="594"/>
      <point x="51" y="387" type="curve" smooth="yes"/>
      <point x="51" y="160"/>
      <point x="198" y="-14"/>
      <point x="416" y="-14" type="curve" smooth="yes"/>
      <point x="613" y="-14"/>
      <point x="756" y="116"/>
      <point x="756" y="277" type="curve" smooth="yes"/>
      <point x="756" y="409"/>
      <point x="664" y="511"/>
      <point x="489" y="511" type="curve"/>
      <point x="335" y="511"/>
      <point x="236" y="424"/>
      <point x="236" y="424" type="curve"/>
      <point x="236" y="424"/>
      <point x="255" y="643"/>
    </contour>
    <contour>
      <point x="413" y="400" type="curve"/>
      <point x="534" y="400"/>
      <point x="573" y="336"/>
      <point x="573" y="271" type="curve" smooth="yes"/>
      <point x="573" y="196"/>
      <point x="512" y="134"/>
      <point x="417" y="134" type="curve"/>
      <point x="241" y="134"/>
      <point x="236" y="346"/>
      <point x="236" y="346" type="curve"/>
      <point x="236" y="346"/>
      <point x="309" y="400"/>
    </contour>
  </outline>
</glyph>
<glyph name="seven" format="1">
  <advance width="795"/>
  <unicode hex="0037"/>
  <outline>
    <contour>
      <point x="766" y="777" type="line"/>
      <point x="57" y="777" type="line"/>
      <point x="57" y="633" type="line"/>
      <point x="578" y="633" type="line"/>
      <point x="578" y="633"/>
      <point x="208" y="436"/>
      <point x="115" y="0" type="curve"/>
      <point x="304" y="0" type="line"/>
      <point x="396" y="404"/>
      <point x="766" y="661"/>
      <point x="766" y="661" type="curve"/>
    </contour>
  </outline>
</glyph>
<glyph name="eight" format="1">
  <advance width="834"/>
  <unicode hex="0038"/>
  <outline>
    <contour>
      <point x="760" y="578" type="curve" smooth="yes"/>
      <point x="760" y="703"/>
      <point x="614" y="788"/>
      <point x="417" y="788" type="curve" smooth="yes"/>
      <point x="220" y="788"/>
      <point x="74" y="704"/>
      <point x="74" y="578" type="curve" smooth="yes"/>
      <point x="74" y="447"/>
      <point x="253" y="404"/>
      <point x="262" y="402" type="curve"/>
      <point x="256" y="401"/>
      <point x="54" y="379"/>
      <point x="54" y="215" type="curve" smooth="yes"/>
      <point x="54" y="62"/>
      <point x="226" y="-14"/>
      <point x="417" y="-14" type="curve" smooth="yes"/>
      <point x="608" y="-14"/>
      <point x="780" y="62"/>
      <point x="780" y="215" type="curve" smooth="yes"/>
      <point x="780" y="375"/>
      <point x="596" y="400"/>
      <point x="581" y="402" type="curve"/>
      <point x="597" y="406"/>
      <point x="760" y="449"/>
    </contour>
    <contour>
      <point x="598" y="238" type="curve" smooth="yes"/>
      <point x="598" y="166"/>
      <point x="518" y="133"/>
      <point x="417" y="133" type="curve" smooth="yes"/>
      <point x="316" y="133"/>
      <point x="236" y="166"/>
      <point x="236" y="238" type="curve" smooth="yes"/>
      <point x="236" y="315"/>
      <point x="327" y="340"/>
      <point x="417" y="340" type="curve" smooth="yes"/>
      <point x="507" y="340"/>
      <point x="598" y="315"/>
    </contour>
    <contour>
      <point x="257" y="551" type="curve" smooth="yes"/>
      <point x="257" y="603"/>
      <point x="310" y="643"/>
      <point x="417" y="643" type="curve" smooth="yes"/>
      <point x="524" y="643"/>
      <point x="577" y="603"/>
      <point x="577" y="551" type="curve" smooth="yes"/>
      <point x="577" y="491"/>
      <point x="503" y="463"/>
      <point x="417" y="463" type="curve" smooth="yes"/>
      <point x="331" y="463"/>
      <point x="257" y="491"/>
    </contour>
  </outline>
</glyph>
<glyph name="nine" format="1">
  <advance width="808"/>
  <unicode hex="0039"/>
  <outline>
    <contour>
      <point x="55" y="235" type="line"/>
      <point x="65" y="162"/>
      <point x="132" y="-14"/>
      <point x="383" y="-14" type="curve" smooth="yes"/>
      <point x="636" y="-14"/>
      <point x="757" y="179"/>
      <point x="757" y="386" type="curve" smooth="yes"/>
      <point x="757" y="613"/>
      <point x="610" y="787"/>
      <point x="392" y="787" type="curve" smooth="yes"/>
      <point x="195" y="787"/>
      <point x="52" y="657"/>
      <point x="52" y="496" type="curve" smooth="yes"/>
      <point x="52" y="364"/>
      <point x="144" y="262"/>
      <point x="319" y="262" type="curve"/>
      <point x="473" y="262"/>
      <point x="572" y="349"/>
      <point x="572" y="349" type="curve"/>
      <point x="572" y="238"/>
      <point x="524" y="130"/>
      <point x="381" y="130" type="curve"/>
      <point x="254" y="130"/>
      <point x="226" y="235"/>
      <point x="226" y="235" type="curve"/>
    </contour>
    <contour>
      <point x="395" y="373" type="curve"/>
      <point x="274" y="373"/>
      <point x="235" y="437"/>
      <point x="235" y="502" type="curve" smooth="yes"/>
      <point x="235" y="577"/>
      <point x="296" y="639"/>
      <point x="391" y="639" type="curve"/>
      <point x="567" y="639"/>
      <point x="572" y="427"/>
      <point x="572" y="427" type="curve"/>
      <point x="572" y="427"/>
      <point x="499" y="373"/>
    </contour>
  </outline>
</glyph>
<glyph name="colon" format="1">
  <advance width="332"/>
  <unicode hex="003A"/>
  <outline>
    <contour>
      <point x="66" y="173" type="line"/>
      <point x="66" y="0" type="line"/>
      <point x="267" y="0" type="line"/>
      <point x="267" y="173" type="line"/>
    </contour>
    <contour>
      <point x="66" y="571" type="line"/>
      <point x="66" y="398" type="line"/>
      <point x="267" y="398" type="line"/>
      <point x="267" y="571" type="line"/>
    </contour>
  </outline>
</glyph>
<glyph name="semicolon" format="1">
  <advance width="316"/>
  <unicode hex="003B"/>
  <outline>
    <contour>
      <point x="58" y="571" type="line"/>
      <point x="58" y="398" type="line"/>
      <point x="259" y="398" type="line"/>
      <point x="259" y="571" type="line"/>
    </contour>
    <contour>
      <point x="58" y="173" type="line"/>
      <point x="58" y="0" type="line"/>
      <point x="178" y="0" type="line"/>
      <point x="178" y="-82"/>
      <point x="120" y="-94"/>
      <point x="61" y="-94" type="curve"/>
      <point x="61" y="-154" type="line"/>
      <point x="167" y="-154"/>
      <point x="259" y="-131"/>
      <point x="259" y="28" type="curve" smooth="yes"/>
      <point x="259" y="173" type="line"/>
    </contour>
  </outline>
</glyph>
<glyph name="less" format="1">
  <advance width="399"/>
  <unicode hex="003C"/>
  <outline>
    <contour>
      <point x="21" y="277" type="line"/>
      <point x="333" y="38" type="line"/>
      <point x="333" y="87" type="line"/>
      <point x="81" y="277" type="line"/>
      <point x="337" y="474" type="line"/>
      <point x="337" y="522" type="line"/>
    </contour>
  </outline>
</glyph>
<glyph name="equal" format="1">
  <advance width="815"/>
  <unicode hex="003D"/>
  <outline>
    <contour>
      <point x="66" y="400" type="line"/>
      <point x="66" y="357" type="line"/>
      <point x="633" y="357" type="line"/>
      <point x="633" y="400" type="line"/>
    </contour>
    <contour>
      <point x="66" y="198" type="line"/>
      <point x="66" y="155" type="line"/>
      <point x="633" y="155" type="line"/>
      <point x="633" y="198" type="line"/>
    </contour>
  </outline>
</glyph>
<glyph name="greater" format="1">
  <advance width="399"/>
  <unicode hex="003E"/>
  <outline>
    <contour>
      <point x="62" y="522" type="line"/>
      <point x="62" y="474" type="line"/>
      <point x="317" y="277" type="line"/>
      <point x="66" y="87" type="line"/>
      <point x="66" y="38" type="line"/>
      <point x="378" y="277" type="line"/>
    </contour>
  </outline>
</glyph>
<glyph name="question" format="1">
  <advance width="743"/>
  <unicode hex="003F"/>
  <outline>
    <contour>
      <point x="706" y="579" type="curve"/>
      <point x="706" y="679"/>
      <point x="616" y="788"/>
      <point x="404" y="788" type="curve" smooth="yes"/>
      <point x="124" y="788"/>
      <point x="40" y="574"/>
      <point x="40" y="574" type="curve"/>
      <point x="185" y="489" type="line"/>
      <point x="185" y="489"/>
      <point x="236" y="633"/>
      <point x="390" y="633" type="curve" smooth="yes"/>
      <point x="486" y="633"/>
      <point x="530" y="586"/>
      <point x="530" y="530" type="curve" smooth="yes"/>
      <point x="530" y="458"/>
      <point x="446" y="399"/>
      <point x="288" y="382" type="curve"/>
      <point x="288" y="261" type="line"/>
      <point x="407" y="261" type="line"/>
      <point x="407" y="329" type="line"/>
      <point x="593" y="360"/>
      <point x="706" y="462"/>
    </contour>
    <contour>
      <point x="248" y="173" type="line"/>
      <point x="248" y="0" type="line"/>
      <point x="449" y="0" type="line"/>
      <point x="449" y="173" type="line"/>
    </contour>
  </outline>
</glyph>
<glyph name="at" format="1">
  <advance width="1164"/>
  <unicode hex="0040"/>
  <outline>
    <contour>
      <point x="589" y="651" type="curve"/>
      <point x="334" y="651"/>
      <point x="112" y="491"/>
      <point x="112" y="252" type="curve"/>
      <point x="112" y="-121"/>
      <point x="554" y="-128"/>
      <point x="554" y="-128" type="curve"/>
      <point x="537" y="-174" type="line"/>
      <point x="537" y="-174"/>
      <point x="52" y="-156"/>
      <point x="52" y="250" type="curve"/>
      <point x="52" y="530"/>
      <point x="314" y="693"/>
      <point x="589" y="693" type="curve" smooth="yes"/>
      <point x="916" y="693"/>
      <point x="1122" y="505"/>
      <point x="1122" y="273" type="curve" smooth="yes"/>
      <point x="1122" y="94"/>
      <point x="973" y="-14"/>
      <point x="854" y="-14" type="curve"/>
      <point x="718" y="-14"/>
      <point x="712" y="102"/>
      <point x="712" y="102" type="curve"/>
      <point x="687" y="102" type="line"/>
      <point x="687" y="102"/>
      <point x="628" y="-14"/>
      <point x="493" y="-14" type="curve"/>
      <point x="364" y="-14"/>
      <point x="271" y="82"/>
      <point x="271" y="215" type="curve" smooth="yes"/>
      <point x="271" y="394"/>
      <point x="414" y="509"/>
      <point x="547" y="509" type="curve" smooth="yes"/>
      <point x="696" y="509"/>
      <point x="745" y="383"/>
      <point x="745" y="383" type="curve"/>
      <point x="808" y="487" type="line"/>
      <point x="886" y="487" type="line"/>
      <point x="818" y="141" type="line" smooth="yes"/>
      <point x="804" y="72"/>
      <point x="816" y="38"/>
      <point x="876" y="38" type="curve" smooth="yes"/>
      <point x="914" y="38"/>
      <point x="1061" y="79"/>
      <point x="1061" y="271" type="curve" smooth="yes"/>
      <point x="1061" y="531"/>
      <point x="834" y="651"/>
    </contour>
    <contour>
      <point x="593" y="374" type="curve"/>
      <point x="497" y="374"/>
      <point x="441" y="312"/>
      <point x="441" y="229" type="curve"/>
      <point x="441" y="161"/>
      <point x="497" y="118"/>
      <point x="565" y="118" type="curve"/>
      <point x="638" y="118"/>
      <point x="673" y="164"/>
      <point x="673" y="164" type="curve"/>
      <point x="713" y="314" type="line"/>
      <point x="713" y="314"/>
      <point x="680" y="374"/>
    </contour>
  </outline>
</glyph>
<glyph name="A" format="1">
  <advance width="994"/>
  <unicode hex="0041"/>
  <outline>
    <contour>
      <point x="496" y="865" type="move" name="top"/>
    </contour>
    <contour>
      <point x="614" y="777" type="line"/>
      <point x="380" y="777" type="line"/>
      <point x="20" y="0" type="line"/>
      <point x="200" y="0" type="line"/>
      <point x="305" y="235" type="line"/>
      <point x="689" y="235" type="line"/>
      <point x="794" y="0" type="line"/>
      <point x="974" y="0" type="line"/>
    </contour>
    <contour>
      <point x="627" y="379" type="line"/>
      <point x="367" y="379" type="line"/>
      <point x="473" y="633" type="line"/>
      <point x="521" y="633" type="line"/>
    </contour>
  </outline>
</glyph>
<glyph name="B" format="1">
  <advance width="960"/>
  <unicode hex="0042"/>
  <outline>
    <contour>
      <point x="583" y="777" type="line" smooth="yes"/>
      <point x="786" y="777"/>
      <point x="862" y="706"/>
      <point x="862" y="600" type="curve" smooth="yes"/>
      <point x="862" y="485"/>
      <point x="717" y="443"/>
      <point x="703" y="439" type="curve"/>
      <point x="773" y="433"/>
      <point x="889" y="370"/>
      <point x="889" y="237" type="curve" smooth="yes"/>
      <point x="889" y="68"/>
      <point x="761" y="0"/>
      <point x="601" y="0" type="curve" smooth="yes"/>
      <point x="83" y="0" type="line"/>
      <point x="83" y="777" type="line"/>
    </contour>
    <contour>
      <point x="578" y="144" type="line" smooth="yes"/>
      <point x="669" y="144"/>
      <point x="715" y="174"/>
      <point x="715" y="235" type="curve" smooth="yes"/>
      <point x="715" y="297"/>
      <point x="664" y="329"/>
      <point x="576" y="329" type="curve" smooth="yes"/>
      <point x="257" y="329" type="line"/>
      <point x="257" y="144" type="line"/>
    </contour>
    <contour>
      <point x="258" y="471" type="line"/>
      <point x="611" y="471" type="line" smooth="yes"/>
      <point x="630" y="471"/>
      <point x="688" y="491"/>
      <point x="688" y="554" type="curve" smooth="yes"/>
      <point x="688" y="603"/>
      <point x="664" y="633"/>
      <point x="576" y="633" type="curve" smooth="yes"/>
      <point x="258" y="633" type="line"/>
    </contour>
  </outline>
</glyph>
<glyph name="C" format="1">
  <advance width="964"/>
  <unicode hex="0043"/>
  <outline>
    <contour>
      <point x="502" y="865" type="move" name="top"/>
    </contour>
    <contour>
      <point x="502" y="1" type="move" name="bottom"/>
    </contour>
    <contour>
      <point x="738" y="328" type="line"/>
      <point x="738" y="328"/>
      <point x="721" y="144"/>
      <point x="499" y="144" type="curve" smooth="yes"/>
      <point x="354" y="144"/>
      <point x="247" y="235"/>
      <point x="247" y="387" type="curve" smooth="yes"/>
      <point x="247" y="539"/>
      <point x="348" y="633"/>
      <point x="489" y="633" type="curve"/>
      <point x="708" y="633"/>
      <point x="719" y="433"/>
      <point x="719" y="433" type="curve"/>
      <point x="864" y="521" type="line"/>
      <point x="864" y="521"/>
      <point x="826" y="788"/>
      <point x="492" y="788" type="curve"/>
      <point x="240" y="788"/>
      <point x="64" y="621"/>
      <point x="64" y="387" type="curve" smooth="yes"/>
      <point x="64" y="153"/>
      <point x="236" y="-14"/>
      <point x="502" y="-14" type="curve" smooth="yes"/>
      <point x="893" y="-14"/>
      <point x="906" y="328"/>
      <point x="906" y="328" type="curve"/>
    </contour>
  </outline>
</glyph>
<glyph name="D" format="1">
  <advance width="932"/>
  <unicode hex="0044"/>
  <outline>
    <contour>
      <point x="83" y="0" type="line"/>
      <point x="83" y="777" type="line"/>
      <point x="471" y="777" type="line"/>
      <point x="740" y="777"/>
      <point x="865" y="629"/>
      <point x="865" y="387" type="curve" smooth="yes"/>
      <point x="865" y="149"/>
      <point x="741" y="0"/>
      <point x="471" y="0" type="curve"/>
    </contour>
    <contour>
      <point x="441" y="144" type="line"/>
      <point x="639" y="144"/>
      <point x="690" y="236"/>
      <point x="690" y="390" type="curve" smooth="yes"/>
      <point x="690" y="540"/>
      <point x="641" y="633"/>
      <point x="441" y="633" type="curve"/>
      <point x="256" y="633" type="line"/>
      <point x="256" y="144" type="line"/>
    </contour>
  </outline>
</glyph>
<glyph name="E" format="1">
  <advance width="844"/>
  <unicode hex="0045"/>
  <outline>
    <contour>
      <point x="422" y="865" type="move" name="top"/>
    </contour>
    <contour>
      <point x="83" y="0" type="line"/>
      <point x="765" y="0" type="line"/>
      <point x="765" y="144" type="line"/>
      <point x="256" y="144" type="line"/>
      <point x="256" y="328" type="line"/>
      <point x="684" y="328" type="line"/>
      <point x="684" y="471" type="line"/>
      <point x="256" y="471" type="line"/>
      <point x="256" y="633" type="line"/>
      <point x="738" y="633" type="line"/>
      <point x="738" y="777" type="line"/>
      <point x="83" y="777" type="line"/>
    </contour>
  </outline>
</glyph>
<glyph name="F" format="1">
  <advance width="770"/>
  <unicode hex="0046"/>
  <outline>
    <contour>
      <point x="83" y="0" type="line"/>
      <point x="257" y="0" type="line"/>
      <point x="257" y="329" type="line"/>
      <point x="685" y="329" type="line"/>
      <point x="685" y="471" type="line"/>
      <point x="257" y="471" type="line"/>
      <point x="257" y="633" type="line"/>
      <point x="738" y="633" type="line"/>
      <point x="738" y="777" type="line"/>
      <point x="83" y="777" type="line"/>
    </contour>
  </outline>
</glyph>
<glyph name="G" format="1">
  <advance width="966"/>
  <unicode hex="0047"/>
  <outline>
    <contour>
      <point x="453" y="235" type="line"/>
      <point x="693" y="235" type="line"/>
      <point x="693" y="235"/>
      <point x="643" y="134"/>
      <point x="492" y="134" type="curve" smooth="yes"/>
      <point x="362" y="134"/>
      <point x="248" y="225"/>
      <point x="248" y="387" type="curve" smooth="yes"/>
      <point x="248" y="539"/>
      <point x="346" y="633"/>
      <point x="494" y="633" type="curve" smooth="yes"/>
      <point x="706" y="633"/>
      <point x="720" y="433"/>
      <point x="720" y="433" type="curve"/>
      <point x="865" y="521" type="line"/>
      <point x="865" y="521"/>
      <point x="825" y="788"/>
      <point x="497" y="788" type="curve" smooth="yes"/>
      <point x="241" y="788"/>
      <point x="65" y="621"/>
      <point x="65" y="387" type="curve" smooth="yes"/>
      <point x="65" y="119"/>
      <point x="251" y="-14"/>
      <point x="439" y="-14" type="curve" smooth="yes"/>
      <point x="667" y="-14"/>
      <point x="740" y="170"/>
      <point x="744" y="179" type="curve"/>
      <point x="744" y="0" type="line"/>
      <point x="897" y="0" type="line"/>
      <point x="897" y="379" type="line"/>
      <point x="453" y="379" type="line"/>
    </contour>
  </outline>
</glyph>
<glyph name="H" format="1">
  <advance width="1006"/>
  <unicode hex="0048"/>
  <outline>
    <contour>
      <point x="738" y="-1" type="line"/>
      <point x="916" y="-1" type="line"/>
      <point x="916" y="776" type="line"/>
      <point x="738" y="776" type="line"/>
      <point x="738" y="442" type="line"/>
      <point x="268" y="442" type="line"/>
      <point x="268" y="776" type="line"/>
      <point x="90" y="776" type="line"/>
      <point x="90" y="-1" type="line"/>
      <point x="268" y="-1" type="line"/>
      <point x="268" y="333" type="line"/>
      <point x="738" y="333" type="line"/>
    </contour>
  </outline>
</glyph>
<glyph name="I" format="1">
  <advance width="338"/>
  <unicode hex="0049"/>
  <outline>
    <contour>
      <point x="176" y="865" type="move" name="top"/>
    </contour>
    <contour>
      <point x="83" y="777" type="line"/>
      <point x="83" y="0" type="line"/>
      <point x="256" y="0" type="line"/>
      <point x="256" y="777" type="line"/>
    </contour>
  </outline>
</glyph>
<glyph name="J" format="1">
  <advance width="737"/>
  <unicode hex="004A"/>
  <outline>
    <contour>
      <point x="28" y="329" type="line"/>
      <point x="28" y="103"/>
      <point x="124" y="-14"/>
      <point x="341" y="-14" type="curve" smooth="yes"/>
      <point x="562" y="-14"/>
      <point x="661" y="103"/>
      <point x="661" y="329" type="curve"/>
      <point x="661" y="777" type="line"/>
      <point x="488" y="777" type="line"/>
      <point x="488" y="329" type="line"/>
      <point x="488" y="212"/>
      <point x="446" y="144"/>
      <point x="341" y="144" type="curve" smooth="yes"/>
      <point x="239" y="144"/>
      <point x="199" y="212"/>
      <point x="199" y="329" type="curve"/>
    </contour>
  </outline>
</glyph>
<glyph name="K" format="1">
  <advance width="923"/>
  <unicode hex="004B"/>
  <outline>
    <contour>
      <point x="614" y="777" type="line"/>
      <point x="259" y="426" type="line"/>
      <point x="259" y="777" type="line"/>
      <point x="83" y="777" type="line"/>
      <point x="83" y="0" type="line"/>
      <point x="257" y="0" type="line"/>
      <point x="257" y="240" type="line"/>
      <point x="347" y="325" type="line"/>
      <point x="648" y="0" type="line"/>
      <point x="861" y="0" type="line"/>
      <point x="465" y="428" type="line"/>
      <point x="820" y="777" type="line"/>
    </contour>
  </outline>
</glyph>
<glyph name="L" format="1">
  <advance width="740"/>
  <unicode hex="004C"/>
  <outline>
    <contour>
      <point x="83" y="0" type="line"/>
      <point x="711" y="0" type="line"/>
      <point x="711" y="144" type="line"/>
      <point x="256" y="144" type="line"/>
      <point x="256" y="777" type="line"/>
      <point x="83" y="777" type="line"/>
    </contour>
  </outline>
</glyph>
<glyph name="M" format="1">
  <advance width="1104"/>
  <unicode hex="004D"/>
  <outline>
    <contour>
      <point x="1021" y="0" type="line"/>
      <point x="1021" y="777" type="line"/>
      <point x="848" y="777" type="line"/>
      <point x="575" y="144" type="line"/>
      <point x="527" y="144" type="line"/>
      <point x="255" y="777" type="line"/>
      <point x="83" y="777" type="line"/>
      <point x="83" y="0" type="line"/>
      <point x="251" y="0" type="line"/>
      <point x="251" y="426" type="line"/>
      <point x="434" y="0" type="line"/>
      <point x="668" y="0" type="line"/>
      <point x="854" y="430" type="line"/>
      <point x="854" y="0" type="line"/>
    </contour>
  </outline>
</glyph>
<glyph name="N" format="1">
  <advance width="946"/>
  <unicode hex="004E"/>
  <outline>
    <contour>
      <point x="863" y="777" type="line"/>
      <point x="689" y="777" type="line"/>
      <point x="689" y="183" type="line"/>
      <point x="244" y="777" type="line"/>
      <point x="83" y="777" type="line"/>
      <point x="83" y="0" type="line"/>
      <point x="256" y="0" type="line"/>
      <point x="256" y="506" type="line"/>
      <point x="629" y="0" type="line"/>
      <point x="863" y="0" type="line"/>
    </contour>
  </outline>
</glyph>
<glyph name="O" format="1">
  <advance width="1006"/>
  <unicode hex="004F"/>
  <outline>
    <contour>
      <point x="504" y="865" type="move" name="top"/>
    </contour>
    <contour>
      <point x="64" y="387" type="curve"/>
      <point x="64" y="163"/>
      <point x="241" y="-14"/>
      <point x="504" y="-14" type="curve" smooth="yes"/>
      <point x="767" y="-14"/>
      <point x="942" y="163"/>
      <point x="942" y="387" type="curve" smooth="yes"/>
      <point x="942" y="611"/>
      <point x="767" y="788"/>
      <point x="504" y="788" type="curve" smooth="yes"/>
      <point x="241" y="788"/>
      <point x="64" y="611"/>
    </contour>
    <contour>
      <point x="247" y="387" type="curve"/>
      <point x="247" y="549"/>
      <point x="368" y="643"/>
      <point x="504" y="643" type="curve" smooth="yes"/>
      <point x="638" y="643"/>
      <point x="759" y="549"/>
      <point x="759" y="387" type="curve" smooth="yes"/>
      <point x="759" y="225"/>
      <point x="636" y="134"/>
      <point x="504" y="134" type="curve" smooth="yes"/>
      <point x="368" y="134"/>
      <point x="247" y="225"/>
    </contour>
  </outline>
</glyph>
<glyph name="P" format="1">
  <advance width="872"/>
  <unicode hex="0050"/>
  <outline>
    <contour>
      <point x="257" y="308" type="line"/>
      <point x="257" y="0" type="line"/>
      <point x="83" y="0" type="line"/>
      <point x="83" y="777" type="line"/>
      <point x="583" y="777" type="line"/>
      <point x="757" y="777"/>
      <point x="862" y="686"/>
      <point x="862" y="540" type="curve" smooth="yes"/>
      <point x="862" y="398"/>
      <point x="758" y="308"/>
      <point x="583" y="308" type="curve"/>
    </contour>
    <contour>
      <point x="258" y="451" type="line"/>
      <point x="560" y="451" type="line"/>
      <point x="639" y="451"/>
      <point x="689" y="481"/>
      <point x="689" y="542" type="curve" smooth="yes"/>
      <point x="689" y="603"/>
      <point x="639" y="633"/>
      <point x="561" y="633" type="curve"/>
      <point x="258" y="633" type="line"/>
    </contour>
  </outline>
</glyph>
<glyph name="Q" format="1">
  <advance width="1009"/>
  <unicode hex="0051"/>
  <outline>
    <contour>
      <point x="43" y="387" type="curve" smooth="yes"/>
      <point x="43" y="153"/>
      <point x="220" y="-14"/>
      <point x="493" y="-14" type="curve" smooth="yes"/>
      <point x="521" y="-14"/>
      <point x="548" y="-12"/>
      <point x="574" y="-8" type="curve"/>
      <point x="836" y="-224" type="line"/>
      <point x="908" y="-58" type="line"/>
      <point x="687" y="19" type="line"/>
      <point x="846" y="79"/>
      <point x="941" y="215"/>
      <point x="941" y="387" type="curve" smooth="yes"/>
      <point x="941" y="621"/>
      <point x="766" y="788"/>
      <point x="493" y="788" type="curve" smooth="yes"/>
      <point x="220" y="788"/>
      <point x="43" y="621"/>
    </contour>
    <contour>
      <point x="226" y="387" type="curve" smooth="yes"/>
      <point x="226" y="539"/>
      <point x="337" y="633"/>
      <point x="493" y="633" type="curve" smooth="yes"/>
      <point x="647" y="633"/>
      <point x="758" y="539"/>
      <point x="758" y="387" type="curve" smooth="yes"/>
      <point x="758" y="235"/>
      <point x="645" y="144"/>
      <point x="493" y="144" type="curve" smooth="yes"/>
      <point x="337" y="144"/>
      <point x="226" y="235"/>
    </contour>
  </outline>
</glyph>
<glyph name="R" format="1">
  <advance width="965"/>
  <unicode hex="0052"/>
  <outline>
    <contour>
      <point x="862" y="540" type="curve" smooth="yes"/>
      <point x="862" y="686"/>
      <point x="757" y="777"/>
      <point x="583" y="777" type="curve" smooth="yes"/>
      <point x="83" y="777" type="line"/>
      <point x="83" y="0" type="line"/>
      <point x="257" y="0" type="line"/>
      <point x="257" y="308" type="line"/>
      <point x="411" y="308" type="line"/>
      <point x="535" y="258"/>
      <point x="652" y="18"/>
      <point x="698" y="0" type="curve"/>
      <point x="900" y="0" type="line"/>
      <point x="842" y="27"/>
      <point x="734" y="258"/>
      <point x="597" y="308" type="curve"/>
      <point x="763" y="312"/>
      <point x="862" y="402"/>
    </contour>
    <contour>
      <point x="258" y="633" type="line"/>
      <point x="561" y="633" type="line" smooth="yes"/>
      <point x="639" y="633"/>
      <point x="689" y="603"/>
      <point x="689" y="542" type="curve" smooth="yes"/>
      <point x="689" y="481"/>
      <point x="639" y="451"/>
      <point x="560" y="451" type="curve" smooth="yes"/>
      <point x="258" y="451" type="line"/>
    </contour>
  </outline>
</glyph>
<glyph name="S" format="1">
  <advance width="879"/>
  <unicode hex="0053"/>
  <outline>
    <contour>
      <point x="293" y="560" type="curve"/>
      <point x="293" y="604"/>
      <point x="337" y="633"/>
      <point x="407" y="633" type="curve" smooth="yes"/>
      <point x="574" y="633"/>
      <point x="618" y="489"/>
      <point x="618" y="489" type="curve"/>
      <point x="763" y="574" type="line"/>
      <point x="763" y="574"/>
      <point x="679" y="788"/>
      <point x="409" y="788" type="curve" smooth="yes"/>
      <point x="260" y="788"/>
      <point x="116" y="698"/>
      <point x="116" y="559" type="curve" smooth="yes"/>
      <point x="116" y="273"/>
      <point x="641" y="395"/>
      <point x="641" y="225" type="curve" smooth="yes"/>
      <point x="641" y="171"/>
      <point x="567" y="144"/>
      <point x="477" y="144" type="curve" smooth="yes"/>
      <point x="267" y="144"/>
      <point x="208" y="313"/>
      <point x="208" y="313" type="curve"/>
      <point x="56" y="242" type="line"/>
      <point x="56" y="242"/>
      <point x="137" y="-13"/>
      <point x="482" y="-13" type="curve" smooth="yes"/>
      <point x="652" y="-13"/>
      <point x="820" y="69"/>
      <point x="820" y="223" type="curve" smooth="yes"/>
      <point x="820" y="523"/>
      <point x="293" y="402"/>
    </contour>
  </outline>
</glyph>
<glyph name="T" format="1">
  <advance width="934"/>
  <unicode hex="0054"/>
  <outline>
    <contour>
      <point x="888" y="777" type="line"/>
      <point x="46" y="777" type="line"/>
      <point x="46" y="633" type="line"/>
      <point x="380" y="633" type="line"/>
      <point x="380" y="0" type="line"/>
      <point x="554" y="0" type="line"/>
      <point x="554" y="633" type="line"/>
      <point x="888" y="633" type="line"/>
    </contour>
  </outline>
</glyph>
<glyph name="U" format="1">
  <advance width="921"/>
  <unicode hex="0055"/>
  <outline>
    <contour>
      <point x="483" y="865" type="move" name="top"/>
    </contour>
    <contour>
      <point x="78" y="777" type="line"/>
      <point x="78" y="326" type="line"/>
      <point x="78" y="89"/>
      <point x="166" y="-14"/>
      <point x="461" y="-14" type="curve" smooth="yes"/>
      <point x="756" y="-14"/>
      <point x="844" y="89"/>
      <point x="844" y="326" type="curve"/>
      <point x="844" y="777" type="line"/>
      <point x="670" y="777" type="line"/>
      <point x="670" y="326" type="line"/>
      <point x="670" y="198"/>
      <point x="622" y="144"/>
      <point x="461" y="144" type="curve" smooth="yes"/>
      <point x="300" y="144"/>
      <point x="252" y="198"/>
      <point x="252" y="326" type="curve"/>
      <point x="252" y="777" type="line"/>
    </contour>
  </outline>
</glyph>
<glyph name="V" format="1">
  <advance width="1050"/>
  <unicode hex="0056"/>
  <outline>
    <contour>
      <point x="549" y="144" type="line"/>
      <point x="501" y="144" type="line"/>
      <point x="228" y="777" type="line"/>
      <point x="48" y="777" type="line"/>
      <point x="408" y="0" type="line"/>
      <point x="642" y="0" type="line"/>
      <point x="1002" y="777" type="line"/>
      <point x="822" y="777" type="line"/>
    </contour>
  </outline>
</glyph>
<glyph name="W" format="1">
  <advance width="1408"/>
  <unicode hex="0057"/>
  <outline>
    <contour>
      <point x="704" y="533" type="line"/>
      <point x="862" y="0" type="line"/>
      <point x="1060" y="0" type="line"/>
      <point x="1347" y="777" type="line"/>
      <point x="1171" y="777" type="line"/>
      <point x="1103" y="590"/>
      <point x="1031" y="395"/>
      <point x="963" y="205" type="curve"/>
      <point x="795" y="767" type="line"/>
      <point x="614" y="767" type="line"/>
      <point x="446" y="205" type="line"/>
      <point x="238" y="777" type="line"/>
      <point x="61" y="777" type="line"/>
      <point x="349" y="0" type="line"/>
      <point x="548" y="0" type="line"/>
    </contour>
  </outline>
</glyph>
<glyph name="X" format="1">
  <advance width="952"/>
  <unicode hex="0058"/>
  <outline>
    <contour>
      <point x="713" y="0" type="line"/>
      <point x="932" y="0" type="line"/>
      <point x="585" y="394" type="line"/>
      <point x="917" y="777" type="line"/>
      <point x="686" y="777" type="line"/>
      <point x="478" y="508" type="line"/>
      <point x="265" y="777" type="line"/>
      <point x="34" y="777" type="line"/>
      <point x="373" y="399" type="line"/>
      <point x="20" y="0" type="line"/>
      <point x="239" y="0" type="line"/>
      <point x="479" y="285" type="line"/>
    </contour>
  </outline>
</glyph>
<glyph name="Y" format="1">
  <advance width="883"/>
  <unicode hex="0059"/>
  <outline>
    <contour>
      <point x="458" y="865" type="move" name="top"/>
    </contour>
    <contour>
      <point x="853" y="777" type="line"/>
      <point x="627" y="777" type="line"/>
      <point x="442" y="470" type="line"/>
      <point x="255" y="777" type="line"/>
      <point x="30" y="777" type="line"/>
      <point x="355" y="329" type="line"/>
      <point x="355" y="0" type="line"/>
      <point x="529" y="0" type="line"/>
      <point x="529" y="329" type="line"/>
    </contour>
  </outline>
</glyph>
<glyph name="Z" format="1">
  <advance width="868"/>
  <unicode hex="005A"/>
  <outline>
    <contour>
      <point x="786" y="144" type="line"/>
      <point x="303" y="144" type="line"/>
      <point x="786" y="665" type="line"/>
      <point x="786" y="777" type="line"/>
      <point x="118" y="777" type="line"/>
      <point x="118" y="633" type="line"/>
      <point x="568" y="633" type="line"/>
      <point x="77" y="126" type="line"/>
      <point x="77" y="0" type="line"/>
      <point x="786" y="0" type="line"/>
    </contour>
  </outline>
</glyph>
<glyph name="bracketleft" format="1">
  <advance width="326"/>
  <unicode hex="005B"/>
  <outline>
    <contour>
      <point x="306" y="-143" type="line"/>
      <point x="109" y="-143" type="line"/>
      <point x="109" y="895" type="line"/>
      <point x="306" y="895" type="line"/>
      <point x="306" y="938" type="line"/>
      <point x="66" y="938" type="line"/>
      <point x="66" y="-186" type="line"/>
      <point x="306" y="-186" type="line"/>
    </contour>
  </outline>
</glyph>
<glyph name="backslash" format="1">
  <advance width="406"/>
  <unicode hex="005C"/>
  <outline>
    <contour>
      <point x="383" y="-197" type="line"/>
      <point x="64" y="996" type="line"/>
      <point x="22" y="986" type="line"/>
      <point x="341" y="-207" type="line"/>
    </contour>
  </outline>
</glyph>
<glyph name="bracketright" format="1">
  <advance width="325"/>
  <unicode hex="005D"/>
  <outline>
    <contour>
      <point x="20" y="-186" type="line"/>
      <point x="260" y="-186" type="line"/>
      <point x="260" y="938" type="line"/>
      <point x="20" y="938" type="line"/>
      <point x="20" y="895" type="line"/>
      <point x="216" y="895" type="line"/>
      <point x="216" y="-143" type="line"/>
      <point x="20" y="-143" type="line"/>
    </contour>
  </outline>
</glyph>
<glyph name="underscore" format="1">
  <advance width="1148"/>
  <unicode hex="005F"/>
  <outline>
    <contour>
      <point x="66" y="-136" type="line"/>
      <point x="1082" y="-136" type="line"/>
      <point x="1082" y="-92" type="line"/>
      <point x="66" y="-92" type="line"/>
    </contour>
  </outline>
</glyph>
<glyph name="grave" format="1">
  <advance width="361"/>
  <unicode hex="0060"/>
  <outline>
    <contour>
      <point x="179" y="613" type="move" name="_top"/>
    </contour>
    <contour>
      <point x="28" y="779" type="line"/>
      <point x="299" y="603" type="line"/>
      <point x="330" y="635" type="line"/>
      <point x="116" y="874" type="line"/>
    </contour>
  </outline>
</glyph>
<glyph name="a" format="1">
  <advance width="738"/>
  <unicode hex="0061"/>
  <outline>
    <contour>
      <point x="370" y="643" type="move" name="top"/>
    </contour>
    <contour>
      <point x="584" y="165" type="line" smooth="yes"/>
      <point x="584" y="141"/>
      <point x="589" y="117"/>
      <point x="616" y="117" type="curve" smooth="yes"/>
      <point x="653" y="117"/>
      <point x="680" y="177"/>
      <point x="680" y="177" type="curve"/>
      <point x="717" y="68" type="line"/>
      <point x="717" y="68"/>
      <point x="674" y="-14"/>
      <point x="573" y="-14" type="curve" smooth="yes"/>
      <point x="503" y="-14"/>
      <point x="445" y="23"/>
      <point x="447" y="111" type="curve" smooth="yes"/>
      <point x="449" y="198" type="line"/>
      <point x="445" y="188"/>
      <point x="371" y="-14"/>
      <point x="210" y="-14" type="curve" smooth="yes"/>
      <point x="129" y="-14"/>
      <point x="80" y="37"/>
      <point x="80" y="115" type="curve" smooth="yes"/>
      <point x="80" y="205"/>
      <point x="163" y="337"/>
      <point x="432" y="345" type="curve"/>
      <point x="430" y="370" type="line" smooth="yes"/>
      <point x="428" y="399"/>
      <point x="414" y="444"/>
      <point x="344" y="444" type="curve" smooth="yes"/>
      <point x="244" y="444"/>
      <point x="211" y="342"/>
      <point x="211" y="342" type="curve"/>
      <point x="96" y="421" type="line"/>
      <point x="96" y="421"/>
      <point x="168" y="578"/>
      <point x="359" y="578" type="curve" smooth="yes"/>
      <point x="519" y="578"/>
      <point x="584" y="464"/>
      <point x="584" y="355" type="curve" smooth="yes"/>
    </contour>
    <contour>
      <point x="239" y="163" type="curve" smooth="yes"/>
      <point x="239" y="138"/>
      <point x="252" y="117"/>
      <point x="287" y="117" type="curve" smooth="yes"/>
      <point x="381" y="117"/>
      <point x="437" y="277"/>
      <point x="437" y="277" type="curve"/>
      <point x="437" y="282" type="line"/>
      <point x="259" y="252"/>
      <point x="239" y="198"/>
    </contour>
  </outline>
</glyph>
<glyph name="b" format="1">
  <advance width="720"/>
  <unicode hex="0062"/>
  <outline>
    <contour>
      <point x="83" y="0" type="line"/>
      <point x="155" y="0" type="line"/>
      <point x="234" y="148" type="line"/>
      <point x="234" y="148"/>
      <point x="278" y="-14"/>
      <point x="440" y="-14" type="curve" smooth="yes"/>
      <point x="587" y="-14"/>
      <point x="676" y="107"/>
      <point x="676" y="282" type="curve" smooth="yes"/>
      <point x="676" y="456"/>
      <point x="580" y="578"/>
      <point x="438" y="578" type="curve" smooth="yes"/>
      <point x="290" y="578"/>
      <point x="246" y="444"/>
      <point x="246" y="444" type="curve"/>
      <point x="246" y="761" type="line"/>
      <point x="246" y="761"/>
      <point x="166" y="745"/>
      <point x="83" y="745" type="curve"/>
    </contour>
    <contour>
      <point x="246" y="331" type="line"/>
      <point x="246" y="331"/>
      <point x="267" y="444"/>
      <point x="368" y="444" type="curve" smooth="yes"/>
      <point x="459" y="444"/>
      <point x="506" y="381"/>
      <point x="506" y="282" type="curve" smooth="yes"/>
      <point x="506" y="167"/>
      <point x="448" y="117"/>
      <point x="371" y="117" type="curve" smooth="yes"/>
      <point x="272" y="117"/>
      <point x="246" y="221"/>
      <point x="246" y="221" type="curve"/>
    </contour>
  </outline>
</glyph>
<glyph name="c" format="1">
  <advance width="701"/>
  <unicode hex="0063"/>
  <outline>
    <contour>
      <point x="501" y="218" type="line"/>
      <point x="501" y="218"/>
      <point x="483" y="117"/>
      <point x="366" y="117" type="curve" smooth="yes"/>
      <point x="282" y="117"/>
      <point x="227" y="182"/>
      <point x="227" y="282" type="curve" smooth="yes"/>
      <point x="227" y="375"/>
      <point x="280" y="444"/>
      <point x="366" y="444" type="curve" smooth="yes"/>
      <point x="466" y="444"/>
      <point x="475" y="341"/>
      <point x="475" y="341" type="curve"/>
      <point x="607" y="421" type="line"/>
      <point x="607" y="421"/>
      <point x="568" y="578"/>
      <point x="369" y="578" type="curve" smooth="yes"/>
      <point x="162" y="578"/>
      <point x="64" y="417"/>
      <point x="64" y="280" type="curve" smooth="yes"/>
      <point x="64" y="103"/>
      <point x="189" y="-14"/>
      <point x="363" y="-14" type="curve" smooth="yes"/>
      <point x="582" y="-14"/>
      <point x="645" y="147"/>
      <point x="645" y="218" type="curve"/>
    </contour>
  </outline>
</glyph>
<glyph name="d" format="1">
  <advance width="719"/>
  <unicode hex="0064"/>
  <outline>
    <contour>
      <point x="637" y="761" type="line"/>
      <point x="558" y="745"/>
      <point x="474" y="745"/>
      <point x="474" y="745" type="curve"/>
      <point x="474" y="444" type="line"/>
      <point x="474" y="444"/>
      <point x="430" y="578"/>
      <point x="282" y="578" type="curve"/>
      <point x="140" y="578"/>
      <point x="44" y="456"/>
      <point x="44" y="282" type="curve" smooth="yes"/>
      <point x="44" y="107"/>
      <point x="133" y="-14"/>
      <point x="280" y="-14" type="curve"/>
      <point x="442" y="-14"/>
      <point x="486" y="148"/>
      <point x="486" y="148" type="curve"/>
      <point x="565" y="0" type="line"/>
      <point x="637" y="0" type="line"/>
    </contour>
    <contour>
      <point x="474" y="221" type="line"/>
      <point x="474" y="221"/>
      <point x="448" y="117"/>
      <point x="349" y="117" type="curve" smooth="yes"/>
      <point x="272" y="117"/>
      <point x="214" y="167"/>
      <point x="214" y="282" type="curve" smooth="yes"/>
      <point x="214" y="381"/>
      <point x="261" y="444"/>
      <point x="352" y="444" type="curve"/>
      <point x="453" y="444"/>
      <point x="474" y="331"/>
      <point x="474" y="331" type="curve"/>
    </contour>
  </outline>
</glyph>
<glyph name="e" format="1">
  <advance width="787"/>
  <unicode hex="0065"/>
  <outline>
    <contour>
      <point x="413" y="633" type="move" name="top"/>
    </contour>
    <contour>
      <point x="541" y="356" type="line"/>
      <point x="541" y="356"/>
      <point x="527" y="463"/>
      <point x="394" y="463" type="curve"/>
      <point x="256" y="463"/>
      <point x="236" y="346"/>
      <point x="236" y="346" type="curve"/>
    </contour>
    <contour>
      <point x="226" y="268" type="line"/>
      <point x="227" y="182"/>
      <point x="279" y="97"/>
      <point x="414" y="97" type="curve" smooth="yes"/>
      <point x="566" y="97"/>
      <point x="567" y="225"/>
      <point x="567" y="225" type="curve"/>
      <point x="727" y="184" type="line"/>
      <point x="727" y="184"/>
      <point x="685" y="-13"/>
      <point x="397" y="-13" type="curve" smooth="yes"/>
      <point x="218" y="-13"/>
      <point x="60" y="90"/>
      <point x="60" y="278" type="curve" smooth="yes"/>
      <point x="60" y="443"/>
      <point x="190" y="568"/>
      <point x="397" y="568" type="curve"/>
      <point x="710" y="568"/>
      <point x="727" y="337"/>
      <point x="712" y="258" type="curve"/>
    </contour>
  </outline>
</glyph>
<glyph name="f" format="1">
  <advance width="568"/>
  <unicode hex="0066"/>
  <outline>
    <contour>
      <point x="464" y="555" type="line"/>
      <point x="258" y="555" type="line"/>
      <point x="258" y="555"/>
      <point x="242" y="564"/>
      <point x="242" y="588" type="curve" smooth="yes"/>
      <point x="242" y="615"/>
      <point x="267" y="631"/>
      <point x="304" y="631" type="curve" smooth="yes"/>
      <point x="377" y="631"/>
      <point x="426" y="570"/>
      <point x="426" y="570" type="curve"/>
      <point x="558" y="649" type="line"/>
      <point x="558" y="649"/>
      <point x="476" y="765"/>
      <point x="310" y="765" type="curve" smooth="yes"/>
      <point x="208" y="765"/>
      <point x="117" y="717"/>
      <point x="117" y="637" type="curve" smooth="yes"/>
      <point x="117" y="582"/>
      <point x="165" y="556"/>
      <point x="167" y="555" type="curve"/>
      <point x="53" y="555" type="line"/>
      <point x="53" y="444" type="line"/>
      <point x="145" y="444" type="line"/>
      <point x="145" y="0" type="line"/>
      <point x="308" y="0" type="line"/>
      <point x="308" y="444" type="line"/>
      <point x="464" y="444" type="line"/>
    </contour>
  </outline>
</glyph>
<glyph name="g" format="1">
  <advance width="735"/>
  <unicode hex="0067"/>
  <outline>
    <contour>
      <point x="496" y="555" type="curve"/>
      <point x="496" y="555"/>
      <point x="435" y="578"/>
      <point x="361" y="578" type="curve" smooth="yes"/>
      <point x="156" y="578"/>
      <point x="76" y="469"/>
      <point x="76" y="367" type="curve" smooth="yes"/>
      <point x="76" y="295"/>
      <point x="109" y="251"/>
      <point x="144" y="225" type="curve"/>
      <point x="103" y="208"/>
      <point x="64" y="178"/>
      <point x="64" y="128" type="curve" smooth="yes"/>
      <point x="64" y="37"/>
      <point x="163" y="23"/>
      <point x="174" y="23" type="curve"/>
      <point x="157" y="20"/>
      <point x="50" y="-2"/>
      <point x="50" y="-83" type="curve" smooth="yes"/>
      <point x="50" y="-134"/>
      <point x="89" y="-210"/>
      <point x="279" y="-210" type="curve" smooth="yes"/>
      <point x="396" y="-210" type="line" smooth="yes"/>
      <point x="604" y="-210"/>
      <point x="678" y="-125"/>
      <point x="678" y="-40" type="curve" smooth="yes"/>
      <point x="678" y="39"/>
      <point x="617" y="117"/>
      <point x="469" y="117" type="curve" smooth="yes"/>
      <point x="289" y="117" type="line" smooth="yes"/>
      <point x="226" y="117"/>
      <point x="178" y="122"/>
      <point x="178" y="163" type="curve" smooth="yes"/>
      <point x="178" y="188"/>
      <point x="204" y="199"/>
      <point x="204" y="199" type="curve"/>
      <point x="214" y="188"/>
      <point x="261" y="164"/>
      <point x="364" y="164" type="curve" smooth="yes"/>
      <point x="536" y="164"/>
      <point x="646" y="238"/>
      <point x="646" y="366" type="curve" smooth="yes"/>
      <point x="646" y="421"/>
      <point x="603" y="496"/>
      <point x="547" y="530" type="curve"/>
      <point x="547" y="530"/>
      <point x="570" y="545"/>
      <point x="608" y="545" type="curve" smooth="yes"/>
      <point x="652" y="545"/>
      <point x="685" y="524"/>
      <point x="685" y="524" type="curve"/>
      <point x="685" y="645" type="line"/>
      <point x="685" y="645"/>
      <point x="660" y="660"/>
      <point x="620" y="660" type="curve" smooth="yes"/>
      <point x="518" y="660"/>
      <point x="496" y="555"/>
    </contour>
    <contour>
      <point x="245" y="369" type="curve" smooth="yes"/>
      <point x="245" y="422"/>
      <point x="276" y="479"/>
      <point x="361" y="479" type="curve" smooth="yes"/>
      <point x="446" y="479"/>
      <point x="476" y="422"/>
      <point x="476" y="369" type="curve" smooth="yes"/>
      <point x="476" y="318"/>
      <point x="446" y="261"/>
      <point x="361" y="261" type="curve" smooth="yes"/>
      <point x="276" y="261"/>
      <point x="245" y="318"/>
    </contour>
    <contour>
      <point x="428" y="-7" type="curve" smooth="yes"/>
      <point x="482" y="-7"/>
      <point x="509" y="-28"/>
      <point x="509" y="-63" type="curve" smooth="yes"/>
      <point x="509" y="-103"/>
      <point x="472" y="-131"/>
      <point x="358" y="-131" type="curve" smooth="yes"/>
      <point x="248" y="-131"/>
      <point x="211" y="-99"/>
      <point x="211" y="-49" type="curve" smooth="yes"/>
      <point x="211" y="0"/>
      <point x="259" y="7"/>
      <point x="259" y="7" type="curve"/>
      <point x="274" y="-3"/>
      <point x="333" y="-7"/>
    </contour>
  </outline>
</glyph>
<glyph name="h" format="1">
  <advance width="728"/>
  <unicode hex="0068"/>
  <outline>
    <contour>
      <point x="248" y="762" type="line"/>
      <point x="248" y="762"/>
      <point x="173" y="745"/>
      <point x="83" y="745" type="curve"/>
      <point x="83" y="0" type="line"/>
      <point x="247" y="0" type="line"/>
      <point x="247" y="339" type="line"/>
      <point x="255" y="368"/>
      <point x="297" y="444"/>
      <point x="386" y="444" type="curve" smooth="yes"/>
      <point x="449" y="444"/>
      <point x="488" y="402"/>
      <point x="488" y="336" type="curve" smooth="yes"/>
      <point x="488" y="0" type="line"/>
      <point x="650" y="0" type="line"/>
      <point x="650" y="338" type="line" smooth="yes"/>
      <point x="650" y="480"/>
      <point x="581" y="578"/>
      <point x="451" y="578" type="curve" smooth="yes"/>
      <point x="332" y="578"/>
      <point x="272" y="484"/>
      <point x="247" y="432" type="curve"/>
    </contour>
  </outline>
</glyph>
<glyph name="i" format="1">
  <advance width="323"/>
  <unicode hex="0069"/>
  <outline>
    <contour>
      <point x="81" y="0" type="line"/>
      <point x="243" y="0" type="line"/>
      <point x="243" y="555" type="line"/>
      <point x="81" y="555" type="line"/>
    </contour>
    <contour>
      <point x="81" y="630" type="line"/>
      <point x="243" y="630" type="line"/>
      <point x="243" y="745" type="line"/>
      <point x="81" y="745" type="line"/>
    </contour>
  </outline>
</glyph>
<glyph name="j" format="1">
  <advance width="387"/>
  <unicode hex="006A"/>
  <outline>
    <contour>
      <point x="157" y="33" type="line" smooth="yes"/>
      <point x="157" y="-40"/>
      <point x="157" y="-79"/>
      <point x="102" y="-79" type="curve"/>
      <point x="62" y="-79"/>
      <point x="32" y="-55"/>
      <point x="32" y="-55" type="curve"/>
      <point x="32" y="-181" type="line"/>
      <point x="32" y="-181"/>
      <point x="70" y="-209"/>
      <point x="145" y="-209" type="curve"/>
      <point x="229" y="-209"/>
      <point x="319" y="-164"/>
      <point x="319" y="27" type="curve"/>
      <point x="319" y="555" type="line"/>
      <point x="157" y="555" type="line"/>
    </contour>
    <contour>
      <point x="157" y="630" type="line"/>
      <point x="319" y="630" type="line"/>
      <point x="319" y="745" type="line"/>
      <point x="157" y="745" type="line"/>
    </contour>
  </outline>
</glyph>
<glyph name="k" format="1">
  <advance width="702"/>
  <unicode hex="006B"/>
  <outline>
    <contour>
      <point x="83" y="0" type="line"/>
      <point x="246" y="0" type="line"/>
      <point x="246" y="192" type="line"/>
      <point x="288" y="233" type="line"/>
      <point x="496" y="0" type="line"/>
      <point x="702" y="0" type="line"/>
      <point x="386" y="316" type="line"/>
      <point x="638" y="555" type="line"/>
      <point x="433" y="555" type="line"/>
      <point x="246" y="355" type="line"/>
      <point x="246" y="762" type="line"/>
      <point x="246" y="762"/>
      <point x="174" y="745"/>
      <point x="83" y="745" type="curve"/>
    </contour>
  </outline>
</glyph>
<glyph name="l" format="1">
  <advance width="327"/>
  <unicode hex="006C"/>
  <outline>
    <contour>
      <point x="83" y="0" type="line"/>
      <point x="245" y="0" type="line"/>
      <point x="245" y="762" type="line"/>
      <point x="245" y="762"/>
      <point x="173" y="745"/>
      <point x="83" y="745" type="curve"/>
    </contour>
  </outline>
</glyph>
<glyph name="m" format="1">
  <advance width="1083"/>
  <unicode hex="006D"/>
  <outline>
    <contour>
      <point x="839" y="0" type="line"/>
      <point x="1001" y="0" type="line"/>
      <point x="1001" y="337" type="line"/>
      <point x="1004" y="499"/>
      <point x="914" y="577"/>
      <point x="806" y="577" type="curve" smooth="yes"/>
      <point x="650" y="577"/>
      <point x="614" y="428"/>
      <point x="613" y="420" type="curve"/>
      <point x="611" y="428"/>
      <point x="584" y="578"/>
      <point x="432" y="578" type="curve" smooth="yes"/>
      <point x="263" y="578"/>
      <point x="233" y="406"/>
      <point x="233" y="406" type="curve"/>
      <point x="153" y="555" type="line"/>
      <point x="82" y="555" type="line"/>
      <point x="82" y="0" type="line"/>
      <point x="245" y="0" type="line"/>
      <point x="245" y="327" type="line"/>
      <point x="252" y="365"/>
      <point x="290" y="444"/>
      <point x="372" y="444" type="curve" smooth="yes"/>
      <point x="428" y="444"/>
      <point x="460" y="400"/>
      <point x="460" y="336" type="curve" smooth="yes"/>
      <point x="460" y="0" type="line"/>
      <point x="623" y="0" type="line"/>
      <point x="623" y="332" type="line" smooth="yes"/>
      <point x="623" y="341"/>
      <point x="649" y="444"/>
      <point x="748" y="444" type="curve" smooth="yes"/>
      <point x="803" y="444"/>
      <point x="839" y="407"/>
      <point x="839" y="347" type="curve" smooth="yes"/>
    </contour>
  </outline>
</glyph>
<glyph name="n" format="1">
  <advance width="726"/>
  <unicode hex="006E"/>
  <outline>
    <contour>
      <point x="383" y="643" type="move" name="top"/>
    </contour>
    <contour>
      <point x="486" y="0" type="line"/>
      <point x="648" y="0" type="line"/>
      <point x="648" y="338" type="line"/>
      <point x="648" y="480"/>
      <point x="579" y="578"/>
      <point x="439" y="578" type="curve"/>
      <point x="263" y="578"/>
      <point x="232" y="407"/>
      <point x="232" y="407" type="curve"/>
      <point x="153" y="555" type="line"/>
      <point x="82" y="555" type="line"/>
      <point x="82" y="0" type="line"/>
      <point x="244" y="0" type="line"/>
      <point x="244" y="331" type="line"/>
      <point x="244" y="348"/>
      <point x="282" y="444"/>
      <point x="382" y="444" type="curve" smooth="yes"/>
      <point x="445" y="444"/>
      <point x="486" y="402"/>
      <point x="486" y="336" type="curve"/>
    </contour>
  </outline>
</glyph>
<glyph name="o" format="1">
  <advance width="747"/>
  <unicode hex="006F"/>
  <outline>
    <contour>
      <point x="393" y="643" type="move" name="top"/>
    </contour>
    <contour>
      <point x="64" y="282" type="curve" smooth="yes"/>
      <point x="64" y="128"/>
      <point x="179" y="-14"/>
      <point x="374" y="-14" type="curve" smooth="yes"/>
      <point x="569" y="-14"/>
      <point x="683" y="128"/>
      <point x="683" y="282" type="curve" smooth="yes"/>
      <point x="683" y="434"/>
      <point x="569" y="578"/>
      <point x="374" y="578" type="curve" smooth="yes"/>
      <point x="169" y="578"/>
      <point x="64" y="434"/>
    </contour>
    <contour>
      <point x="234" y="282" type="curve" smooth="yes"/>
      <point x="234" y="374"/>
      <point x="279" y="444"/>
      <point x="374" y="444" type="curve" smooth="yes"/>
      <point x="468" y="444"/>
      <point x="514" y="374"/>
      <point x="514" y="282" type="curve" smooth="yes"/>
      <point x="514" y="190"/>
      <point x="468" y="117"/>
      <point x="374" y="117" type="curve" smooth="yes"/>
      <point x="279" y="117"/>
      <point x="234" y="190"/>
    </contour>
  </outline>
</glyph>
<glyph name="p" format="1">
  <advance width="719"/>
  <unicode hex="0070"/>
  <outline>
    <contour>
      <point x="82" y="-190" type="line"/>
      <point x="245" y="-190" type="line"/>
      <point x="245" y="111" type="line"/>
      <point x="245" y="111"/>
      <point x="289" y="-14"/>
      <point x="437" y="-14" type="curve" smooth="yes"/>
      <point x="579" y="-14"/>
      <point x="675" y="108"/>
      <point x="675" y="282" type="curve" smooth="yes"/>
      <point x="675" y="457"/>
      <point x="586" y="578"/>
      <point x="439" y="578" type="curve" smooth="yes"/>
      <point x="277" y="578"/>
      <point x="233" y="407"/>
      <point x="233" y="407" type="curve"/>
      <point x="154" y="555" type="line"/>
      <point x="82" y="555" type="line"/>
    </contour>
    <contour>
      <point x="245" y="334" type="line"/>
      <point x="245" y="334"/>
      <point x="271" y="444"/>
      <point x="370" y="444" type="curve" smooth="yes"/>
      <point x="447" y="444"/>
      <point x="505" y="397"/>
      <point x="505" y="282" type="curve" smooth="yes"/>
      <point x="505" y="183"/>
      <point x="458" y="117"/>
      <point x="367" y="117" type="curve" smooth="yes"/>
      <point x="266" y="117"/>
      <point x="245" y="224"/>
      <point x="245" y="224" type="curve"/>
    </contour>
  </outline>
</glyph>
<glyph name="q" format="1">
  <advance width="719"/>
  <unicode hex="0071"/>
  <outline>
    <contour>
      <point x="637" y="555" type="line"/>
      <point x="565" y="555" type="line"/>
      <point x="486" y="407" type="line"/>
      <point x="486" y="407"/>
      <point x="442" y="578"/>
      <point x="280" y="578" type="curve" smooth="yes"/>
      <point x="133" y="578"/>
      <point x="44" y="457"/>
      <point x="44" y="282" type="curve" smooth="yes"/>
      <point x="44" y="108"/>
      <point x="140" y="-14"/>
      <point x="282" y="-14" type="curve" smooth="yes"/>
      <point x="430" y="-14"/>
      <point x="474" y="111"/>
      <point x="474" y="111" type="curve"/>
      <point x="474" y="-190" type="line"/>
      <point x="637" y="-190" type="line"/>
    </contour>
    <contour>
      <point x="474" y="224" type="line"/>
      <point x="474" y="224"/>
      <point x="453" y="117"/>
      <point x="352" y="117" type="curve" smooth="yes"/>
      <point x="261" y="117"/>
      <point x="214" y="183"/>
      <point x="214" y="282" type="curve" smooth="yes"/>
      <point x="214" y="397"/>
      <point x="272" y="444"/>
      <point x="349" y="444" type="curve" smooth="yes"/>
      <point x="448" y="444"/>
      <point x="474" y="334"/>
      <point x="474" y="334" type="curve"/>
    </contour>
  </outline>
</glyph>
<glyph name="r" format="1">
  <advance width="512"/>
  <unicode hex="0072"/>
  <outline>
    <contour>
      <point x="244" y="324" type="line"/>
      <point x="244" y="347"/>
      <point x="267" y="444"/>
      <point x="326" y="444" type="curve" smooth="yes"/>
      <point x="352" y="444"/>
      <point x="359" y="410"/>
      <point x="359" y="383" type="curve" smooth="yes"/>
      <point x="359" y="333"/>
      <point x="337" y="292"/>
      <point x="337" y="292" type="curve"/>
      <point x="475" y="315" type="line"/>
      <point x="475" y="315"/>
      <point x="502" y="366"/>
      <point x="502" y="425" type="curve" smooth="yes"/>
      <point x="502" y="495"/>
      <point x="478" y="576"/>
      <point x="381" y="576" type="curve"/>
      <point x="248" y="576"/>
      <point x="232" y="407"/>
      <point x="232" y="407" type="curve"/>
      <point x="152" y="555" type="line"/>
      <point x="82" y="555" type="line"/>
      <point x="82" y="0" type="line"/>
      <point x="244" y="0" type="line"/>
    </contour>
  </outline>
</glyph>
<glyph name="s" format="1">
  <advance width="696"/>
  <unicode hex="0073"/>
  <outline>
    <contour>
      <point x="478" y="341" type="line"/>
      <point x="478" y="341"/>
      <point x="427" y="444"/>
      <point x="322" y="444" type="curve"/>
      <point x="275" y="444"/>
      <point x="258" y="415"/>
      <point x="258" y="393" type="curve"/>
      <point x="258" y="300"/>
      <point x="635" y="360"/>
      <point x="635" y="159" type="curve" smooth="yes"/>
      <point x="635" y="43"/>
      <point x="510" y="-14"/>
      <point x="377" y="-14" type="curve"/>
      <point x="123" y="-14"/>
      <point x="55" y="170"/>
      <point x="55" y="170" type="curve"/>
      <point x="186" y="231" type="line"/>
      <point x="186" y="231"/>
      <point x="228" y="117"/>
      <point x="381" y="117" type="curve"/>
      <point x="440" y="117"/>
      <point x="476" y="138"/>
      <point x="476" y="164" type="curve" smooth="yes"/>
      <point x="476" y="270"/>
      <point x="103" y="210"/>
      <point x="103" y="414" type="curve" smooth="yes"/>
      <point x="103" y="500"/>
      <point x="185" y="578"/>
      <point x="334" y="578" type="curve" smooth="yes"/>
      <point x="529" y="578"/>
      <point x="610" y="421"/>
      <point x="610" y="421" type="curve"/>
    </contour>
  </outline>
</glyph>
<glyph name="t" format="1">
  <advance width="567"/>
  <unicode hex="0074"/>
  <outline>
    <contour>
      <point x="25" y="444" type="line"/>
      <point x="155" y="444" type="line"/>
      <point x="155" y="197" type="line" smooth="yes"/>
      <point x="155" y="32"/>
      <point x="230" y="-14"/>
      <point x="339" y="-14" type="curve" smooth="yes"/>
      <point x="456" y="-14"/>
      <point x="519" y="66"/>
      <point x="519" y="66" type="curve"/>
      <point x="484" y="178" type="line"/>
      <point x="484" y="178"/>
      <point x="445" y="117"/>
      <point x="385" y="117" type="curve" smooth="yes"/>
      <point x="338" y="117"/>
      <point x="316" y="150"/>
      <point x="316" y="208" type="curve"/>
      <point x="316" y="444" type="line"/>
      <point x="486" y="444" type="line"/>
      <point x="486" y="555" type="line"/>
      <point x="315" y="555" type="line"/>
      <point x="315" y="679" type="line"/>
      <point x="244" y="679" type="line"/>
      <point x="167" y="555" type="line"/>
      <point x="25" y="555" type="line"/>
    </contour>
  </outline>
</glyph>
<glyph name="u" format="1">
  <advance width="726"/>
  <unicode hex="0075"/>
  <outline>
    <contour>
      <point x="380" y="643" type="move" name="top"/>
    </contour>
    <contour>
      <point x="242" y="555" type="line"/>
      <point x="80" y="555" type="line"/>
      <point x="80" y="217" type="line" smooth="yes"/>
      <point x="80" y="75"/>
      <point x="149" y="-14"/>
      <point x="289" y="-14" type="curve" smooth="yes"/>
      <point x="465" y="-14"/>
      <point x="496" y="148"/>
      <point x="496" y="148" type="curve"/>
      <point x="575" y="0" type="line"/>
      <point x="646" y="0" type="line"/>
      <point x="646" y="555" type="line"/>
      <point x="484" y="555" type="line"/>
      <point x="484" y="224" type="line" smooth="yes"/>
      <point x="484" y="207"/>
      <point x="446" y="117"/>
      <point x="346" y="117" type="curve" smooth="yes"/>
      <point x="283" y="117"/>
      <point x="242" y="153"/>
      <point x="242" y="219" type="curve" smooth="yes"/>
    </contour>
  </outline>
</glyph>
<glyph name="v" format="1">
  <advance width="765"/>
  <unicode hex="0076"/>
  <outline>
    <contour>
      <point x="307" y="0" type="line"/>
      <point x="458" y="0" type="line"/>
      <point x="717" y="555" type="line"/>
      <point x="533" y="555" type="line"/>
      <point x="383" y="159" type="line"/>
      <point x="232" y="555" type="line"/>
      <point x="48" y="555" type="line"/>
    </contour>
  </outline>
</glyph>
<glyph name="w" format="1">
  <advance width="1051"/>
  <unicode hex="0077"/>
  <outline>
    <contour>
      <point x="264" y="0" type="line"/>
      <point x="421" y="0" type="line"/>
      <point x="526" y="350" type="line"/>
      <point x="631" y="0" type="line"/>
      <point x="788" y="0" type="line"/>
      <point x="1041" y="555" type="line"/>
      <point x="865" y="555" type="line"/>
      <point x="716" y="163" type="line"/>
      <point x="596" y="555" type="line"/>
      <point x="456" y="555" type="line"/>
      <point x="340" y="162" type="line"/>
      <point x="187" y="555" type="line"/>
      <point x="10" y="555" type="line"/>
    </contour>
  </outline>
</glyph>
<glyph name="x" format="1">
  <advance width="662"/>
  <unicode hex="0078"/>
  <outline>
    <contour>
      <point x="642" y="555" type="line"/>
      <point x="466" y="555" type="line"/>
      <point x="331" y="377" type="line"/>
      <point x="204" y="555" type="line"/>
      <point x="20" y="555" type="line"/>
      <point x="244" y="276" type="line"/>
      <point x="21" y="0" type="line"/>
      <point x="194" y="0" type="line"/>
      <point x="331" y="179" type="line"/>
      <point x="459" y="0" type="line"/>
      <point x="641" y="0" type="line"/>
      <point x="418" y="276" type="line"/>
    </contour>
  </outline>
</glyph>
<glyph name="y" format="1">
  <advance width="710"/>
  <unicode hex="0079"/>
  <outline>
    <contour>
      <point x="363" y="643" type="move" name="top"/>
    </contour>
    <contour>
      <point x="225" y="-9" type="line" smooth="yes"/>
      <point x="198" y="-56"/>
      <point x="165" y="-79"/>
      <point x="128" y="-79" type="curve"/>
      <point x="84" y="-79"/>
      <point x="60" y="-54"/>
      <point x="60" y="-54" type="curve"/>
      <point x="60" y="-181" type="line"/>
      <point x="60" y="-181"/>
      <point x="97" y="-209"/>
      <point x="157" y="-209" type="curve" smooth="yes"/>
      <point x="249" y="-209"/>
      <point x="311" y="-132"/>
      <point x="389" y="14" type="curve" smooth="yes"/>
      <point x="678" y="555" type="line"/>
      <point x="500" y="555" type="line"/>
      <point x="349" y="217" type="line"/>
      <point x="200" y="555" type="line"/>
      <point x="20" y="555" type="line"/>
      <point x="277" y="82" type="line"/>
    </contour>
  </outline>
</glyph>
<glyph name="z" format="1">
  <advance width="613"/>
  <unicode hex="007A"/>
  <outline>
    <contour>
      <point x="40" y="0" type="line"/>
      <point x="573" y="0" type="line"/>
      <point x="573" y="133" type="line"/>
      <point x="248" y="133" type="line"/>
      <point x="573" y="479" type="line"/>
      <point x="573" y="555" type="line"/>
      <point x="67" y="555" type="line"/>
      <point x="67" y="420" type="line"/>
      <point x="340" y="420" type="line"/>
      <point x="40" y="103" type="line"/>
    </contour>
  </outline>
</glyph>
<glyph name="braceleft" format="1">
  <advance width="453"/>
  <unicode hex="007B"/>
  <outline>
    <contour>
      <point x="251" y="785" type="line" smooth="yes"/>
      <point x="251" y="803"/>
      <point x="259" y="809"/>
      <point x="272" y="809" type="curve" smooth="yes"/>
      <point x="307" y="809"/>
      <point x="353" y="774"/>
      <point x="353" y="774" type="curve"/>
      <point x="404" y="877" type="line"/>
      <point x="404" y="877"/>
      <point x="319" y="941"/>
      <point x="248" y="941" type="curve" smooth="yes"/>
      <point x="159" y="941"/>
      <point x="119" y="887"/>
      <point x="119" y="811" type="curve" smooth="yes"/>
      <point x="119" y="507" type="line" smooth="yes"/>
      <point x="119" y="456"/>
      <point x="38" y="403"/>
      <point x="38" y="403" type="curve"/>
      <point x="38" y="359" type="line"/>
      <point x="38" y="359"/>
      <point x="119" y="305"/>
      <point x="119" y="254" type="curve" smooth="yes"/>
      <point x="119" y="-53" type="line" smooth="yes"/>
      <point x="119" y="-128"/>
      <point x="159" y="-181"/>
      <point x="248" y="-181" type="curve" smooth="yes"/>
      <point x="320" y="-181"/>
      <point x="404" y="-120"/>
      <point x="404" y="-120" type="curve"/>
      <point x="353" y="-15" type="line"/>
      <point x="353" y="-15"/>
      <point x="306" y="-50"/>
      <point x="276" y="-50" type="curve" smooth="yes"/>
      <point x="265" y="-50"/>
      <point x="251" y="-45"/>
      <point x="251" y="-27" type="curve" smooth="yes"/>
      <point x="251" y="260" type="line" smooth="yes"/>
      <point x="251" y="346"/>
      <point x="150" y="379"/>
      <point x="145" y="381" type="curve"/>
      <point x="154" y="384"/>
      <point x="251" y="415"/>
      <point x="251" y="501" type="curve" smooth="yes"/>
    </contour>
  </outline>
</glyph>
<glyph name="bar" format="1">
  <advance width="170"/>
  <unicode hex="007C"/>
  <outline>
    <contour>
      <point x="60" y="729" type="line"/>
      <point x="60" y="-110" type="line"/>
      <point x="110" y="-110" type="line"/>
      <point x="110" y="729" type="line"/>
    </contour>
  </outline>
</glyph>
<glyph name="braceright" format="1">
  <advance width="453"/>
  <unicode hex="007D"/>
  <outline>
    <contour>
      <point x="202" y="501" type="line" smooth="yes"/>
      <point x="202" y="415"/>
      <point x="298" y="383"/>
      <point x="307" y="381" type="curve"/>
      <point x="295" y="377"/>
      <point x="202" y="343"/>
      <point x="202" y="260" type="curve" smooth="yes"/>
      <point x="202" y="-27" type="line" smooth="yes"/>
      <point x="202" y="-45"/>
      <point x="188" y="-50"/>
      <point x="177" y="-50" type="curve" smooth="yes"/>
      <point x="147" y="-50"/>
      <point x="100" y="-15"/>
      <point x="100" y="-15" type="curve"/>
      <point x="49" y="-120" type="line"/>
      <point x="49" y="-120"/>
      <point x="133" y="-181"/>
      <point x="205" y="-181" type="curve" smooth="yes"/>
      <point x="294" y="-181"/>
      <point x="334" y="-128"/>
      <point x="334" y="-53" type="curve" smooth="yes"/>
      <point x="334" y="254" type="line" smooth="yes"/>
      <point x="334" y="305"/>
      <point x="415" y="359"/>
      <point x="415" y="359" type="curve"/>
      <point x="415" y="403" type="line"/>
      <point x="415" y="403"/>
      <point x="334" y="456"/>
      <point x="334" y="507" type="curve" smooth="yes"/>
      <point x="334" y="811" type="line" smooth="yes"/>
      <point x="334" y="887"/>
      <point x="294" y="941"/>
      <point x="205" y="941" type="curve" smooth="yes"/>
      <point x="134" y="941"/>
      <point x="49" y="877"/>
      <point x="49" y="877" type="curve"/>
      <point x="100" y="774" type="line"/>
      <point x="100" y="774"/>
      <point x="146" y="809"/>
      <point x="181" y="809" type="curve" smooth="yes"/>
      <point x="194" y="809"/>
      <point x="202" y="803"/>
      <point x="202" y="785" type="curve" smooth="yes"/>
    </contour>
  </outline>
</glyph>
<glyph name="exclamdown" format="1">
  <advance width="321"/>
  <unicode hex="00A1"/>
  <outline>
    <contour>
      <point x="248" y="-323" type="line"/>
      <point x="237" y="231" type="line"/>
      <point x="87" y="231" type="line"/>
      <point x="73" y="-323" type="line"/>
    </contour>
    <contour>
      <point x="61" y="571" type="line"/>
      <point x="61" y="398" type="line"/>
      <point x="261" y="398" type="line"/>
      <point x="261" y="571" type="line"/>
    </contour>
  </outline>
</glyph>
<glyph name="cent" format="1">
  <advance width="643"/>
  <unicode hex="00A2"/>
  <outline>
    <contour>
      <point x="354" y="-223" type="line"/>
      <point x="354" y="-13" type="line"/>
      <point x="555" y="-3"/>
      <point x="614" y="149"/>
      <point x="614" y="218" type="curve"/>
      <point x="470" y="218" type="line"/>
      <point x="470" y="218"/>
      <point x="454" y="128"/>
      <point x="354" y="118" type="curve"/>
      <point x="354" y="443" type="line"/>
      <point x="436" y="430"/>
      <point x="444" y="341"/>
      <point x="444" y="341" type="curve"/>
      <point x="576" y="421" type="line"/>
      <point x="576" y="421"/>
      <point x="539" y="569"/>
      <point x="354" y="577" type="curve"/>
      <point x="354" y="776" type="line"/>
      <point x="311" y="776" type="line"/>
      <point x="311" y="577" type="line"/>
      <point x="122" y="563"/>
      <point x="33" y="411"/>
      <point x="33" y="280" type="curve" smooth="yes"/>
      <point x="33" y="110"/>
      <point x="148" y="-4"/>
      <point x="311" y="-13" type="curve"/>
      <point x="311" y="-223" type="line"/>
    </contour>
    <contour>
      <point x="196" y="282" type="curve" smooth="yes"/>
      <point x="196" y="366"/>
      <point x="239" y="430"/>
      <point x="311" y="442" type="curve"/>
      <point x="311" y="119" type="line"/>
      <point x="240" y="130"/>
      <point x="196" y="192"/>
    </contour>
  </outline>
</glyph>
<glyph name="sterling" format="1">
  <advance width="899"/>
  <unicode hex="00A3"/>
  <outline>
    <contour>
      <point x="108" y="318" type="line"/>
      <point x="282" y="318" type="line"/>
      <point x="305" y="289"/>
      <point x="320" y="254"/>
      <point x="321" y="207" type="curve"/>
      <point x="280" y="231"/>
      <point x="239" y="252"/>
      <point x="186" y="252" type="curve" smooth="yes"/>
      <point x="104" y="252"/>
      <point x="53" y="198"/>
      <point x="53" y="118" type="curve" smooth="yes"/>
      <point x="53" y="38"/>
      <point x="115" y="-14"/>
      <point x="207" y="-14" type="curve" smooth="yes"/>
      <point x="281" y="-14"/>
      <point x="341" y="14"/>
      <point x="384" y="54" type="curve"/>
      <point x="428" y="17"/>
      <point x="482" y="-14"/>
      <point x="564" y="-14" type="curve" smooth="yes"/>
      <point x="855" y="-14"/>
      <point x="853" y="328"/>
      <point x="853" y="328" type="curve"/>
      <point x="684" y="328" type="line"/>
      <point x="684" y="235"/>
      <point x="658" y="131"/>
      <point x="521" y="131" type="curve" smooth="yes"/>
      <point x="493" y="131"/>
      <point x="469" y="135"/>
      <point x="446" y="142" type="curve"/>
      <point x="455" y="164"/>
      <point x="460" y="186"/>
      <point x="460" y="206" type="curve" smooth="yes"/>
      <point x="460" y="251"/>
      <point x="450" y="287"/>
      <point x="436" y="318" type="curve"/>
      <point x="597" y="318" type="line"/>
      <point x="597" y="361" type="line"/>
      <point x="411" y="361" type="line"/>
      <point x="360" y="431"/>
      <point x="288" y="469"/>
      <point x="288" y="546" type="curve" smooth="yes"/>
      <point x="288" y="594"/>
      <point x="335" y="633"/>
      <point x="409" y="633" type="curve" smooth="yes"/>
      <point x="567" y="633"/>
      <point x="614" y="488"/>
      <point x="614" y="488" type="curve"/>
      <point x="758" y="574" type="line"/>
      <point x="758" y="574"/>
      <point x="669" y="788"/>
      <point x="416" y="788" type="curve" smooth="yes"/>
      <point x="197" y="788"/>
      <point x="111" y="657"/>
      <point x="111" y="558" type="curve" smooth="yes"/>
      <point x="111" y="457"/>
      <point x="182" y="414"/>
      <point x="242" y="361" type="curve"/>
      <point x="108" y="361" type="line"/>
    </contour>
    <contour>
      <point x="204" y="114" type="curve" smooth="yes"/>
      <point x="162" y="114"/>
      <point x="150" y="128"/>
      <point x="150" y="144" type="curve" smooth="yes"/>
      <point x="150" y="160"/>
      <point x="162" y="174"/>
      <point x="204" y="174" type="curve" smooth="yes"/>
      <point x="237" y="174"/>
      <point x="264" y="160"/>
      <point x="289" y="141" type="curve"/>
      <point x="269" y="125"/>
      <point x="241" y="114"/>
    </contour>
  </outline>
</glyph>
<glyph name="brokenbar" format="1">
  <advance width="171"/>
  <unicode hex="00A6"/>
  <outline>
    <contour>
      <point x="109" y="301" type="line"/>
      <point x="66" y="301" type="line"/>
      <point x="66" y="-223" type="line"/>
      <point x="109" y="-223" type="line"/>
    </contour>
    <contour>
      <point x="109" y="488" type="line"/>
      <point x="109" y="1012" type="line"/>
      <point x="66" y="1012" type="line"/>
      <point x="66" y="488" type="line"/>
    </contour>
  </outline>
</glyph>
<glyph name="section" format="1">
  <advance width="649"/>
  <unicode hex="00A7"/>
  <outline>
    <contour>
      <point x="465" y="549" type="line"/>
      <point x="465" y="549"/>
      <point x="410" y="660"/>
      <point x="321" y="660" type="curve" smooth="yes"/>
      <point x="264" y="660"/>
      <point x="237" y="623"/>
      <point x="237" y="586" type="curve" smooth="yes"/>
      <point x="237" y="524"/>
      <point x="285" y="483"/>
      <point x="389" y="472" type="curve" smooth="yes"/>
      <point x="549" y="456"/>
      <point x="598" y="377"/>
      <point x="598" y="303" type="curve" smooth="yes"/>
      <point x="598" y="146"/>
      <point x="414" y="120"/>
      <point x="402" y="119" type="curve"/>
      <point x="417" y="116"/>
      <point x="569" y="81"/>
      <point x="569" y="-21" type="curve" smooth="yes"/>
      <point x="569" y="-136"/>
      <point x="470" y="-216"/>
      <point x="321" y="-216" type="curve" smooth="yes"/>
      <point x="124" y="-216"/>
      <point x="52" y="-55"/>
      <point x="52" y="-55" type="curve"/>
      <point x="169" y="41" type="line"/>
      <point x="169" y="41"/>
      <point x="226" y="-71"/>
      <point x="325" y="-71" type="curve" smooth="yes"/>
      <point x="382" y="-71"/>
      <point x="410" y="-35"/>
      <point x="410" y="6" type="curve" smooth="yes"/>
      <point x="410" y="48"/>
      <point x="379" y="95"/>
      <point x="294" y="103" type="curve"/>
      <point x="117" y="122"/>
      <point x="54" y="195"/>
      <point x="54" y="281" type="curve" smooth="yes"/>
      <point x="54" y="438"/>
      <point x="235" y="455"/>
      <point x="247" y="456" type="curve"/>
      <point x="231" y="459"/>
      <point x="78" y="491"/>
      <point x="78" y="600" type="curve" smooth="yes"/>
      <point x="78" y="705"/>
      <point x="181" y="806"/>
      <point x="332" y="806" type="curve" smooth="yes"/>
      <point x="518" y="806"/>
      <point x="580" y="646"/>
      <point x="580" y="646" type="curve"/>
    </contour>
    <contour>
      <point x="434" y="295" type="curve" smooth="yes"/>
      <point x="434" y="323"/>
      <point x="404" y="356"/>
      <point x="320" y="356" type="curve" smooth="yes"/>
      <point x="238" y="356"/>
      <point x="210" y="322"/>
      <point x="210" y="295" type="curve" smooth="yes"/>
      <point x="210" y="268"/>
      <point x="231" y="233"/>
      <point x="321" y="233" type="curve" smooth="yes"/>
      <point x="410" y="233"/>
      <point x="434" y="267"/>
    </contour>
  </outline>
</glyph>
<glyph name="dieresis" format="1">
  <advance width="541"/>
  <unicode hex="00A8"/>
  <outline>
    <contour>
      <point x="277" y="613" type="move" name="_top"/>
    </contour>
    <contour>
      <point x="66" y="777" type="line"/>
      <point x="66" y="661" type="line"/>
      <point x="222" y="661" type="line"/>
      <point x="222" y="777" type="line"/>
    </contour>
    <contour>
      <point x="319" y="777" type="line"/>
      <point x="319" y="661" type="line"/>
      <point x="475" y="661" type="line"/>
      <point x="475" y="777" type="line"/>
    </contour>
  </outline>
</glyph>
<glyph name="copyright" format="1">
  <advance width="830"/>
  <unicode hex="00A9"/>
  <outline>
    <contour>
      <point x="51" y="275" type="curve" smooth="yes"/>
      <point x="51" y="74"/>
      <point x="214" y="-90"/>
      <point x="415" y="-90" type="curve" smooth="yes"/>
      <point x="616" y="-90"/>
      <point x="779" y="74"/>
      <point x="779" y="275" type="curve" smooth="yes"/>
      <point x="779" y="475"/>
      <point x="616" y="639"/>
      <point x="415" y="639" type="curve" smooth="yes"/>
      <point x="214" y="639"/>
      <point x="51" y="475"/>
    </contour>
    <contour>
      <point x="95" y="275" type="curve" smooth="yes"/>
      <point x="95" y="457"/>
      <point x="233" y="595"/>
      <point x="415" y="595" type="curve" smooth="yes"/>
      <point x="595" y="595"/>
      <point x="736" y="457"/>
      <point x="736" y="275" type="curve" smooth="yes"/>
      <point x="736" y="94"/>
      <point x="595" y="-46"/>
      <point x="415" y="-46" type="curve" smooth="yes"/>
      <point x="233" y="-46"/>
      <point x="95" y="94"/>
    </contour>
    <contour>
      <point x="521" y="261" type="line"/>
      <point x="521" y="261"/>
      <point x="513" y="140"/>
      <point x="416" y="140" type="curve" smooth="yes"/>
      <point x="352" y="140"/>
      <point x="311" y="185"/>
      <point x="311" y="275" type="curve" smooth="yes"/>
      <point x="311" y="348"/>
      <point x="354" y="397"/>
      <point x="404" y="397" type="curve" smooth="yes"/>
      <point x="490" y="397"/>
      <point x="505" y="297"/>
      <point x="505" y="297" type="curve"/>
      <point x="637" y="377" type="line"/>
      <point x="637" y="377"/>
      <point x="598" y="511"/>
      <point x="405" y="511" type="curve" smooth="yes"/>
      <point x="242" y="511"/>
      <point x="154" y="400"/>
      <point x="154" y="273" type="curve" smooth="yes"/>
      <point x="154" y="126"/>
      <point x="259" y="29"/>
      <point x="413" y="29" type="curve" smooth="yes"/>
      <point x="612" y="29"/>
      <point x="665" y="190"/>
      <point x="665" y="261" type="curve"/>
    </contour>
  </outline>
</glyph>
<glyph name="guillemotleft" format="1">
  <advance width="656"/>
  <unicode hex="00AB"/>
  <outline>
    <contour>
      <point x="32" y="277" type="line"/>
      <point x="344" y="38" type="line"/>
      <point x="344" y="130" type="line"/>
      <point x="150" y="277" type="line"/>
      <point x="348" y="431" type="line"/>
      <point x="348" y="522" type="line"/>
    </contour>
    <contour>
      <point x="274" y="277" type="line"/>
      <point x="586" y="38" type="line"/>
      <point x="586" y="130" type="line"/>
      <point x="393" y="277" type="line"/>
      <point x="591" y="431" type="line"/>
      <point x="591" y="522" type="line"/>
    </contour>
  </outline>
</glyph>
<glyph name="registered" format="1">
  <advance width="830"/>
  <unicode hex="00AE"/>
  <outline>
    <contour>
      <point x="51" y="275" type="curve" smooth="yes"/>
      <point x="51" y="74"/>
      <point x="214" y="-90"/>
      <point x="415" y="-90" type="curve" smooth="yes"/>
      <point x="616" y="-90"/>
      <point x="779" y="74"/>
      <point x="779" y="275" type="curve" smooth="yes"/>
      <point x="779" y="475"/>
      <point x="616" y="639"/>
      <point x="415" y="639" type="curve" smooth="yes"/>
      <point x="214" y="639"/>
      <point x="51" y="475"/>
    </contour>
    <contour>
      <point x="95" y="275" type="curve" smooth="yes"/>
      <point x="95" y="457"/>
      <point x="233" y="595"/>
      <point x="415" y="595" type="curve" smooth="yes"/>
      <point x="595" y="595"/>
      <point x="736" y="457"/>
      <point x="736" y="275" type="curve" smooth="yes"/>
      <point x="736" y="94"/>
      <point x="595" y="-46"/>
      <point x="415" y="-46" type="curve" smooth="yes"/>
      <point x="233" y="-46"/>
      <point x="95" y="94"/>
    </contour>
    <contour>
      <point x="621" y="357" type="curve" smooth="yes"/>
      <point x="621" y="445"/>
      <point x="557" y="494"/>
      <point x="454" y="494" type="curve" smooth="yes"/>
      <point x="213" y="494" type="line"/>
      <point x="213" y="48" type="line"/>
      <point x="358" y="48" type="line"/>
      <point x="358" y="217" type="line"/>
      <point x="374" y="227" type="line"/>
      <point x="490" y="48" type="line"/>
      <point x="637" y="48" type="line"/>
      <point x="506" y="227" type="line"/>
      <point x="506" y="227"/>
      <point x="621" y="244"/>
    </contour>
    <contour>
      <point x="360" y="400" type="line"/>
      <point x="416" y="400" type="line" smooth="yes"/>
      <point x="445" y="400"/>
      <point x="471" y="395"/>
      <point x="471" y="361" type="curve" smooth="yes"/>
      <point x="471" y="324"/>
      <point x="445" y="319"/>
      <point x="415" y="319" type="curve" smooth="yes"/>
      <point x="360" y="319" type="line"/>
    </contour>
  </outline>
</glyph>
<glyph name="degree" format="1">
  <advance width="400"/>
  <unicode hex="00B0"/>
  <outline>
    <contour>
      <point x="52" y="718" type="curve" smooth="yes"/>
      <point x="52" y="632"/>
      <point x="113" y="571"/>
      <point x="199" y="571" type="curve" smooth="yes"/>
      <point x="286" y="571"/>
      <point x="348" y="632"/>
      <point x="348" y="718" type="curve" smooth="yes"/>
      <point x="348" y="805"/>
      <point x="286" y="867"/>
      <point x="199" y="867" type="curve" smooth="yes"/>
      <point x="113" y="867"/>
      <point x="52" y="805"/>
    </contour>
    <contour>
      <point x="91" y="718" type="curve" smooth="yes"/>
      <point x="91" y="782"/>
      <point x="134" y="827"/>
      <point x="199" y="827" type="curve" smooth="yes"/>
      <point x="264" y="827"/>
      <point x="308" y="782"/>
      <point x="308" y="718" type="curve" smooth="yes"/>
      <point x="308" y="655"/>
      <point x="264" y="610"/>
      <point x="199" y="610" type="curve" smooth="yes"/>
      <point x="134" y="610"/>
      <point x="91" y="653"/>
    </contour>
  </outline>
</glyph>
<glyph name="plusminus" format="1">
  <advance width="650"/>
  <unicode hex="00B1"/>
  <outline>
    <contour>
      <point x="300" y="696" type="line"/>
      <point x="300" y="416" type="line"/>
      <point x="20" y="416" type="line"/>
      <point x="20" y="366" type="line"/>
      <point x="300" y="366" type="line"/>
      <point x="300" y="86" type="line"/>
      <point x="350" y="86" type="line"/>
      <point x="350" y="366" type="line"/>
      <point x="630" y="366" type="line"/>
      <point x="630" y="416" type="line"/>
      <point x="350" y="416" type="line"/>
      <point x="350" y="696" type="line"/>
    </contour>
    <contour>
      <point x="630" y="50" type="line"/>
      <point x="20" y="50" type="line"/>
      <point x="20" y="0" type="line"/>
      <point x="630" y="0" type="line"/>
    </contour>
    <contour>
      <point x="322" y="568" type="move" name="_top"/>
    </contour>
  </outline>
</glyph>
<glyph name="acute" format="1">
  <advance width="361"/>
  <unicode hex="00B4"/>
  <outline>
    <contour>
      <point x="152" y="613" type="move" name="_top"/>
    </contour>
    <contour>
      <point x="245" y="874" type="line"/>
      <point x="31" y="635" type="line"/>
      <point x="62" y="603" type="line"/>
      <point x="333" y="779" type="line"/>
    </contour>
  </outline>
</glyph>
<glyph name="paragraph" format="1">
  <advance width="681"/>
  <unicode hex="00B6"/>
  <outline>
    <contour>
      <point x="295" y="-207" type="line"/>
      <point x="413" y="-207" type="line"/>
      <point x="413" y="633" type="line"/>
      <point x="508" y="633" type="line"/>
      <point x="508" y="-207" type="line"/>
      <point x="615" y="-207" type="line"/>
      <point x="615" y="777" type="line"/>
      <point x="323" y="777" type="line"/>
      <point x="164" y="777"/>
      <point x="36" y="715"/>
      <point x="36" y="543" type="curve" smooth="yes"/>
      <point x="36" y="398"/>
      <point x="148" y="323"/>
      <point x="297" y="315" type="curve"/>
    </contour>
  </outline>
</glyph>
<glyph name="periodcentered" format="1">
  <advance width="505"/>
  <unicode hex="00B7"/>
  <outline>
    <contour>
      <point x="52" y="280" type="curve" smooth="yes"/>
      <point x="52" y="171"/>
      <point x="142" y="81"/>
      <point x="252" y="81" type="curve" smooth="yes"/>
      <point x="363" y="81"/>
      <point x="453" y="171"/>
      <point x="453" y="280" type="curve" smooth="yes"/>
      <point x="453" y="392"/>
      <point x="363" y="481"/>
      <point x="252" y="481" type="curve" smooth="yes"/>
      <point x="142" y="481"/>
      <point x="52" y="392"/>
    </contour>
  </outline>
</glyph>
<glyph name="cedilla" format="1">
  <advance width="327"/>
  <unicode hex="00B8"/>
  <outline>
    <contour>
      <point x="151" y="-29" type="move" name="_bottom"/>
    </contour>
    <contour>
      <point x="106" y="-243" type="line"/>
      <point x="297" y="-78" type="line"/>
      <point x="271" y="-32" type="line"/>
      <point x="33" y="-124" type="line"/>
    </contour>
  </outline>
</glyph>
<glyph name="guillemotright" format="1">
  <advance width="656"/>
  <unicode hex="00BB"/>
  <outline>
    <contour>
      <point x="65" y="522" type="line"/>
      <point x="65" y="431" type="line"/>
      <point x="263" y="277" type="line"/>
      <point x="69" y="130" type="line"/>
      <point x="69" y="38" type="line"/>
      <point x="381" y="277" type="line"/>
    </contour>
    <contour>
      <point x="307" y="522" type="line"/>
      <point x="307" y="431" type="line"/>
      <point x="505" y="277" type="line"/>
      <point x="311" y="130" type="line"/>
      <point x="311" y="38" type="line"/>
      <point x="624" y="277" type="line"/>
    </contour>
  </outline>
</glyph>
<glyph name="onehalf" format="1">
  <advance width="778"/>
  <unicode hex="00BD"/>
  <outline>
    <contour>
      <point x="582" y="784" type="line"/>
      <point x="171" y="20" type="line"/>
      <point x="217" y="-3" type="line"/>
      <point x="630" y="760" type="line"/>
    </contour>
    <contour>
      <point x="320" y="390" type="line"/>
      <point x="320" y="432" type="line"/>
      <point x="215" y="432" type="line"/>
      <point x="215" y="778" type="line"/>
      <point x="150" y="778" type="line"/>
      <point x="150" y="702"/>
      <point x="99" y="679"/>
      <point x="0" y="679" type="curve"/>
      <point x="0" y="630" type="line"/>
      <point x="124" y="630"/>
      <point x="149" y="661"/>
      <point x="149" y="736" type="curve" smooth="yes"/>
      <point x="150" y="432" type="line"/>
      <point x="0" y="432" type="line"/>
      <point x="0" y="390" type="line"/>
    </contour>
    <contour>
      <point x="770" y="268" type="curve" name="hr00" smooth="yes"/>
      <point x="770" y="340"/>
      <point x="718" y="395"/>
      <point x="614" y="395" type="curve" smooth="yes"/>
      <point x="510" y="395"/>
      <point x="460" y="329"/>
      <point x="460" y="269" type="curve" smooth="yes"/>
      <point x="460" y="203"/>
      <point x="508" y="166"/>
      <point x="508" y="166" type="curve"/>
      <point x="574" y="186" type="line"/>
      <point x="570" y="188"/>
      <point x="527" y="217"/>
      <point x="527" y="267" type="curve" smooth="yes"/>
      <point x="527" y="309"/>
      <point x="552" y="346"/>
      <point x="613" y="346" type="curve" smooth="yes"/>
      <point x="675" y="346"/>
      <point x="702" y="309"/>
      <point x="702" y="266" type="curve" smooth="yes"/>
      <point x="702" y="139"/>
      <point x="458" y="37"/>
      <point x="458" y="37" type="curve"/>
      <point x="458" y="0" type="line"/>
      <point x="778" y="0" type="line"/>
      <point x="778" y="42" type="line"/>
      <point x="558" y="42" type="line"/>
      <point x="615" y="78"/>
      <point x="770" y="148"/>
    </contour>
  </outline>
</glyph>
<glyph name="questiondown" format="1">
  <advance width="744"/>
  <unicode hex="00BF"/>
  <outline>
    <contour>
      <point x="704" y="-82" type="curve" smooth="yes"/>
      <point x="704" y="64"/>
      <point x="609" y="125"/>
      <point x="423" y="155" type="curve"/>
      <point x="423" y="231" type="line"/>
      <point x="272" y="231" type="line"/>
      <point x="271" y="92" type="line"/>
      <point x="439" y="65"/>
      <point x="527" y="34"/>
      <point x="527" y="-71" type="curve" smooth="yes"/>
      <point x="527" y="-130"/>
      <point x="477" y="-188"/>
      <point x="391" y="-188" type="curve" smooth="yes"/>
      <point x="207" y="-188"/>
      <point x="169" y="18"/>
      <point x="169" y="18" type="curve"/>
      <point x="37" y="-39" type="line"/>
      <point x="37" y="-39"/>
      <point x="75" y="-332"/>
      <point x="401" y="-332" type="curve" smooth="yes"/>
      <point x="627" y="-332"/>
      <point x="704" y="-188"/>
    </contour>
    <contour>
      <point x="246" y="571" type="line"/>
      <point x="246" y="398" type="line"/>
      <point x="447" y="398" type="line"/>
      <point x="447" y="571" type="line"/>
    </contour>
  </outline>
</glyph>
<glyph name="Aacute" format="1">
  <advance width="1052"/>
  <unicode hex="00C1"/>
  <outline>
    <contour>
      <point x="643" y="777" type="line"/>
      <point x="409" y="777" type="line"/>
      <point x="49" y="0" type="line"/>
      <point x="229" y="0" type="line"/>
      <point x="334" y="235" type="line"/>
      <point x="718" y="235" type="line"/>
      <point x="823" y="0" type="line"/>
      <point x="1003" y="0" type="line"/>
    </contour>
    <contour>
      <point x="656" y="379" type="line"/>
      <point x="396" y="379" type="line"/>
      <point x="502" y="633" type="line"/>
      <point x="550" y="633" type="line"/>
    </contour>
    <contour>
      <point x="696" y="1041" type="line"/>
      <point x="312" y="893" type="line"/>
      <point x="327" y="840" type="line"/>
      <point x="734" y="912" type="line"/>
    </contour>
  </outline>
</glyph>
<glyph name="Acircumflex" format="1">
  <advance width="1052"/>
  <unicode hex="00C2"/>
  <outline>
    <contour>
      <point x="643" y="777" type="line"/>
      <point x="409" y="777" type="line"/>
      <point x="49" y="0" type="line"/>
      <point x="229" y="0" type="line"/>
      <point x="334" y="235" type="line"/>
      <point x="718" y="235" type="line"/>
      <point x="823" y="0" type="line"/>
      <point x="1003" y="0" type="line"/>
    </contour>
    <contour>
      <point x="656" y="379" type="line"/>
      <point x="396" y="379" type="line"/>
      <point x="502" y="633" type="line"/>
      <point x="550" y="633" type="line"/>
    </contour>
    <contour>
      <point x="286" y="883" type="line"/>
      <point x="301" y="830" type="line"/>
      <point x="525" y="910" type="line"/>
      <point x="749" y="830" type="line"/>
      <point x="764" y="883" type="line"/>
      <point x="525" y="1029" type="line"/>
    </contour>
  </outline>
</glyph>
<glyph name="Atilde" format="1">
  <advance width="1052"/>
  <unicode hex="00C3"/>
  <outline>
    <contour>
      <point x="643" y="777" type="line"/>
      <point x="409" y="777" type="line"/>
      <point x="49" y="0" type="line"/>
      <point x="229" y="0" type="line"/>
      <point x="334" y="235" type="line"/>
      <point x="718" y="235" type="line"/>
      <point x="823" y="0" type="line"/>
      <point x="1003" y="0" type="line"/>
    </contour>
    <contour>
      <point x="656" y="379" type="line"/>
      <point x="396" y="379" type="line"/>
      <point x="502" y="633" type="line"/>
      <point x="550" y="633" type="line"/>
    </contour>
    <contour>
      <point x="612" y="1029" type="curve"/>
      <point x="533" y="1029"/>
      <point x="506" y="974"/>
      <point x="431" y="974" type="curve" smooth="yes"/>
      <point x="362" y="974"/>
      <point x="307" y="1026"/>
      <point x="307" y="1026" type="curve"/>
      <point x="307" y="929" type="line"/>
      <point x="307" y="929"/>
      <point x="353" y="885"/>
      <point x="431" y="885" type="curve" smooth="yes"/>
      <point x="521" y="885"/>
      <point x="538" y="939"/>
      <point x="616" y="939" type="curve" smooth="yes"/>
      <point x="677" y="939"/>
      <point x="725" y="900"/>
      <point x="725" y="900" type="curve"/>
      <point x="725" y="991" type="line"/>
      <point x="725" y="991"/>
      <point x="677" y="1029"/>
    </contour>
  </outline>
</glyph>
<glyph name="Adieresis" format="1">
  <advance width="1052"/>
  <unicode hex="00C4"/>
  <outline>
    <contour>
      <point x="643" y="777" type="line"/>
      <point x="409" y="777" type="line"/>
      <point x="49" y="0" type="line"/>
      <point x="229" y="0" type="line"/>
      <point x="334" y="235" type="line"/>
      <point x="718" y="235" type="line"/>
      <point x="823" y="0" type="line"/>
      <point x="1003" y="0" type="line"/>
    </contour>
    <contour>
      <point x="656" y="379" type="line"/>
      <point x="396" y="379" type="line"/>
      <point x="502" y="633" type="line"/>
      <point x="550" y="633" type="line"/>
    </contour>
    <contour>
      <point x="314" y="1029" type="line"/>
      <point x="314" y="907" type="line"/>
      <point x="470" y="907" type="line"/>
      <point x="470" y="1029" type="line"/>
    </contour>
    <contour>
      <point x="567" y="1029" type="line"/>
      <point x="567" y="907" type="line"/>
      <point x="723" y="907" type="line"/>
      <point x="723" y="1029" type="line"/>
    </contour>
  </outline>
</glyph>
<glyph name="Aring" format="1">
  <advance width="1052"/>
  <unicode hex="00C5"/>
  <outline>
    <contour>
      <point x="643" y="777" type="line"/>
      <point x="409" y="777" type="line"/>
      <point x="49" y="0" type="line"/>
      <point x="229" y="0" type="line"/>
      <point x="334" y="235" type="line"/>
      <point x="718" y="235" type="line"/>
      <point x="823" y="0" type="line"/>
      <point x="1003" y="0" type="line"/>
    </contour>
    <contour>
      <point x="656" y="379" type="line"/>
      <point x="396" y="379" type="line"/>
      <point x="502" y="633" type="line"/>
      <point x="550" y="633" type="line"/>
    </contour>
    <contour>
      <point x="418" y="970" type="curve" smooth="yes"/>
      <point x="418" y="912"/>
      <point x="464" y="866"/>
      <point x="522" y="866" type="curve" smooth="yes"/>
      <point x="580" y="866"/>
      <point x="628" y="912"/>
      <point x="628" y="970" type="curve" smooth="yes"/>
      <point x="628" y="1028"/>
      <point x="580" y="1076"/>
      <point x="522" y="1076" type="curve" smooth="yes"/>
      <point x="464" y="1076"/>
      <point x="418" y="1028"/>
    </contour>
    <contour>
      <point x="457" y="970" type="curve" smooth="yes"/>
      <point x="457" y="1005"/>
      <point x="486" y="1035"/>
      <point x="522" y="1035" type="curve" smooth="yes"/>
      <point x="558" y="1035"/>
      <point x="587" y="1005"/>
      <point x="587" y="970" type="curve" smooth="yes"/>
      <point x="587" y="936"/>
      <point x="558" y="905"/>
      <point x="522" y="905" type="curve" smooth="yes"/>
      <point x="486" y="905"/>
      <point x="457" y="934"/>
    </contour>
  </outline>
</glyph>
<glyph name="AE" format="1">
  <advance width="1387"/>
  <unicode hex="00C6"/>
  <outline>
    <contour>
      <point x="499" y="328" type="line"/>
      <point x="641" y="328" type="line"/>
      <point x="641" y="0" type="line"/>
      <point x="1323" y="0" type="line"/>
      <point x="1323" y="144" type="line"/>
      <point x="814" y="144" type="line"/>
      <point x="814" y="328" type="line"/>
      <point x="1242" y="328" type="line"/>
      <point x="1242" y="471" type="line"/>
      <point x="814" y="471" type="line"/>
      <point x="814" y="633" type="line"/>
      <point x="1296" y="633" type="line"/>
      <point x="1296" y="777" type="line"/>
      <point x="406" y="777" type="line"/>
      <point x="46" y="0" type="line"/>
      <point x="226" y="0" type="line"/>
      <point x="499" y="633" type="line"/>
      <point x="641" y="633" type="line"/>
      <point x="641" y="471" type="line"/>
      <point x="499" y="471" type="line"/>
    </contour>
  </outline>
</glyph>
<glyph name="Ccedilla" format="1">
  <advance width="964"/>
  <unicode hex="00C7"/>
  <outline>
    <contour>
      <point x="738" y="328" type="line"/>
      <point x="738" y="328"/>
      <point x="721" y="144"/>
      <point x="499" y="144" type="curve" smooth="yes"/>
      <point x="354" y="144"/>
      <point x="247" y="235"/>
      <point x="247" y="387" type="curve" smooth="yes"/>
      <point x="247" y="539"/>
      <point x="348" y="633"/>
      <point x="489" y="633" type="curve"/>
      <point x="708" y="633"/>
      <point x="719" y="433"/>
      <point x="719" y="433" type="curve"/>
      <point x="864" y="521" type="line"/>
      <point x="864" y="521"/>
      <point x="826" y="788"/>
      <point x="492" y="788" type="curve"/>
      <point x="240" y="788"/>
      <point x="64" y="621"/>
      <point x="64" y="387" type="curve" smooth="yes"/>
      <point x="64" y="153"/>
      <point x="236" y="-14"/>
      <point x="502" y="-14" type="curve" smooth="yes"/>
      <point x="893" y="-14"/>
      <point x="906" y="328"/>
      <point x="906" y="328" type="curve"/>
    </contour>
    <contour>
      <point x="417" y="-223" type="line"/>
      <point x="608" y="-58" type="line"/>
      <point x="582" y="-12" type="line"/>
      <point x="344" y="-104" type="line"/>
    </contour>
  </outline>
</glyph>
<glyph name="Egrave" format="1">
  <advance width="844"/>
  <unicode hex="00C8"/>
  <outline>
    <contour>
      <point x="83" y="0" type="line"/>
      <point x="765" y="0" type="line"/>
      <point x="765" y="144" type="line"/>
      <point x="256" y="144" type="line"/>
      <point x="256" y="328" type="line"/>
      <point x="684" y="328" type="line"/>
      <point x="684" y="471" type="line"/>
      <point x="256" y="471" type="line"/>
      <point x="256" y="633" type="line"/>
      <point x="738" y="633" type="line"/>
      <point x="738" y="777" type="line"/>
      <point x="83" y="777" type="line"/>
    </contour>
    <contour>
      <point x="209" y="912" type="line"/>
      <point x="616" y="840" type="line"/>
      <point x="631" y="893" type="line"/>
      <point x="247" y="1041" type="line"/>
    </contour>
  </outline>
</glyph>
<glyph name="Eacute" format="1">
  <advance width="844"/>
  <unicode hex="00C9"/>
  <outline>
    <contour>
      <point x="83" y="0" type="line"/>
      <point x="765" y="0" type="line"/>
      <point x="765" y="144" type="line"/>
      <point x="256" y="144" type="line"/>
      <point x="256" y="328" type="line"/>
      <point x="684" y="328" type="line"/>
      <point x="684" y="471" type="line"/>
      <point x="256" y="471" type="line"/>
      <point x="256" y="633" type="line"/>
      <point x="738" y="633" type="line"/>
      <point x="738" y="777" type="line"/>
      <point x="83" y="777" type="line"/>
    </contour>
    <contour>
      <point x="593" y="1041" type="line"/>
      <point x="209" y="893" type="line"/>
      <point x="224" y="840" type="line"/>
      <point x="631" y="912" type="line"/>
    </contour>
  </outline>
</glyph>
<glyph name="Ecircumflex" format="1">
  <advance width="844"/>
  <unicode hex="00CA"/>
  <outline>
    <contour>
      <point x="83" y="0" type="line"/>
      <point x="765" y="0" type="line"/>
      <point x="765" y="144" type="line"/>
      <point x="256" y="144" type="line"/>
      <point x="256" y="328" type="line"/>
      <point x="684" y="328" type="line"/>
      <point x="684" y="471" type="line"/>
      <point x="256" y="471" type="line"/>
      <point x="256" y="633" type="line"/>
      <point x="738" y="633" type="line"/>
      <point x="738" y="777" type="line"/>
      <point x="83" y="777" type="line"/>
    </contour>
    <contour>
      <point x="183" y="883" type="line"/>
      <point x="198" y="830" type="line"/>
      <point x="422" y="910" type="line"/>
      <point x="646" y="830" type="line"/>
      <point x="661" y="883" type="line"/>
      <point x="422" y="1029" type="line"/>
    </contour>
  </outline>
</glyph>
<glyph name="Edieresis" format="1">
  <advance width="844"/>
  <unicode hex="00CB"/>
  <outline>
    <contour>
      <point x="83" y="0" type="line"/>
      <point x="765" y="0" type="line"/>
      <point x="765" y="144" type="line"/>
      <point x="256" y="144" type="line"/>
      <point x="256" y="328" type="line"/>
      <point x="684" y="328" type="line"/>
      <point x="684" y="471" type="line"/>
      <point x="256" y="471" type="line"/>
      <point x="256" y="633" type="line"/>
      <point x="738" y="633" type="line"/>
      <point x="738" y="777" type="line"/>
      <point x="83" y="777" type="line"/>
    </contour>
    <contour>
      <point x="211" y="1029" type="line"/>
      <point x="211" y="907" type="line"/>
      <point x="367" y="907" type="line"/>
      <point x="367" y="1029" type="line"/>
    </contour>
    <contour>
      <point x="464" y="1029" type="line"/>
      <point x="464" y="907" type="line"/>
      <point x="620" y="907" type="line"/>
      <point x="620" y="1029" type="line"/>
    </contour>
  </outline>
</glyph>
<glyph name="Igrave" format="1">
  <advance width="358"/>
  <unicode hex="00CC"/>
  <outline>
    <contour>
      <point x="90" y="777" type="line"/>
      <point x="90" y="0" type="line"/>
      <point x="268" y="0" type="line"/>
      <point x="268" y="777" type="line"/>
    </contour>
    <contour>
      <point x="-68" y="1018" type="line"/>
      <point x="161" y="875" type="line"/>
      <point x="278" y="875" type="line"/>
      <point x="142" y="1018" type="line"/>
    </contour>
  </outline>
</glyph>
<glyph name="Iacute" format="1">
  <advance width="338"/>
  <unicode hex="00CD"/>
  <outline>
    <contour>
      <point x="83" y="777" type="line"/>
      <point x="83" y="0" type="line"/>
      <point x="256" y="0" type="line"/>
      <point x="256" y="777" type="line"/>
    </contour>
    <contour>
      <point x="347" y="1041" type="line"/>
      <point x="-37" y="893" type="line"/>
      <point x="-22" y="840" type="line"/>
      <point x="385" y="912" type="line"/>
    </contour>
  </outline>
</glyph>
<glyph name="Icircumflex" format="1">
  <advance width="338"/>
  <unicode hex="00CE"/>
  <outline>
    <contour>
      <point x="83" y="777" type="line"/>
      <point x="83" y="0" type="line"/>
      <point x="256" y="0" type="line"/>
      <point x="256" y="777" type="line"/>
    </contour>
    <contour>
      <point x="-72" y="883" type="line"/>
      <point x="-57" y="830" type="line"/>
      <point x="167" y="910" type="line"/>
      <point x="391" y="830" type="line"/>
      <point x="406" y="883" type="line"/>
      <point x="167" y="1029" type="line"/>
    </contour>
  </outline>
</glyph>
<glyph name="Idieresis" format="1">
  <advance width="338"/>
  <unicode hex="00CF"/>
  <outline>
    <contour>
      <point x="83" y="777" type="line"/>
      <point x="83" y="0" type="line"/>
      <point x="256" y="0" type="line"/>
      <point x="256" y="777" type="line"/>
    </contour>
    <contour>
      <point x="-35" y="1029" type="line"/>
      <point x="-35" y="907" type="line"/>
      <point x="121" y="907" type="line"/>
      <point x="121" y="1029" type="line"/>
    </contour>
    <contour>
      <point x="218" y="1029" type="line"/>
      <point x="218" y="907" type="line"/>
      <point x="374" y="907" type="line"/>
      <point x="374" y="1029" type="line"/>
    </contour>
  </outline>
</glyph>
<glyph name="Ntilde" format="1">
  <advance width="946"/>
  <unicode hex="00D1"/>
  <outline>
    <contour>
      <point x="863" y="777" type="line"/>
      <point x="689" y="777" type="line"/>
      <point x="689" y="183" type="line"/>
      <point x="244" y="777" type="line"/>
      <point x="83" y="777" type="line"/>
      <point x="83" y="0" type="line"/>
      <point x="256" y="0" type="line"/>
      <point x="256" y="506" type="line"/>
      <point x="629" y="0" type="line"/>
      <point x="863" y="0" type="line"/>
    </contour>
    <contour>
      <point x="569" y="991" type="curve"/>
      <point x="490" y="991"/>
      <point x="463" y="936"/>
      <point x="388" y="936" type="curve" smooth="yes"/>
      <point x="319" y="936"/>
      <point x="264" y="988"/>
      <point x="264" y="988" type="curve"/>
      <point x="264" y="891" type="line"/>
      <point x="264" y="891"/>
      <point x="310" y="847"/>
      <point x="388" y="847" type="curve" smooth="yes"/>
      <point x="478" y="847"/>
      <point x="495" y="901"/>
      <point x="573" y="901" type="curve" smooth="yes"/>
      <point x="634" y="901"/>
      <point x="682" y="862"/>
      <point x="682" y="862" type="curve"/>
      <point x="682" y="953" type="line"/>
      <point x="682" y="953"/>
      <point x="634" y="991"/>
    </contour>
  </outline>
</glyph>
<glyph name="Ograve" format="1">
  <advance width="1110"/>
  <unicode hex="00D2"/>
  <outline>
    <contour>
      <point x="302" y="1018" type="line"/>
      <point x="531" y="875" type="line"/>
      <point x="648" y="875" type="line"/>
      <point x="512" y="1018" type="line"/>
    </contour>
    <contour>
      <point x="60" y="389" type="curve"/>
      <point x="60" y="155"/>
      <point x="255" y="-13"/>
      <point x="555" y="-13" type="curve" smooth="yes"/>
      <point x="855" y="-13"/>
      <point x="1050" y="155"/>
      <point x="1050" y="389" type="curve" smooth="yes"/>
      <point x="1050" y="623"/>
      <point x="855" y="791"/>
      <point x="555" y="791" type="curve" smooth="yes"/>
      <point x="255" y="791"/>
      <point x="60" y="623"/>
    </contour>
    <contour>
      <point x="245" y="389" type="curve"/>
      <point x="245" y="542"/>
      <point x="339" y="668"/>
      <point x="555" y="668" type="curve" smooth="yes"/>
      <point x="771" y="668"/>
      <point x="865" y="542"/>
      <point x="865" y="389" type="curve" smooth="yes"/>
      <point x="865" y="236"/>
      <point x="771" y="110"/>
      <point x="555" y="110" type="curve" smooth="yes"/>
      <point x="339" y="110"/>
      <point x="245" y="236"/>
    </contour>
  </outline>
</glyph>
<glyph name="Oacute" format="1">
  <advance width="1006"/>
  <unicode hex="00D3"/>
  <outline>
    <contour>
      <point x="64" y="387" type="curve"/>
      <point x="64" y="163"/>
      <point x="241" y="-14"/>
      <point x="504" y="-14" type="curve" smooth="yes"/>
      <point x="767" y="-14"/>
      <point x="942" y="163"/>
      <point x="942" y="387" type="curve" smooth="yes"/>
      <point x="942" y="611"/>
      <point x="767" y="788"/>
      <point x="504" y="788" type="curve" smooth="yes"/>
      <point x="241" y="788"/>
      <point x="64" y="611"/>
    </contour>
    <contour>
      <point x="247" y="387" type="curve"/>
      <point x="247" y="549"/>
      <point x="368" y="643"/>
      <point x="504" y="643" type="curve" smooth="yes"/>
      <point x="638" y="643"/>
      <point x="759" y="549"/>
      <point x="759" y="387" type="curve" smooth="yes"/>
      <point x="759" y="225"/>
      <point x="636" y="134"/>
      <point x="504" y="134" type="curve" smooth="yes"/>
      <point x="368" y="134"/>
      <point x="247" y="225"/>
    </contour>
    <contour>
      <point x="675" y="1041" type="line"/>
      <point x="291" y="893" type="line"/>
      <point x="306" y="840" type="line"/>
      <point x="713" y="912" type="line"/>
    </contour>
  </outline>
</glyph>
<glyph name="Ocircumflex" format="1">
  <advance width="1006"/>
  <unicode hex="00D4"/>
  <outline>
    <contour>
      <point x="64" y="387" type="curve"/>
      <point x="64" y="163"/>
      <point x="241" y="-14"/>
      <point x="504" y="-14" type="curve" smooth="yes"/>
      <point x="767" y="-14"/>
      <point x="942" y="163"/>
      <point x="942" y="387" type="curve" smooth="yes"/>
      <point x="942" y="611"/>
      <point x="767" y="788"/>
      <point x="504" y="788" type="curve" smooth="yes"/>
      <point x="241" y="788"/>
      <point x="64" y="611"/>
    </contour>
    <contour>
      <point x="247" y="387" type="curve"/>
      <point x="247" y="549"/>
      <point x="368" y="643"/>
      <point x="504" y="643" type="curve" smooth="yes"/>
      <point x="638" y="643"/>
      <point x="759" y="549"/>
      <point x="759" y="387" type="curve" smooth="yes"/>
      <point x="759" y="225"/>
      <point x="636" y="134"/>
      <point x="504" y="134" type="curve" smooth="yes"/>
      <point x="368" y="134"/>
      <point x="247" y="225"/>
    </contour>
    <contour>
      <point x="265" y="883" type="line"/>
      <point x="280" y="830" type="line"/>
      <point x="504" y="910" type="line"/>
      <point x="728" y="830" type="line"/>
      <point x="743" y="883" type="line"/>
      <point x="504" y="1029" type="line"/>
    </contour>
  </outline>
</glyph>
<glyph name="Odieresis" format="1">
  <advance width="1006"/>
  <unicode hex="00D6"/>
  <outline>
    <contour>
      <point x="64" y="387" type="curve"/>
      <point x="64" y="163"/>
      <point x="241" y="-14"/>
      <point x="504" y="-14" type="curve" smooth="yes"/>
      <point x="767" y="-14"/>
      <point x="942" y="163"/>
      <point x="942" y="387" type="curve" smooth="yes"/>
      <point x="942" y="611"/>
      <point x="767" y="788"/>
      <point x="504" y="788" type="curve" smooth="yes"/>
      <point x="241" y="788"/>
      <point x="64" y="611"/>
    </contour>
    <contour>
      <point x="247" y="387" type="curve"/>
      <point x="247" y="549"/>
      <point x="368" y="643"/>
      <point x="504" y="643" type="curve" smooth="yes"/>
      <point x="638" y="643"/>
      <point x="759" y="549"/>
      <point x="759" y="387" type="curve" smooth="yes"/>
      <point x="759" y="225"/>
      <point x="636" y="134"/>
      <point x="504" y="134" type="curve" smooth="yes"/>
      <point x="368" y="134"/>
      <point x="247" y="225"/>
    </contour>
    <contour>
      <point x="293" y="1029" type="line"/>
      <point x="293" y="907" type="line"/>
      <point x="449" y="907" type="line"/>
      <point x="449" y="1029" type="line"/>
    </contour>
    <contour>
      <point x="546" y="1029" type="line"/>
      <point x="546" y="907" type="line"/>
      <point x="702" y="907" type="line"/>
      <point x="702" y="1029" type="line"/>
    </contour>
  </outline>
</glyph>
<glyph name="multiply" format="1">
  <advance width="545"/>
  <unicode hex="00D7"/>
  <outline>
    <contour>
      <point x="484" y="97" type="line"/>
      <point x="304" y="277" type="line"/>
      <point x="489" y="462" type="line"/>
      <point x="458" y="493" type="line"/>
      <point x="273" y="308" type="line"/>
      <point x="93" y="488" type="line"/>
      <point x="63" y="458" type="line"/>
      <point x="243" y="277" type="line"/>
      <point x="58" y="92" type="line"/>
      <point x="89" y="62" type="line"/>
      <point x="273" y="247" type="line"/>
      <point x="454" y="66" type="line"/>
    </contour>
  </outline>
</glyph>
<glyph name="Oslash" format="1">
  <advance width="1063"/>
  <unicode hex="00D8"/>
  <outline>
    <contour>
      <point x="438" y="-216" type="line"/>
      <point x="493" y="-8" type="line"/>
      <point x="520" y="-12"/>
      <point x="547" y="-14"/>
      <point x="576" y="-14" type="curve" smooth="yes"/>
      <point x="839" y="-14"/>
      <point x="1014" y="163"/>
      <point x="1014" y="387" type="curve" smooth="yes"/>
      <point x="1014" y="572"/>
      <point x="893" y="726"/>
      <point x="702" y="773" type="curve"/>
      <point x="757" y="977" type="line"/>
      <point x="715" y="987" type="line"/>
      <point x="660" y="781" type="line"/>
      <point x="633" y="785"/>
      <point x="605" y="788"/>
      <point x="576" y="788" type="curve" smooth="yes"/>
      <point x="313" y="788"/>
      <point x="136" y="611"/>
      <point x="136" y="387" type="curve" smooth="yes"/>
      <point x="136" y="201"/>
      <point x="258" y="47"/>
      <point x="451" y="0" type="curve"/>
      <point x="396" y="-206" type="line"/>
    </contour>
    <contour>
      <point x="319" y="387" type="curve" smooth="yes"/>
      <point x="319" y="549"/>
      <point x="440" y="643"/>
      <point x="576" y="643" type="curve" smooth="yes"/>
      <point x="591" y="643"/>
      <point x="607" y="641"/>
      <point x="622" y="639" type="curve"/>
      <point x="490" y="147" type="line"/>
      <point x="393" y="177"/>
      <point x="319" y="260"/>
    </contour>
    <contour>
      <point x="831" y="387" type="curve" smooth="yes"/>
      <point x="831" y="225"/>
      <point x="708" y="134"/>
      <point x="576" y="134" type="curve" smooth="yes"/>
      <point x="561" y="134"/>
      <point x="547" y="135"/>
      <point x="532" y="137" type="curve"/>
      <point x="664" y="629" type="line"/>
      <point x="758" y="597"/>
      <point x="831" y="512"/>
    </contour>
  </outline>
</glyph>
<glyph name="Ugrave" format="1">
  <advance width="921"/>
  <unicode hex="00D9"/>
  <outline>
    <contour>
      <point x="78" y="777" type="line"/>
      <point x="78" y="326" type="line"/>
      <point x="78" y="89"/>
      <point x="166" y="-14"/>
      <point x="461" y="-14" type="curve" smooth="yes"/>
      <point x="756" y="-14"/>
      <point x="844" y="89"/>
      <point x="844" y="326" type="curve"/>
      <point x="844" y="777" type="line"/>
      <point x="670" y="777" type="line"/>
      <point x="670" y="326" type="line"/>
      <point x="670" y="198"/>
      <point x="622" y="144"/>
      <point x="461" y="144" type="curve" smooth="yes"/>
      <point x="300" y="144"/>
      <point x="252" y="198"/>
      <point x="252" y="326" type="curve"/>
      <point x="252" y="777" type="line"/>
    </contour>
    <contour>
      <point x="270" y="912" type="line"/>
      <point x="677" y="840" type="line"/>
      <point x="692" y="893" type="line"/>
      <point x="308" y="1041" type="line"/>
    </contour>
  </outline>
</glyph>
<glyph name="Uacute" format="1">
  <advance width="992"/>
  <unicode hex="00DA"/>
  <outline>
    <contour>
      <point x="534" y="1019" type="line"/>
      <point x="398" y="875" type="line"/>
      <point x="515" y="875" type="line"/>
      <point x="744" y="1019" type="line"/>
    </contour>
    <contour>
      <point x="724" y="777" type="line"/>
      <point x="724" y="324" type="line"/>
      <point x="724" y="148"/>
      <point x="638" y="110"/>
      <point x="496" y="110" type="curve" smooth="yes"/>
      <point x="354" y="110"/>
      <point x="268" y="148"/>
      <point x="268" y="324" type="curve"/>
      <point x="268" y="777" type="line"/>
      <point x="90" y="777" type="line"/>
      <point x="90" y="324" type="line"/>
      <point x="90" y="99"/>
      <point x="226" y="-13"/>
      <point x="496" y="-13" type="curve" smooth="yes"/>
      <point x="766" y="-13"/>
      <point x="902" y="99"/>
      <point x="902" y="324" type="curve"/>
      <point x="902" y="777" type="line"/>
    </contour>
  </outline>
</glyph>
<glyph name="Ucircumflex" format="1">
  <advance width="921"/>
  <unicode hex="00DB"/>
  <outline>
    <contour>
      <point x="78" y="777" type="line"/>
      <point x="78" y="326" type="line"/>
      <point x="78" y="89"/>
      <point x="166" y="-14"/>
      <point x="461" y="-14" type="curve" smooth="yes"/>
      <point x="756" y="-14"/>
      <point x="844" y="89"/>
      <point x="844" y="326" type="curve"/>
      <point x="844" y="777" type="line"/>
      <point x="670" y="777" type="line"/>
      <point x="670" y="326" type="line"/>
      <point x="670" y="198"/>
      <point x="622" y="144"/>
      <point x="461" y="144" type="curve" smooth="yes"/>
      <point x="300" y="144"/>
      <point x="252" y="198"/>
      <point x="252" y="326" type="curve"/>
      <point x="252" y="777" type="line"/>
    </contour>
    <contour>
      <point x="222" y="883" type="line"/>
      <point x="237" y="830" type="line"/>
      <point x="461" y="910" type="line"/>
      <point x="685" y="830" type="line"/>
      <point x="700" y="883" type="line"/>
      <point x="461" y="1029" type="line"/>
    </contour>
  </outline>
</glyph>
<glyph name="Udieresis" format="1">
  <advance width="921"/>
  <unicode hex="00DC"/>
  <outline>
    <contour>
      <point x="78" y="777" type="line"/>
      <point x="78" y="326" type="line"/>
      <point x="78" y="89"/>
      <point x="166" y="-14"/>
      <point x="461" y="-14" type="curve" smooth="yes"/>
      <point x="756" y="-14"/>
      <point x="844" y="89"/>
      <point x="844" y="326" type="curve"/>
      <point x="844" y="777" type="line"/>
      <point x="670" y="777" type="line"/>
      <point x="670" y="326" type="line"/>
      <point x="670" y="198"/>
      <point x="622" y="144"/>
      <point x="461" y="144" type="curve" smooth="yes"/>
      <point x="300" y="144"/>
      <point x="252" y="198"/>
      <point x="252" y="326" type="curve"/>
      <point x="252" y="777" type="line"/>
    </contour>
    <contour>
      <point x="257" y="1029" type="line"/>
      <point x="257" y="907" type="line"/>
      <point x="413" y="907" type="line"/>
      <point x="413" y="1029" type="line"/>
    </contour>
    <contour>
      <point x="510" y="1029" type="line"/>
      <point x="510" y="907" type="line"/>
      <point x="666" y="907" type="line"/>
      <point x="666" y="1029" type="line"/>
    </contour>
  </outline>
</glyph>
<glyph name="Yacute" format="1">
  <advance width="987"/>
  <unicode hex="00DD"/>
  <outline>
    <contour>
      <point x="905" y="777" type="line"/>
      <point x="679" y="777" type="line"/>
      <point x="494" y="470" type="line"/>
      <point x="307" y="777" type="line"/>
      <point x="82" y="777" type="line"/>
      <point x="407" y="329" type="line"/>
      <point x="407" y="0" type="line"/>
      <point x="581" y="0" type="line"/>
      <point x="581" y="329" type="line"/>
    </contour>
    <contour>
      <point x="681" y="1041" type="line"/>
      <point x="297" y="893" type="line"/>
      <point x="312" y="840" type="line"/>
      <point x="719" y="912" type="line"/>
    </contour>
  </outline>
</glyph>
<glyph name="germandbls" format="1">
  <advance width="753"/>
  <unicode hex="00DF"/>
  <outline>
    <contour>
      <point x="458" y="443" type="curve"/>
      <point x="582" y="433"/>
      <point x="693" y="344"/>
      <point x="693" y="224" type="curve"/>
      <point x="693" y="66"/>
      <point x="578" y="-14"/>
      <point x="454" y="-14" type="curve"/>
      <point x="388" y="-14"/>
      <point x="358" y="0"/>
      <point x="358" y="0" type="curve"/>
      <point x="358" y="144" type="line"/>
      <point x="451" y="124"/>
      <point x="524" y="177"/>
      <point x="524" y="253" type="curve"/>
      <point x="524" y="333"/>
      <point x="451" y="385"/>
      <point x="358" y="365" type="curve"/>
      <point x="358" y="450" type="line"/>
      <point x="358" y="450"/>
      <point x="424" y="474"/>
      <point x="424" y="545" type="curve"/>
      <point x="424" y="603"/>
      <point x="405" y="631"/>
      <point x="368" y="631" type="curve"/>
      <point x="329" y="631"/>
      <point x="308" y="605"/>
      <point x="308" y="545" type="curve" smooth="yes"/>
      <point x="308" y="0" type="line"/>
      <point x="145" y="0" type="line"/>
      <point x="145" y="444" type="line"/>
      <point x="53" y="444" type="line"/>
      <point x="53" y="555" type="line"/>
      <point x="144" y="555" type="line"/>
      <point x="144" y="684"/>
      <point x="237" y="765"/>
      <point x="381" y="765" type="curve" smooth="yes"/>
      <point x="499" y="765"/>
      <point x="593" y="702"/>
      <point x="593" y="602" type="curve"/>
      <point x="593" y="492"/>
      <point x="458" y="443"/>
    </contour>
  </outline>
</glyph>
<glyph name="agrave" format="1">
  <advance width="773"/>
  <unicode hex="00E0"/>
  <outline>
    <contour>
      <point x="116" y="791" type="line"/>
      <point x="345" y="648" type="line"/>
      <point x="462" y="648" type="line"/>
      <point x="326" y="791" type="line"/>
    </contour>
    <contour>
      <point x="625" y="152" type="curve" smooth="yes"/>
      <point x="634" y="359" type="line"/>
      <point x="638" y="472"/>
      <point x="543" y="568"/>
      <point x="363" y="568" type="curve" smooth="yes"/>
      <point x="83" y="568"/>
      <point x="30" y="379"/>
      <point x="30" y="379" type="curve"/>
      <point x="202" y="335" type="line"/>
      <point x="202" y="335"/>
      <point x="203" y="458"/>
      <point x="355" y="458" type="curve" smooth="yes"/>
      <point x="457" y="458"/>
      <point x="469" y="396"/>
      <point x="469" y="345" type="curve"/>
      <point x="165" y="319"/>
      <point x="56" y="212"/>
      <point x="56" y="119" type="curve" smooth="yes"/>
      <point x="56" y="35"/>
      <point x="118" y="-13"/>
      <point x="220" y="-13" type="curve" smooth="yes"/>
      <point x="392" y="-13"/>
      <point x="486" y="166"/>
      <point x="491" y="175" type="curve"/>
      <point x="491" y="63"/>
      <point x="521" y="-13"/>
      <point x="640" y="-13" type="curve" smooth="yes"/>
      <point x="727" y="-13"/>
      <point x="773" y="39"/>
      <point x="773" y="39" type="curve"/>
      <point x="740" y="147" type="line"/>
      <point x="740" y="147"/>
      <point x="711" y="97"/>
      <point x="665" y="97" type="curve" smooth="yes"/>
      <point x="635" y="97"/>
      <point x="624" y="121"/>
    </contour>
    <contour>
      <point x="228" y="153" type="curve" smooth="yes"/>
      <point x="228" y="206"/>
      <point x="287" y="275"/>
      <point x="469" y="292" type="curve"/>
      <point x="469" y="253" type="line"/>
      <point x="469" y="253"/>
      <point x="402" y="97"/>
      <point x="286" y="97" type="curve" smooth="yes"/>
      <point x="236" y="97"/>
      <point x="228" y="129"/>
    </contour>
  </outline>
</glyph>
<glyph name="acircumflex" format="1">
  <advance width="772"/>
  <unicode hex="00E2"/>
  <outline>
    <contour>
      <point x="588" y="165" type="line" smooth="yes"/>
      <point x="588" y="141"/>
      <point x="593" y="117"/>
      <point x="620" y="117" type="curve" smooth="yes"/>
      <point x="657" y="117"/>
      <point x="684" y="177"/>
      <point x="684" y="177" type="curve"/>
      <point x="721" y="68" type="line"/>
      <point x="721" y="68"/>
      <point x="678" y="-14"/>
      <point x="577" y="-14" type="curve" smooth="yes"/>
      <point x="507" y="-14"/>
      <point x="449" y="23"/>
      <point x="451" y="111" type="curve" smooth="yes"/>
      <point x="453" y="198" type="line"/>
      <point x="449" y="188"/>
      <point x="375" y="-14"/>
      <point x="214" y="-14" type="curve" smooth="yes"/>
      <point x="133" y="-14"/>
      <point x="84" y="37"/>
      <point x="84" y="115" type="curve" smooth="yes"/>
      <point x="84" y="205"/>
      <point x="167" y="337"/>
      <point x="436" y="345" type="curve"/>
      <point x="434" y="370" type="line" smooth="yes"/>
      <point x="432" y="399"/>
      <point x="418" y="444"/>
      <point x="348" y="444" type="curve" smooth="yes"/>
      <point x="248" y="444"/>
      <point x="215" y="342"/>
      <point x="215" y="342" type="curve"/>
      <point x="100" y="421" type="line"/>
      <point x="100" y="421"/>
      <point x="172" y="578"/>
      <point x="363" y="578" type="curve" smooth="yes"/>
      <point x="523" y="578"/>
      <point x="588" y="464"/>
      <point x="588" y="355" type="curve" smooth="yes"/>
    </contour>
    <contour>
      <point x="367" y="890" type="line"/>
      <point x="111" y="660" type="line"/>
      <point x="141" y="628" type="line"/>
      <point x="367" y="748" type="line"/>
      <point x="592" y="628" type="line"/>
      <point x="623" y="660" type="line"/>
    </contour>
    <contour>
      <point x="243" y="163" type="curve" smooth="yes"/>
      <point x="243" y="138"/>
      <point x="256" y="117"/>
      <point x="291" y="117" type="curve" smooth="yes"/>
      <point x="385" y="117"/>
      <point x="441" y="277"/>
      <point x="441" y="277" type="curve"/>
      <point x="441" y="282" type="line"/>
      <point x="263" y="252"/>
      <point x="243" y="198"/>
    </contour>
  </outline>
</glyph>
<glyph name="atilde" format="1">
  <advance width="773"/>
  <unicode hex="00E3"/>
  <outline>
    <contour>
      <point x="625" y="152" type="line" smooth="yes"/>
      <point x="624" y="121"/>
      <point x="635" y="97"/>
      <point x="665" y="97" type="curve" smooth="yes"/>
      <point x="711" y="97"/>
      <point x="740" y="147"/>
      <point x="740" y="147" type="curve"/>
      <point x="773" y="39" type="line"/>
      <point x="773" y="39"/>
      <point x="727" y="-13"/>
      <point x="640" y="-13" type="curve" smooth="yes"/>
      <point x="521" y="-13"/>
      <point x="491" y="63"/>
      <point x="491" y="175" type="curve"/>
      <point x="486" y="166"/>
      <point x="392" y="-13"/>
      <point x="220" y="-13" type="curve" smooth="yes"/>
      <point x="118" y="-13"/>
      <point x="56" y="35"/>
      <point x="56" y="119" type="curve" smooth="yes"/>
      <point x="56" y="212"/>
      <point x="165" y="319"/>
      <point x="469" y="345" type="curve"/>
      <point x="469" y="396"/>
      <point x="457" y="458"/>
      <point x="355" y="458" type="curve" smooth="yes"/>
      <point x="203" y="458"/>
      <point x="202" y="335"/>
      <point x="202" y="335" type="curve"/>
      <point x="30" y="379" type="line"/>
      <point x="30" y="379"/>
      <point x="83" y="568"/>
      <point x="363" y="568" type="curve" smooth="yes"/>
      <point x="543" y="568"/>
      <point x="638" y="472"/>
      <point x="634" y="359" type="curve"/>
    </contour>
    <contour>
      <point x="446" y="760" type="curve" smooth="yes"/>
      <point x="379" y="760"/>
      <point x="354" y="826"/>
      <point x="269" y="826" type="curve" smooth="yes"/>
      <point x="176" y="826"/>
      <point x="153" y="718"/>
      <point x="153" y="718" type="curve"/>
      <point x="193" y="662" type="line"/>
      <point x="193" y="662"/>
      <point x="207" y="728"/>
      <point x="265" y="728" type="curve" smooth="yes"/>
      <point x="335" y="728"/>
      <point x="356" y="662"/>
      <point x="443" y="662" type="curve" smooth="yes"/>
      <point x="536" y="662"/>
      <point x="559" y="770"/>
      <point x="559" y="770" type="curve"/>
      <point x="519" y="826" type="line"/>
      <point x="519" y="826"/>
      <point x="506" y="760"/>
    </contour>
    <contour>
      <point x="228" y="153" type="curve" smooth="yes"/>
      <point x="228" y="129"/>
      <point x="236" y="97"/>
      <point x="286" y="97" type="curve" smooth="yes"/>
      <point x="402" y="97"/>
      <point x="469" y="253"/>
      <point x="469" y="253" type="curve"/>
      <point x="469" y="292" type="line"/>
      <point x="287" y="275"/>
      <point x="228" y="206"/>
    </contour>
  </outline>
</glyph>
<glyph name="aring" format="1">
  <advance width="772"/>
  <unicode hex="00E5"/>
  <outline>
    <contour>
      <point x="588" y="165" type="line" smooth="yes"/>
      <point x="588" y="141"/>
      <point x="593" y="117"/>
      <point x="620" y="117" type="curve" smooth="yes"/>
      <point x="657" y="117"/>
      <point x="684" y="177"/>
      <point x="684" y="177" type="curve"/>
      <point x="721" y="68" type="line"/>
      <point x="721" y="68"/>
      <point x="678" y="-14"/>
      <point x="577" y="-14" type="curve" smooth="yes"/>
      <point x="507" y="-14"/>
      <point x="449" y="23"/>
      <point x="451" y="111" type="curve" smooth="yes"/>
      <point x="453" y="198" type="line"/>
      <point x="449" y="188"/>
      <point x="375" y="-14"/>
      <point x="214" y="-14" type="curve" smooth="yes"/>
      <point x="133" y="-14"/>
      <point x="84" y="37"/>
      <point x="84" y="115" type="curve" smooth="yes"/>
      <point x="84" y="205"/>
      <point x="167" y="337"/>
      <point x="436" y="345" type="curve"/>
      <point x="434" y="370" type="line" smooth="yes"/>
      <point x="432" y="399"/>
      <point x="418" y="444"/>
      <point x="348" y="444" type="curve" smooth="yes"/>
      <point x="248" y="444"/>
      <point x="215" y="342"/>
      <point x="215" y="342" type="curve"/>
      <point x="100" y="421" type="line"/>
      <point x="100" y="421"/>
      <point x="172" y="578"/>
      <point x="363" y="578" type="curve" smooth="yes"/>
      <point x="523" y="578"/>
      <point x="588" y="464"/>
      <point x="588" y="355" type="curve" smooth="yes"/>
    </contour>
    <contour>
      <point x="267" y="748" type="curve" smooth="yes"/>
      <point x="267" y="690"/>
      <point x="313" y="644"/>
      <point x="371" y="644" type="curve" smooth="yes"/>
      <point x="429" y="644"/>
      <point x="477" y="690"/>
      <point x="477" y="748" type="curve" smooth="yes"/>
      <point x="477" y="806"/>
      <point x="429" y="854"/>
      <point x="371" y="854" type="curve" smooth="yes"/>
      <point x="313" y="854"/>
      <point x="267" y="806"/>
    </contour>
    <contour>
      <point x="243" y="163" type="curve" smooth="yes"/>
      <point x="243" y="138"/>
      <point x="256" y="117"/>
      <point x="291" y="117" type="curve" smooth="yes"/>
      <point x="385" y="117"/>
      <point x="441" y="277"/>
      <point x="441" y="277" type="curve"/>
      <point x="441" y="282" type="line"/>
      <point x="263" y="252"/>
      <point x="243" y="198"/>
    </contour>
    <contour>
      <point x="306" y="748" type="curve" smooth="yes"/>
      <point x="306" y="783"/>
      <point x="335" y="813"/>
      <point x="371" y="813" type="curve" smooth="yes"/>
      <point x="407" y="813"/>
      <point x="436" y="783"/>
      <point x="436" y="748" type="curve" smooth="yes"/>
      <point x="436" y="714"/>
      <point x="407" y="683"/>
      <point x="371" y="683" type="curve" smooth="yes"/>
      <point x="335" y="683"/>
      <point x="306" y="712"/>
    </contour>
  </outline>
</glyph>
<glyph name="ae" format="1">
  <advance width="1077"/>
  <unicode hex="00E6"/>
  <outline>
    <contour>
      <point x="319" y="578" type="curve" smooth="yes"/>
      <point x="138" y="578"/>
      <point x="66" y="421"/>
      <point x="66" y="421" type="curve"/>
      <point x="181" y="342" type="line"/>
      <point x="181" y="342"/>
      <point x="214" y="444"/>
      <point x="314" y="444" type="curve" smooth="yes"/>
      <point x="384" y="444"/>
      <point x="417" y="409"/>
      <point x="422" y="345" type="curve"/>
      <point x="146" y="341"/>
      <point x="50" y="218"/>
      <point x="50" y="115" type="curve" smooth="yes"/>
      <point x="50" y="37"/>
      <point x="99" y="-14"/>
      <point x="180" y="-14" type="curve"/>
      <point x="364" y="-14"/>
      <point x="444" y="235"/>
      <point x="444" y="235" type="curve"/>
      <point x="472" y="69"/>
      <point x="586" y="-14"/>
      <point x="733" y="-14" type="curve" smooth="yes"/>
      <point x="959" y="-14"/>
      <point x="1015" y="156"/>
      <point x="1015" y="218" type="curve"/>
      <point x="871" y="218" type="line"/>
      <point x="871" y="218"/>
      <point x="853" y="117"/>
      <point x="741" y="117" type="curve" smooth="yes"/>
      <point x="652" y="117"/>
      <point x="597" y="181"/>
      <point x="597" y="280" type="curve"/>
      <point x="1006" y="280" type="line"/>
      <point x="1006" y="439"/>
      <point x="917" y="578"/>
      <point x="731" y="578" type="curve"/>
      <point x="585" y="578"/>
      <point x="515" y="466"/>
      <point x="515" y="466" type="curve"/>
      <point x="515" y="466"/>
      <point x="478" y="578"/>
    </contour>
    <contour>
      <point x="735" y="444" type="curve" smooth="yes"/>
      <point x="843" y="444"/>
      <point x="860" y="342"/>
      <point x="860" y="342" type="curve"/>
      <point x="602" y="332" type="line"/>
      <point x="618" y="399"/>
      <point x="666" y="444"/>
    </contour>
    <contour>
      <point x="209" y="163" type="curve" smooth="yes"/>
      <point x="209" y="198"/>
      <point x="239" y="264"/>
      <point x="417" y="286" type="curve"/>
      <point x="417" y="281" type="line"/>
      <point x="417" y="281"/>
      <point x="351" y="117"/>
      <point x="257" y="117" type="curve" smooth="yes"/>
      <point x="222" y="117"/>
      <point x="209" y="138"/>
    </contour>
  </outline>
</glyph>
<glyph name="ccedilla" format="1">
  <advance width="701"/>
  <unicode hex="00E7"/>
  <outline>
    <contour>
      <point x="501" y="218" type="line"/>
      <point x="501" y="218"/>
      <point x="483" y="117"/>
      <point x="366" y="117" type="curve" smooth="yes"/>
      <point x="282" y="117"/>
      <point x="227" y="182"/>
      <point x="227" y="282" type="curve" smooth="yes"/>
      <point x="227" y="375"/>
      <point x="280" y="444"/>
      <point x="366" y="444" type="curve" smooth="yes"/>
      <point x="466" y="444"/>
      <point x="475" y="341"/>
      <point x="475" y="341" type="curve"/>
      <point x="607" y="421" type="line"/>
      <point x="607" y="421"/>
      <point x="568" y="578"/>
      <point x="369" y="578" type="curve" smooth="yes"/>
      <point x="162" y="578"/>
      <point x="64" y="417"/>
      <point x="64" y="280" type="curve" smooth="yes"/>
      <point x="64" y="103"/>
      <point x="189" y="-14"/>
      <point x="363" y="-14" type="curve" smooth="yes"/>
      <point x="582" y="-14"/>
      <point x="645" y="147"/>
      <point x="645" y="218" type="curve"/>
    </contour>
    <contour>
      <point x="291" y="-243" type="line"/>
      <point x="482" y="-78" type="line"/>
      <point x="456" y="-32" type="line"/>
      <point x="218" y="-124" type="line"/>
    </contour>
  </outline>
</glyph>
<glyph name="egrave" format="1">
  <advance width="707"/>
  <unicode hex="00E8"/>
  <outline>
    <contour>
      <point x="636" y="280" type="line"/>
      <point x="636" y="439"/>
      <point x="547" y="578"/>
      <point x="361" y="578" type="curve" smooth="yes"/>
      <point x="172" y="578"/>
      <point x="64" y="427"/>
      <point x="64" y="280" type="curve" smooth="yes"/>
      <point x="64" y="103"/>
      <point x="189" y="-14"/>
      <point x="363" y="-14" type="curve" smooth="yes"/>
      <point x="589" y="-14"/>
      <point x="645" y="156"/>
      <point x="645" y="218" type="curve"/>
      <point x="501" y="218" type="line"/>
      <point x="501" y="218"/>
      <point x="483" y="117"/>
      <point x="371" y="117" type="curve" smooth="yes"/>
      <point x="282" y="117"/>
      <point x="227" y="181"/>
      <point x="227" y="280" type="curve"/>
    </contour>
    <contour>
      <point x="205" y="809" type="line"/>
      <point x="476" y="633" type="line"/>
      <point x="507" y="665" type="line"/>
      <point x="293" y="904" type="line"/>
    </contour>
    <contour>
      <point x="365" y="444" type="curve" smooth="yes"/>
      <point x="473" y="444"/>
      <point x="490" y="342"/>
      <point x="490" y="342" type="curve"/>
      <point x="232" y="332" type="line"/>
      <point x="248" y="399"/>
      <point x="296" y="444"/>
    </contour>
  </outline>
</glyph>
<glyph name="ecircumflex" format="1">
  <advance width="707"/>
  <unicode hex="00EA"/>
  <outline>
    <contour>
      <point x="636" y="280" type="line"/>
      <point x="636" y="439"/>
      <point x="547" y="578"/>
      <point x="361" y="578" type="curve" smooth="yes"/>
      <point x="172" y="578"/>
      <point x="64" y="427"/>
      <point x="64" y="280" type="curve" smooth="yes"/>
      <point x="64" y="103"/>
      <point x="189" y="-14"/>
      <point x="363" y="-14" type="curve" smooth="yes"/>
      <point x="589" y="-14"/>
      <point x="645" y="156"/>
      <point x="645" y="218" type="curve"/>
      <point x="501" y="218" type="line"/>
      <point x="501" y="218"/>
      <point x="483" y="117"/>
      <point x="371" y="117" type="curve" smooth="yes"/>
      <point x="282" y="117"/>
      <point x="227" y="181"/>
      <point x="227" y="280" type="curve"/>
    </contour>
    <contour>
      <point x="349" y="890" type="line"/>
      <point x="93" y="660" type="line"/>
      <point x="123" y="628" type="line"/>
      <point x="349" y="748" type="line"/>
      <point x="574" y="628" type="line"/>
      <point x="605" y="660" type="line"/>
    </contour>
    <contour>
      <point x="365" y="444" type="curve" smooth="yes"/>
      <point x="473" y="444"/>
      <point x="490" y="342"/>
      <point x="490" y="342" type="curve"/>
      <point x="232" y="332" type="line"/>
      <point x="248" y="399"/>
      <point x="296" y="444"/>
    </contour>
  </outline>
</glyph>
<glyph name="edieresis" format="1">
  <advance width="707"/>
  <unicode hex="00EB"/>
  <outline>
    <contour>
      <point x="636" y="280" type="line"/>
      <point x="636" y="439"/>
      <point x="547" y="578"/>
      <point x="361" y="578" type="curve" smooth="yes"/>
      <point x="172" y="578"/>
      <point x="64" y="427"/>
      <point x="64" y="280" type="curve" smooth="yes"/>
      <point x="64" y="103"/>
      <point x="189" y="-14"/>
      <point x="363" y="-14" type="curve" smooth="yes"/>
      <point x="589" y="-14"/>
      <point x="645" y="156"/>
      <point x="645" y="218" type="curve"/>
      <point x="501" y="218" type="line"/>
      <point x="501" y="218"/>
      <point x="483" y="117"/>
      <point x="371" y="117" type="curve" smooth="yes"/>
      <point x="282" y="117"/>
      <point x="227" y="181"/>
      <point x="227" y="280" type="curve"/>
    </contour>
    <contour>
      <point x="365" y="444" type="curve" smooth="yes"/>
      <point x="473" y="444"/>
      <point x="490" y="342"/>
      <point x="490" y="342" type="curve"/>
      <point x="232" y="332" type="line"/>
      <point x="248" y="399"/>
      <point x="296" y="444"/>
    </contour>
    <contour>
      <point x="145" y="807" type="line"/>
      <point x="145" y="691" type="line"/>
      <point x="301" y="691" type="line"/>
      <point x="301" y="807" type="line"/>
    </contour>
    <contour>
      <point x="398" y="807" type="line"/>
      <point x="398" y="691" type="line"/>
      <point x="554" y="691" type="line"/>
      <point x="554" y="807" type="line"/>
    </contour>
  </outline>
</glyph>
<glyph name="igrave" format="1">
  <advance width="323"/>
  <unicode hex="00EC"/>
  <outline>
    <contour>
      <point x="82" y="0" type="line"/>
      <point x="244" y="0" type="line"/>
      <point x="244" y="555" type="line"/>
      <point x="82" y="555" type="line"/>
    </contour>
    <contour>
      <point x="11" y="779" type="line"/>
      <point x="282" y="603" type="line"/>
      <point x="313" y="635" type="line"/>
      <point x="99" y="874" type="line"/>
    </contour>
  </outline>
</glyph>
<glyph name="iacute" format="1">
  <advance width="323"/>
  <unicode hex="00ED"/>
  <outline>
    <contour>
      <point x="82" y="0" type="line"/>
      <point x="244" y="0" type="line"/>
      <point x="244" y="555" type="line"/>
      <point x="82" y="555" type="line"/>
    </contour>
    <contour>
      <point x="225" y="874" type="line"/>
      <point x="11" y="635" type="line"/>
      <point x="42" y="603" type="line"/>
      <point x="313" y="779" type="line"/>
    </contour>
  </outline>
</glyph>
<glyph name="icircumflex" format="1">
  <advance width="323"/>
  <unicode hex="00EE"/>
  <outline>
    <contour>
      <point x="82" y="0" type="line"/>
      <point x="244" y="0" type="line"/>
      <point x="244" y="555" type="line"/>
      <point x="82" y="555" type="line"/>
    </contour>
    <contour>
      <point x="162" y="860" type="line"/>
      <point x="-94" y="630" type="line"/>
      <point x="-64" y="598" type="line"/>
      <point x="162" y="718" type="line"/>
      <point x="387" y="598" type="line"/>
      <point x="418" y="630" type="line"/>
    </contour>
  </outline>
</glyph>
<glyph name="idieresis" format="1">
  <advance width="323"/>
  <unicode hex="00EF"/>
  <outline>
    <contour>
      <point x="82" y="0" type="line"/>
      <point x="244" y="0" type="line"/>
      <point x="244" y="555" type="line"/>
      <point x="82" y="555" type="line"/>
    </contour>
    <contour>
      <point x="-43" y="777" type="line"/>
      <point x="-43" y="661" type="line"/>
      <point x="113" y="661" type="line"/>
      <point x="113" y="777" type="line"/>
    </contour>
    <contour>
      <point x="210" y="777" type="line"/>
      <point x="210" y="661" type="line"/>
      <point x="366" y="661" type="line"/>
      <point x="366" y="777" type="line"/>
    </contour>
  </outline>
</glyph>
<glyph name="ntilde" format="1">
  <advance width="726"/>
  <unicode hex="00F1"/>
  <outline>
    <contour>
      <point x="486" y="0" type="line"/>
      <point x="648" y="0" type="line"/>
      <point x="648" y="338" type="line"/>
      <point x="648" y="480"/>
      <point x="579" y="578"/>
      <point x="439" y="578" type="curve"/>
      <point x="263" y="578"/>
      <point x="232" y="407"/>
      <point x="232" y="407" type="curve"/>
      <point x="153" y="555" type="line"/>
      <point x="82" y="555" type="line"/>
      <point x="82" y="0" type="line"/>
      <point x="244" y="0" type="line"/>
      <point x="244" y="331" type="line"/>
      <point x="244" y="348"/>
      <point x="282" y="444"/>
      <point x="382" y="444" type="curve" smooth="yes"/>
      <point x="445" y="444"/>
      <point x="486" y="402"/>
      <point x="486" y="336" type="curve"/>
    </contour>
    <contour>
      <point x="466" y="822" type="curve" smooth="yes"/>
      <point x="395" y="822"/>
      <point x="364" y="767"/>
      <point x="289" y="767" type="curve"/>
      <point x="220" y="767"/>
      <point x="165" y="819"/>
      <point x="165" y="819" type="curve"/>
      <point x="165" y="720" type="line"/>
      <point x="165" y="720"/>
      <point x="213" y="676"/>
      <point x="289" y="676" type="curve"/>
      <point x="379" y="676"/>
      <point x="400" y="730"/>
      <point x="472" y="730" type="curve" smooth="yes"/>
      <point x="535" y="730"/>
      <point x="583" y="691"/>
      <point x="583" y="691" type="curve"/>
      <point x="583" y="784" type="line"/>
      <point x="583" y="784"/>
      <point x="536" y="822"/>
    </contour>
  </outline>
</glyph>
<glyph name="oacute" format="1">
  <advance width="747"/>
  <unicode hex="00F3"/>
  <outline>
    <contour>
      <point x="64" y="282" type="curve" smooth="yes"/>
      <point x="64" y="128"/>
      <point x="179" y="-14"/>
      <point x="374" y="-14" type="curve" smooth="yes"/>
      <point x="569" y="-14"/>
      <point x="683" y="128"/>
      <point x="683" y="282" type="curve" smooth="yes"/>
      <point x="683" y="434"/>
      <point x="569" y="578"/>
      <point x="374" y="578" type="curve" smooth="yes"/>
      <point x="169" y="578"/>
      <point x="64" y="434"/>
    </contour>
    <contour>
      <point x="234" y="282" type="curve" smooth="yes"/>
      <point x="234" y="374"/>
      <point x="279" y="444"/>
      <point x="374" y="444" type="curve" smooth="yes"/>
      <point x="468" y="444"/>
      <point x="514" y="374"/>
      <point x="514" y="282" type="curve" smooth="yes"/>
      <point x="514" y="190"/>
      <point x="468" y="117"/>
      <point x="374" y="117" type="curve" smooth="yes"/>
      <point x="279" y="117"/>
      <point x="234" y="190"/>
    </contour>
    <contour>
      <point x="486" y="904" type="line"/>
      <point x="272" y="665" type="line"/>
      <point x="303" y="633" type="line"/>
      <point x="574" y="809" type="line"/>
    </contour>
  </outline>
</glyph>
<glyph name="ocircumflex" format="1">
  <advance width="747"/>
  <unicode hex="00F4"/>
  <outline>
    <contour>
      <point x="64" y="282" type="curve" smooth="yes"/>
      <point x="64" y="128"/>
      <point x="179" y="-14"/>
      <point x="374" y="-14" type="curve" smooth="yes"/>
      <point x="569" y="-14"/>
      <point x="683" y="128"/>
      <point x="683" y="282" type="curve" smooth="yes"/>
      <point x="683" y="434"/>
      <point x="569" y="578"/>
      <point x="374" y="578" type="curve" smooth="yes"/>
      <point x="169" y="578"/>
      <point x="64" y="434"/>
    </contour>
    <contour>
      <point x="234" y="282" type="curve" smooth="yes"/>
      <point x="234" y="374"/>
      <point x="279" y="444"/>
      <point x="374" y="444" type="curve" smooth="yes"/>
      <point x="468" y="444"/>
      <point x="514" y="374"/>
      <point x="514" y="282" type="curve" smooth="yes"/>
      <point x="514" y="190"/>
      <point x="468" y="117"/>
      <point x="374" y="117" type="curve" smooth="yes"/>
      <point x="279" y="117"/>
      <point x="234" y="190"/>
    </contour>
    <contour>
      <point x="375" y="890" type="line"/>
      <point x="119" y="660" type="line"/>
      <point x="149" y="628" type="line"/>
      <point x="375" y="748" type="line"/>
      <point x="600" y="628" type="line"/>
      <point x="631" y="660" type="line"/>
    </contour>
  </outline>
</glyph>
<glyph name="divide" format="1">
  <advance width="611"/>
  <unicode hex="00F7"/>
  <outline>
    <contour>
      <point x="296" y="97" type="line"/>
      <point x="296" y="29" type="line"/>
      <point x="365" y="29" type="line"/>
      <point x="365" y="97" type="line"/>
    </contour>
    <contour>
      <point x="296" y="526" type="line"/>
      <point x="296" y="458" type="line"/>
      <point x="365" y="458" type="line"/>
      <point x="365" y="526" type="line"/>
    </contour>
    <contour>
      <point x="21" y="299" type="line"/>
      <point x="21" y="256" type="line"/>
      <point x="588" y="256" type="line"/>
      <point x="588" y="299" type="line"/>
    </contour>
  </outline>
</glyph>
<glyph name="oslash" format="1">
  <advance width="687"/>
  <unicode hex="00F8"/>
  <outline>
    <contour>
      <point x="32" y="282" type="curve" smooth="yes"/>
      <point x="32" y="151"/>
      <point x="115" y="29"/>
      <point x="259" y="-5" type="curve"/>
      <point x="208" y="-197" type="line"/>
      <point x="250" y="-207" type="line"/>
      <point x="302" y="-12" type="line"/>
      <point x="315" y="-13"/>
      <point x="328" y="-14"/>
      <point x="342" y="-14" type="curve" smooth="yes"/>
      <point x="537" y="-14"/>
      <point x="651" y="128"/>
      <point x="651" y="282" type="curve" smooth="yes"/>
      <point x="651" y="401"/>
      <point x="580" y="516"/>
      <point x="455" y="559" type="curve"/>
      <point x="519" y="796" type="line"/>
      <point x="477" y="806" type="line"/>
      <point x="413" y="571" type="line"/>
      <point x="391" y="575"/>
      <point x="367" y="578"/>
      <point x="342" y="578" type="curve" smooth="yes"/>
      <point x="137" y="578"/>
      <point x="32" y="434"/>
    </contour>
    <contour>
      <point x="202" y="282" type="curve" smooth="yes"/>
      <point x="202" y="374"/>
      <point x="247" y="444"/>
      <point x="342" y="444" type="curve" smooth="yes"/>
      <point x="355" y="444"/>
      <point x="367" y="442"/>
      <point x="378" y="440" type="curve"/>
      <point x="294" y="124" type="line"/>
      <point x="231" y="145"/>
      <point x="202" y="207"/>
    </contour>
    <contour>
      <point x="482" y="282" type="curve" smooth="yes"/>
      <point x="482" y="190"/>
      <point x="436" y="117"/>
      <point x="342" y="117" type="curve" smooth="yes"/>
      <point x="337" y="117" type="line"/>
      <point x="419" y="423" type="line"/>
      <point x="461" y="395"/>
      <point x="482" y="344"/>
    </contour>
  </outline>
</glyph>
<glyph name="ugrave" format="1">
  <advance width="726"/>
  <unicode hex="00F9"/>
  <outline>
    <contour>
      <point x="240" y="555" type="line"/>
      <point x="78" y="555" type="line"/>
      <point x="78" y="217" type="line" smooth="yes"/>
      <point x="78" y="75"/>
      <point x="147" y="-14"/>
      <point x="287" y="-14" type="curve" smooth="yes"/>
      <point x="463" y="-14"/>
      <point x="494" y="148"/>
      <point x="494" y="148" type="curve"/>
      <point x="573" y="0" type="line"/>
      <point x="644" y="0" type="line"/>
      <point x="644" y="555" type="line"/>
      <point x="482" y="555" type="line"/>
      <point x="482" y="224" type="line" smooth="yes"/>
      <point x="482" y="207"/>
      <point x="444" y="117"/>
      <point x="344" y="117" type="curve" smooth="yes"/>
      <point x="281" y="117"/>
      <point x="240" y="153"/>
      <point x="240" y="219" type="curve" smooth="yes"/>
    </contour>
    <contour>
      <point x="227" y="809" type="line"/>
      <point x="498" y="633" type="line"/>
      <point x="529" y="665" type="line"/>
      <point x="315" y="904" type="line"/>
    </contour>
  </outline>
</glyph>
<glyph name="uacute" format="1">
  <advance width="726"/>
  <unicode hex="00FA"/>
  <outline>
    <contour>
      <point x="240" y="555" type="line"/>
      <point x="78" y="555" type="line"/>
      <point x="78" y="217" type="line" smooth="yes"/>
      <point x="78" y="75"/>
      <point x="147" y="-14"/>
      <point x="287" y="-14" type="curve" smooth="yes"/>
      <point x="463" y="-14"/>
      <point x="494" y="148"/>
      <point x="494" y="148" type="curve"/>
      <point x="573" y="0" type="line"/>
      <point x="644" y="0" type="line"/>
      <point x="644" y="555" type="line"/>
      <point x="482" y="555" type="line"/>
      <point x="482" y="224" type="line" smooth="yes"/>
      <point x="482" y="207"/>
      <point x="444" y="117"/>
      <point x="344" y="117" type="curve" smooth="yes"/>
      <point x="281" y="117"/>
      <point x="240" y="153"/>
      <point x="240" y="219" type="curve" smooth="yes"/>
    </contour>
    <contour>
      <point x="471" y="904" type="line"/>
      <point x="257" y="665" type="line"/>
      <point x="288" y="633" type="line"/>
      <point x="559" y="809" type="line"/>
    </contour>
  </outline>
</glyph>
<glyph name="ucircumflex" format="1">
  <advance width="726"/>
  <unicode hex="00FB"/>
  <outline>
    <contour>
      <point x="240" y="555" type="line"/>
      <point x="78" y="555" type="line"/>
      <point x="78" y="217" type="line" smooth="yes"/>
      <point x="78" y="75"/>
      <point x="147" y="-14"/>
      <point x="287" y="-14" type="curve" smooth="yes"/>
      <point x="463" y="-14"/>
      <point x="494" y="148"/>
      <point x="494" y="148" type="curve"/>
      <point x="573" y="0" type="line"/>
      <point x="644" y="0" type="line"/>
      <point x="644" y="555" type="line"/>
      <point x="482" y="555" type="line"/>
      <point x="482" y="224" type="line" smooth="yes"/>
      <point x="482" y="207"/>
      <point x="444" y="117"/>
      <point x="344" y="117" type="curve" smooth="yes"/>
      <point x="281" y="117"/>
      <point x="240" y="153"/>
      <point x="240" y="219" type="curve" smooth="yes"/>
    </contour>
    <contour>
      <point x="361" y="890" type="line"/>
      <point x="105" y="660" type="line"/>
      <point x="135" y="628" type="line"/>
      <point x="361" y="748" type="line"/>
      <point x="586" y="628" type="line"/>
      <point x="617" y="660" type="line"/>
    </contour>
  </outline>
</glyph>
<glyph name="udieresis" format="1">
  <advance width="726"/>
  <unicode hex="00FC"/>
  <outline>
    <contour>
      <point x="240" y="555" type="line"/>
      <point x="78" y="555" type="line"/>
      <point x="78" y="217" type="line" smooth="yes"/>
      <point x="78" y="75"/>
      <point x="147" y="-14"/>
      <point x="287" y="-14" type="curve" smooth="yes"/>
      <point x="463" y="-14"/>
      <point x="494" y="148"/>
      <point x="494" y="148" type="curve"/>
      <point x="573" y="0" type="line"/>
      <point x="644" y="0" type="line"/>
      <point x="644" y="555" type="line"/>
      <point x="482" y="555" type="line"/>
      <point x="482" y="224" type="line" smooth="yes"/>
      <point x="482" y="207"/>
      <point x="444" y="117"/>
      <point x="344" y="117" type="curve" smooth="yes"/>
      <point x="281" y="117"/>
      <point x="240" y="153"/>
      <point x="240" y="219" type="curve" smooth="yes"/>
    </contour>
    <contour>
      <point x="157" y="807" type="line"/>
      <point x="157" y="691" type="line"/>
      <point x="313" y="691" type="line"/>
      <point x="313" y="807" type="line"/>
    </contour>
    <contour>
      <point x="410" y="807" type="line"/>
      <point x="410" y="691" type="line"/>
      <point x="566" y="691" type="line"/>
      <point x="566" y="807" type="line"/>
    </contour>
  </outline>
</glyph>
<glyph name="yacute" format="1">
  <advance width="761"/>
  <unicode hex="00FD"/>
  <outline>
    <contour>
      <point x="276" y="-9" type="line" smooth="yes"/>
      <point x="249" y="-56"/>
      <point x="216" y="-79"/>
      <point x="179" y="-79" type="curve"/>
      <point x="135" y="-79"/>
      <point x="111" y="-54"/>
      <point x="111" y="-54" type="curve"/>
      <point x="111" y="-181" type="line"/>
      <point x="111" y="-181"/>
      <point x="148" y="-209"/>
      <point x="208" y="-209" type="curve" smooth="yes"/>
      <point x="300" y="-209"/>
      <point x="362" y="-132"/>
      <point x="440" y="14" type="curve" smooth="yes"/>
      <point x="729" y="555" type="line"/>
      <point x="551" y="555" type="line"/>
      <point x="400" y="217" type="line"/>
      <point x="251" y="555" type="line"/>
      <point x="71" y="555" type="line"/>
      <point x="328" y="82" type="line"/>
    </contour>
    <contour>
      <point x="507" y="904" type="line"/>
      <point x="293" y="665" type="line"/>
      <point x="324" y="633" type="line"/>
      <point x="595" y="809" type="line"/>
    </contour>
  </outline>
</glyph>
<glyph name="ydieresis" format="1">
  <advance width="761"/>
  <unicode hex="00FF"/>
  <outline>
    <contour>
      <point x="276" y="-9" type="line" smooth="yes"/>
      <point x="249" y="-56"/>
      <point x="216" y="-79"/>
      <point x="179" y="-79" type="curve"/>
      <point x="135" y="-79"/>
      <point x="111" y="-54"/>
      <point x="111" y="-54" type="curve"/>
      <point x="111" y="-181" type="line"/>
      <point x="111" y="-181"/>
      <point x="148" y="-209"/>
      <point x="208" y="-209" type="curve" smooth="yes"/>
      <point x="300" y="-209"/>
      <point x="362" y="-132"/>
      <point x="440" y="14" type="curve" smooth="yes"/>
      <point x="729" y="555" type="line"/>
      <point x="551" y="555" type="line"/>
      <point x="400" y="217" type="line"/>
      <point x="251" y="555" type="line"/>
      <point x="71" y="555" type="line"/>
      <point x="328" y="82" type="line"/>
    </contour>
    <contour>
      <point x="197" y="807" type="line"/>
      <point x="197" y="691" type="line"/>
      <point x="353" y="691" type="line"/>
      <point x="353" y="807" type="line"/>
    </contour>
    <contour>
      <point x="450" y="807" type="line"/>
      <point x="450" y="691" type="line"/>
      <point x="606" y="691" type="line"/>
      <point x="606" y="807" type="line"/>
    </contour>
  </outline>
</glyph>
<glyph name="aogonek" format="1">
  <advance width="784"/>
  <unicode hex="0105"/>
  <outline>
    <contour>
      <point x="760" y="-115" type="line"/>
      <point x="716" y="-174"/>
      <point x="620" y="-185"/>
      <point x="620" y="-111" type="curve" smooth="yes"/>
      <point x="620" y="-57"/>
      <point x="671" y="-47"/>
      <point x="755" y="23" type="curve"/>
      <point x="767" y="32"/>
      <point x="773" y="39"/>
      <point x="773" y="39" type="curve"/>
      <point x="740" y="147" type="line"/>
      <point x="740" y="147"/>
      <point x="711" y="97"/>
      <point x="665" y="97" type="curve" smooth="yes"/>
      <point x="635" y="97"/>
      <point x="624" y="121"/>
      <point x="625" y="152" type="curve" smooth="yes"/>
      <point x="634" y="359" type="line" smooth="yes"/>
      <point x="638" y="472"/>
      <point x="543" y="568"/>
      <point x="363" y="568" type="curve" smooth="yes"/>
      <point x="83" y="568"/>
      <point x="30" y="379"/>
      <point x="30" y="379" type="curve"/>
      <point x="202" y="335" type="line"/>
      <point x="202" y="335"/>
      <point x="203" y="458"/>
      <point x="355" y="458" type="curve" smooth="yes"/>
      <point x="457" y="458"/>
      <point x="469" y="396"/>
      <point x="469" y="345" type="curve"/>
      <point x="165" y="319"/>
      <point x="56" y="212"/>
      <point x="56" y="119" type="curve" smooth="yes"/>
      <point x="56" y="35"/>
      <point x="118" y="-13"/>
      <point x="220" y="-13" type="curve" smooth="yes"/>
      <point x="392" y="-13"/>
      <point x="486" y="166"/>
      <point x="491" y="175" type="curve"/>
      <point x="491" y="69"/>
      <point x="518" y="-4"/>
      <point x="620" y="-12" type="curve"/>
      <point x="544" y="-39"/>
      <point x="491" y="-95"/>
      <point x="491" y="-166" type="curve" smooth="yes"/>
      <point x="491" y="-294"/>
      <point x="661" y="-328"/>
      <point x="784" y="-252" type="curve"/>
    </contour>
    <contour>
      <point x="469" y="253" type="line"/>
      <point x="469" y="253"/>
      <point x="402" y="97"/>
      <point x="286" y="97" type="curve" smooth="yes"/>
      <point x="236" y="97"/>
      <point x="228" y="129"/>
      <point x="228" y="153" type="curve" smooth="yes"/>
      <point x="228" y="206"/>
      <point x="287" y="275"/>
      <point x="469" y="292" type="curve"/>
    </contour>
  </outline>
</glyph>
<glyph name="eogonek" format="1">
  <advance width="787"/>
  <unicode hex="0119"/>
  <outline>
    <contour>
      <point x="560" y="-82"/>
      <point x="585" y="-50"/>
      <point x="691" y="111" type="curve"/>
      <point x="720" y="151"/>
      <point x="727" y="184"/>
      <point x="727" y="184" type="curve"/>
      <point x="567" y="225" type="line"/>
      <point x="567" y="225"/>
      <point x="566" y="97"/>
      <point x="414" y="97" type="curve" smooth="yes"/>
      <point x="279" y="97"/>
      <point x="227" y="182"/>
      <point x="226" y="268" type="curve"/>
      <point x="712" y="258" type="line"/>
      <point x="727" y="337"/>
      <point x="710" y="568"/>
      <point x="397" y="568" type="curve" smooth="yes"/>
      <point x="190" y="568"/>
      <point x="60" y="443"/>
      <point x="60" y="278" type="curve" smooth="yes"/>
      <point x="60" y="90"/>
      <point x="218" y="-13"/>
      <point x="397" y="-13" type="curve" smooth="yes"/>
      <point x="445" y="-13"/>
      <point x="486" y="-7"/>
      <point x="522" y="2" type="curve"/>
      <point x="464" y="-52"/>
      <point x="427" y="-95"/>
      <point x="427" y="-156" type="curve" smooth="yes"/>
      <point x="427" y="-301"/>
      <point x="602" y="-326"/>
      <point x="724" y="-252" type="curve"/>
      <point x="700" y="-115" type="line"/>
      <point x="657" y="-174"/>
      <point x="560" y="-183"/>
      <point x="560" y="-114" type="curve" smooth="yes"/>
    </contour>
    <contour>
      <point x="527" y="463"/>
      <point x="541" y="356"/>
      <point x="541" y="356" type="curve" smooth="yes"/>
      <point x="236" y="346" type="line" smooth="yes"/>
      <point x="236" y="346"/>
      <point x="256" y="463"/>
      <point x="394" y="463" type="curve" smooth="yes"/>
    </contour>
  </outline>
</glyph>
<glyph name="lslash" format="1">
  <advance width="462"/>
  <unicode hex="0142"/>
  <outline>
    <contour>
      <point x="442" y="455" type="line"/>
      <point x="393" y="558" type="line"/>
      <point x="295" y="489" type="line"/>
      <point x="295" y="791" type="line"/>
      <point x="295" y="791"/>
      <point x="211" y="777"/>
      <point x="130" y="777" type="curve"/>
      <point x="130" y="372" type="line"/>
      <point x="30" y="301" type="line"/>
      <point x="69" y="228" type="line"/>
      <point x="130" y="265" type="line"/>
      <point x="130" y="0" type="line"/>
      <point x="295" y="0" type="line"/>
      <point x="295" y="366" type="line"/>
    </contour>
  </outline>
</glyph>
<glyph name="Nacute" format="1">
  <advance width="1007"/>
  <unicode hex="0143"/>
  <outline>
    <contour>
      <point x="784" y="1019" type="line"/>
      <point x="574" y="1019" type="line"/>
      <point x="438" y="875" type="line"/>
      <point x="555" y="875" type="line"/>
    </contour>
    <contour>
      <point x="917" y="0" type="line"/>
      <point x="917" y="777" type="line"/>
      <point x="739" y="777" type="line"/>
      <point x="739" y="170" type="line"/>
      <point x="333" y="777" type="line"/>
      <point x="90" y="777" type="line"/>
      <point x="90" y="0" type="line"/>
      <point x="268" y="0" type="line"/>
      <point x="268" y="607" type="line"/>
      <point x="674" y="0" type="line"/>
    </contour>
  </outline>
</glyph>
<glyph name="nacute" format="1">
  <advance width="815"/>
  <unicode hex="0144"/>
  <outline>
    <contour>
      <point x="710" y="777" type="line"/>
      <point x="500" y="777" type="line"/>
      <point x="364" y="633" type="line"/>
      <point x="481" y="633" type="line"/>
    </contour>
    <contour>
      <point x="560" y="0" type="line"/>
      <point x="725" y="0" type="line"/>
      <point x="725" y="340" type="line" smooth="yes"/>
      <point x="725" y="481"/>
      <point x="649" y="568"/>
      <point x="465" y="568" type="curve" smooth="yes"/>
      <point x="245" y="568"/>
      <point x="233" y="398"/>
      <point x="233" y="398" type="curve"/>
      <point x="186" y="555" type="line"/>
      <point x="90" y="555" type="line"/>
      <point x="90" y="0" type="line"/>
      <point x="255" y="0" type="line"/>
      <point x="255" y="336" type="line"/>
      <point x="255" y="336"/>
      <point x="289" y="458"/>
      <point x="420" y="458" type="curve" smooth="yes"/>
      <point x="509" y="458"/>
      <point x="560" y="422"/>
      <point x="560" y="348" type="curve" smooth="yes"/>
    </contour>
  </outline>
</glyph>
<glyph name="OE" format="1">
  <advance width="1303"/>
  <unicode hex="0152"/>
  <outline>
    <contour>
      <point x="56" y="387" type="curve" smooth="yes"/>
      <point x="56" y="163"/>
      <point x="233" y="-14"/>
      <point x="496" y="-14" type="curve" smooth="yes"/>
      <point x="539" y="-14"/>
      <point x="580" y="-9"/>
      <point x="619" y="0" type="curve"/>
      <point x="1244" y="0" type="line"/>
      <point x="1244" y="144" type="line"/>
      <point x="851" y="144" type="line"/>
      <point x="893" y="196"/>
      <point x="920" y="259"/>
      <point x="930" y="328" type="curve"/>
      <point x="1163" y="328" type="line"/>
      <point x="1163" y="471" type="line"/>
      <point x="925" y="471" type="line"/>
      <point x="913" y="531"/>
      <point x="886" y="586"/>
      <point x="849" y="633" type="curve"/>
      <point x="1217" y="633" type="line"/>
      <point x="1217" y="777" type="line"/>
      <point x="605" y="777" type="line"/>
      <point x="571" y="784"/>
      <point x="534" y="788"/>
      <point x="496" y="788" type="curve" smooth="yes"/>
      <point x="233" y="788"/>
      <point x="56" y="611"/>
    </contour>
    <contour>
      <point x="415" y="328" type="line"/>
      <point x="745" y="328" type="line"/>
      <point x="719" y="203"/>
      <point x="611" y="134"/>
      <point x="496" y="134" type="curve" smooth="yes"/>
      <point x="360" y="134"/>
      <point x="239" y="225"/>
      <point x="239" y="387" type="curve" smooth="yes"/>
      <point x="239" y="549"/>
      <point x="360" y="643"/>
      <point x="496" y="643" type="curve" smooth="yes"/>
      <point x="605" y="643"/>
      <point x="705" y="581"/>
      <point x="739" y="471" type="curve"/>
      <point x="415" y="471" type="line"/>
    </contour>
  </outline>
</glyph>
<glyph name="oe" format="1">
  <advance width="1087"/>
  <unicode hex="0153"/>
  <outline>
    <contour>
      <point x="765" y="-14" type="curve" smooth="yes"/>
      <point x="969" y="-14"/>
      <point x="1025" y="156"/>
      <point x="1025" y="218" type="curve"/>
      <point x="881" y="218" type="line"/>
      <point x="881" y="218"/>
      <point x="863" y="117"/>
      <point x="736" y="117" type="curve" smooth="yes"/>
      <point x="607" y="117"/>
      <point x="553" y="211"/>
      <point x="553" y="211" type="curve"/>
      <point x="553" y="211"/>
      <point x="497" y="117"/>
      <point x="390" y="117" type="curve" smooth="yes"/>
      <point x="298" y="117"/>
      <point x="234" y="180"/>
      <point x="234" y="282" type="curve" smooth="yes"/>
      <point x="234" y="384"/>
      <point x="299" y="444"/>
      <point x="390" y="444" type="curve" smooth="yes"/>
      <point x="498" y="444"/>
      <point x="554" y="344"/>
      <point x="554" y="344" type="curve"/>
      <point x="554" y="344"/>
      <point x="608" y="444"/>
      <point x="737" y="444" type="curve" smooth="yes"/>
      <point x="853" y="444"/>
      <point x="870" y="342"/>
      <point x="870" y="342" type="curve"/>
      <point x="554" y="329" type="line"/>
      <point x="554" y="280" type="line"/>
      <point x="1016" y="280" type="line"/>
      <point x="1016" y="439"/>
      <point x="927" y="578"/>
      <point x="766" y="578" type="curve" smooth="yes"/>
      <point x="624" y="578"/>
      <point x="557" y="449"/>
      <point x="554" y="442" type="curve"/>
      <point x="551" y="449"/>
      <point x="501" y="578"/>
      <point x="339" y="578" type="curve" smooth="yes"/>
      <point x="169" y="578"/>
      <point x="64" y="434"/>
      <point x="64" y="282" type="curve" smooth="yes"/>
      <point x="64" y="128"/>
      <point x="179" y="-14"/>
      <point x="339" y="-14" type="curve" smooth="yes"/>
      <point x="495" y="-14"/>
      <point x="554" y="120"/>
      <point x="554" y="120" type="curve"/>
      <point x="554" y="120"/>
      <point x="608" y="-14"/>
    </contour>
  </outline>
</glyph>
<glyph name="sacute" format="1">
  <advance width="700"/>
  <unicode hex="015B"/>
  <outline>
    <contour>
      <point x="620" y="777" type="line"/>
      <point x="410" y="777" type="line"/>
      <point x="274" y="633" type="line"/>
      <point x="391" y="633" type="line"/>
    </contour>
    <contour>
      <point x="40" y="181" type="line"/>
      <point x="40" y="181"/>
      <point x="53" y="-13"/>
      <point x="372" y="-13" type="curve" smooth="yes"/>
      <point x="532" y="-13"/>
      <point x="660" y="47"/>
      <point x="660" y="160" type="curve" smooth="yes"/>
      <point x="660" y="242"/>
      <point x="607" y="306"/>
      <point x="467" y="329" type="curve" smooth="yes"/>
      <point x="327" y="352" type="line" smooth="yes"/>
      <point x="262" y="363"/>
      <point x="221" y="372"/>
      <point x="221" y="405" type="curve" smooth="yes"/>
      <point x="221" y="433"/>
      <point x="253" y="463"/>
      <point x="323" y="463" type="curve" smooth="yes"/>
      <point x="465" y="463"/>
      <point x="470" y="365"/>
      <point x="470" y="365" type="curve"/>
      <point x="630" y="406" type="line"/>
      <point x="630" y="406"/>
      <point x="607" y="568"/>
      <point x="330" y="568" type="curve" smooth="yes"/>
      <point x="184" y="568"/>
      <point x="68" y="505"/>
      <point x="68" y="395" type="curve" smooth="yes"/>
      <point x="68" y="294"/>
      <point x="167" y="260"/>
      <point x="255" y="244" type="curve" smooth="yes"/>
      <point x="385" y="220" type="line" smooth="yes"/>
      <point x="463" y="206"/>
      <point x="497" y="189"/>
      <point x="497" y="155" type="curve" smooth="yes"/>
      <point x="497" y="116"/>
      <point x="440" y="97"/>
      <point x="374" y="97" type="curve" smooth="yes"/>
      <point x="199" y="97"/>
      <point x="200" y="222"/>
      <point x="200" y="222" type="curve"/>
    </contour>
  </outline>
</glyph>
<glyph name="Ydieresis" format="1">
  <advance width="987"/>
  <unicode hex="0178"/>
  <outline>
    <contour>
      <point x="905" y="777" type="line"/>
      <point x="679" y="777" type="line"/>
      <point x="494" y="470" type="line"/>
      <point x="307" y="777" type="line"/>
      <point x="82" y="777" type="line"/>
      <point x="407" y="329" type="line"/>
      <point x="407" y="0" type="line"/>
      <point x="581" y="0" type="line"/>
      <point x="581" y="329" type="line"/>
    </contour>
    <contour>
      <point x="289" y="1029" type="line"/>
      <point x="289" y="907" type="line"/>
      <point x="445" y="907" type="line"/>
      <point x="445" y="1029" type="line"/>
    </contour>
    <contour>
      <point x="542" y="1029" type="line"/>
      <point x="542" y="907" type="line"/>
      <point x="698" y="907" type="line"/>
      <point x="698" y="1029" type="line"/>
    </contour>
  </outline>
</glyph>
<glyph name="Zacute" format="1">
  <advance width="818"/>
  <unicode hex="0179"/>
  <outline>
    <contour>
      <point x="664" y="1019" type="line"/>
      <point x="454" y="1019" type="line"/>
      <point x="318" y="875" type="line"/>
      <point x="435" y="875" type="line"/>
    </contour>
    <contour>
      <point x="798" y="0" type="line"/>
      <point x="798" y="110" type="line"/>
      <point x="255" y="110" type="line"/>
      <point x="798" y="658" type="line"/>
      <point x="798" y="777" type="line"/>
      <point x="20" y="777" type="line"/>
      <point x="20" y="668" type="line"/>
      <point x="563" y="668" type="line"/>
      <point x="20" y="120" type="line"/>
      <point x="20" y="0" type="line"/>
    </contour>
  </outline>
</glyph>
<glyph name="circumflex" format="1">
  <advance width="591"/>
  <unicode hex="02C6"/>
  <outline>
    <contour>
      <point x="303" y="613" type="move" name="_top"/>
    </contour>
    <contour>
      <point x="296" y="860" type="line"/>
      <point x="40" y="630" type="line"/>
      <point x="70" y="598" type="line"/>
      <point x="296" y="718" type="line"/>
      <point x="521" y="598" type="line"/>
      <point x="552" y="630" type="line"/>
    </contour>
  </outline>
</glyph>
<glyph name="ring" format="1">
  <advance width="313"/>
  <unicode hex="02DA"/>
  <outline>
    <contour>
      <point x="159" y="613" type="move" name="_top"/>
    </contour>
    <contour>
      <point x="52" y="718" type="curve" smooth="yes"/>
      <point x="52" y="660"/>
      <point x="98" y="614"/>
      <point x="156" y="614" type="curve" smooth="yes"/>
      <point x="214" y="614"/>
      <point x="262" y="660"/>
      <point x="262" y="718" type="curve" smooth="yes"/>
      <point x="262" y="776"/>
      <point x="214" y="824"/>
      <point x="156" y="824" type="curve" smooth="yes"/>
      <point x="98" y="824"/>
      <point x="52" y="776"/>
    </contour>
    <contour>
      <point x="91" y="718" type="curve" smooth="yes"/>
      <point x="91" y="753"/>
      <point x="120" y="783"/>
      <point x="156" y="783" type="curve" smooth="yes"/>
      <point x="192" y="783"/>
      <point x="221" y="753"/>
      <point x="221" y="718" type="curve" smooth="yes"/>
      <point x="221" y="684"/>
      <point x="192" y="653"/>
      <point x="156" y="653" type="curve" smooth="yes"/>
      <point x="120" y="653"/>
      <point x="91" y="682"/>
    </contour>
  </outline>
</glyph>
<glyph name="tilde" format="1">
  <advance width="539"/>
  <unicode hex="02DC"/>
  <outline>
    <contour>
      <point x="281" y="613" type="move" name="_top"/>
    </contour>
    <contour>
      <point x="364" y="792" type="curve" smooth="yes"/>
      <point x="293" y="792"/>
      <point x="262" y="737"/>
      <point x="187" y="737" type="curve"/>
      <point x="118" y="737"/>
      <point x="63" y="789"/>
      <point x="63" y="789" type="curve"/>
      <point x="63" y="690" type="line"/>
      <point x="63" y="690"/>
      <point x="111" y="646"/>
      <point x="187" y="646" type="curve"/>
      <point x="277" y="646"/>
      <point x="298" y="700"/>
      <point x="370" y="700" type="curve" smooth="yes"/>
      <point x="433" y="700"/>
      <point x="481" y="661"/>
      <point x="481" y="661" type="curve"/>
      <point x="481" y="754" type="line"/>
      <point x="481" y="754"/>
      <point x="434" y="792"/>
    </contour>
  </outline>
</glyph>
<glyph name="uni0344" format="1">
  <advance width="668"/>
  <unicode hex="0344"/>
  <outline>
    <contour>
      <point x="306" y="817" type="line"/>
      <point x="210" y="628" type="line"/>
      <point x="297" y="628" type="line"/>
      <point x="486" y="817" type="line"/>
    </contour>
    <contour>
      <point x="50" y="627" type="line"/>
      <point x="188" y="627" type="line"/>
      <point x="188" y="777" type="line"/>
      <point x="50" y="777" type="line"/>
    </contour>
    <contour>
      <point x="480" y="627" type="line"/>
      <point x="618" y="627" type="line"/>
      <point x="618" y="777" type="line"/>
      <point x="480" y="777" type="line"/>
    </contour>
    <contour>
      <point x="337" y="613" type="move" name="_top"/>
    </contour>
  </outline>
</glyph>
<glyph name="tonos" format="1">
  <advance width="446"/>
  <unicode hex="0384"/>
  <outline>
    <contour>
      <point x="186" y="777" type="line"/>
      <point x="50" y="628" type="line"/>
      <point x="167" y="628" type="line"/>
      <point x="396" y="777" type="line"/>
    </contour>
    <contour>
      <point x="177" y="613" type="move" name="_top"/>
    </contour>
  </outline>
</glyph>
<glyph name="Beta" format="1">
  <advance width="922"/>
  <unicode hex="0392"/>
  <outline>
    <contour>
      <point x="456" y="777" type="curve" smooth="yes"/>
      <point x="90" y="777" type="line"/>
      <point x="90" y="0" type="line"/>
      <point x="476" y="0" type="line" smooth="yes"/>
      <point x="742" y="0"/>
      <point x="862" y="79"/>
      <point x="862" y="227" type="curve" smooth="yes"/>
      <point x="862" y="375"/>
      <point x="714" y="401"/>
      <point x="700" y="403" type="curve"/>
      <point x="713" y="405"/>
      <point x="842" y="430"/>
      <point x="842" y="560" type="curve" smooth="yes"/>
      <point x="842" y="708"/>
      <point x="722" y="777"/>
    </contour>
    <contour>
      <point x="466" y="452" type="curve" smooth="yes"/>
      <point x="268" y="452" type="line"/>
      <point x="268" y="668" type="line"/>
      <point x="466" y="668" type="line" smooth="yes"/>
      <point x="580" y="668"/>
      <point x="657" y="640"/>
      <point x="657" y="560" type="curve" smooth="yes"/>
      <point x="657" y="480"/>
      <point x="580" y="452"/>
    </contour>
    <contour>
      <point x="268" y="110" type="line"/>
      <point x="268" y="346" type="line"/>
      <point x="495" y="346" type="line" smooth="yes"/>
      <point x="604" y="346"/>
      <point x="677" y="306"/>
      <point x="677" y="228" type="curve" smooth="yes"/>
      <point x="677" y="148"/>
      <point x="600" y="110"/>
      <point x="486" y="110" type="curve" smooth="yes"/>
    </contour>
  </outline>
</glyph>
<glyph name="Gamma" format="1">
  <advance width="815"/>
  <unicode hex="0393"/>
  <outline>
    <contour>
      <point x="90" y="0" type="line"/>
      <point x="268" y="0" type="line"/>
      <point x="268" y="668" type="line"/>
      <point x="745" y="668" type="line"/>
      <point x="745" y="777" type="line"/>
      <point x="90" y="777" type="line"/>
    </contour>
  </outline>
</glyph>
